<mxfile host="65bd71144e" pages="3">
    <diagram id="j2Dkr1wJaOpUPJbIkSWD" name="メニュー構成">
        <mxGraphModel dx="1987" dy="534" grid="1" gridSize="10" guides="1" tooltips="1" connect="1" arrows="1" fold="1" page="1" pageScale="1" pageWidth="827" pageHeight="1169" math="0" shadow="0">
            <root>
                <mxCell id="0"/>
                <mxCell id="1" parent="0"/>
                <mxCell id="6" style="edgeStyle=orthogonalEdgeStyle;rounded=0;orthogonalLoop=1;jettySize=auto;html=1;" parent="1" source="2" target="5" edge="1">
                    <mxGeometry relative="1" as="geometry"/>
                </mxCell>
                <mxCell id="7" style="edgeStyle=orthogonalEdgeStyle;rounded=0;orthogonalLoop=1;jettySize=auto;html=1;" parent="1" source="2" target="4" edge="1">
                    <mxGeometry relative="1" as="geometry"/>
                </mxCell>
                <mxCell id="8" style="edgeStyle=orthogonalEdgeStyle;rounded=0;orthogonalLoop=1;jettySize=auto;html=1;entryX=0.5;entryY=0;entryDx=0;entryDy=0;" parent="1" source="2" target="3" edge="1">
                    <mxGeometry relative="1" as="geometry"/>
                </mxCell>
                <mxCell id="2" value="Top" style="whiteSpace=wrap;html=1;" parent="1" vertex="1">
                    <mxGeometry x="200" y="60" width="120" height="60" as="geometry"/>
                </mxCell>
                <mxCell id="12" style="edgeStyle=orthogonalEdgeStyle;rounded=0;orthogonalLoop=1;jettySize=auto;html=1;entryX=0.5;entryY=0;entryDx=0;entryDy=0;" parent="1" source="3" target="9" edge="1">
                    <mxGeometry relative="1" as="geometry"/>
                </mxCell>
                <mxCell id="3" value="予約状況一覧" style="whiteSpace=wrap;html=1;" parent="1" vertex="1">
                    <mxGeometry x="380" y="200" width="120" height="60" as="geometry"/>
                </mxCell>
                <mxCell id="20" style="edgeStyle=orthogonalEdgeStyle;rounded=0;orthogonalLoop=1;jettySize=auto;html=1;exitX=0.25;exitY=1;exitDx=0;exitDy=0;entryX=0;entryY=0.613;entryDx=0;entryDy=0;entryPerimeter=0;" parent="1" source="4" target="17" edge="1">
                    <mxGeometry relative="1" as="geometry"/>
                </mxCell>
                <mxCell id="4" value="キャンプ場一覧" style="whiteSpace=wrap;html=1;" parent="1" vertex="1">
                    <mxGeometry x="200" y="200" width="120" height="60" as="geometry"/>
                </mxCell>
                <mxCell id="15" style="edgeStyle=orthogonalEdgeStyle;rounded=0;orthogonalLoop=1;jettySize=auto;html=1;entryX=0.5;entryY=0;entryDx=0;entryDy=0;" parent="1" source="5" target="14" edge="1">
                    <mxGeometry relative="1" as="geometry"/>
                </mxCell>
                <mxCell id="5" value="キャンプ場最新情報" style="whiteSpace=wrap;html=1;" parent="1" vertex="1">
                    <mxGeometry x="30" y="200" width="120" height="60" as="geometry"/>
                </mxCell>
                <mxCell id="13" style="edgeStyle=orthogonalEdgeStyle;rounded=0;orthogonalLoop=1;jettySize=auto;html=1;entryX=0.5;entryY=1;entryDx=0;entryDy=0;" parent="1" source="9" target="3" edge="1">
                    <mxGeometry relative="1" as="geometry"/>
                </mxCell>
                <mxCell id="9" value="予約状況" style="shape=cylinder;whiteSpace=wrap;html=1;boundedLbl=1;backgroundOutline=1;" parent="1" vertex="1">
                    <mxGeometry x="600" y="260" width="90" height="80" as="geometry"/>
                </mxCell>
                <mxCell id="16" style="edgeStyle=orthogonalEdgeStyle;rounded=0;orthogonalLoop=1;jettySize=auto;html=1;entryX=0.5;entryY=1;entryDx=0;entryDy=0;" parent="1" source="14" target="5" edge="1">
                    <mxGeometry relative="1" as="geometry"/>
                </mxCell>
                <mxCell id="14" value="キャンプ場最新情報" style="shape=cylinder;whiteSpace=wrap;html=1;boundedLbl=1;backgroundOutline=1;" parent="1" vertex="1">
                    <mxGeometry x="-100" y="260" width="90" height="80" as="geometry"/>
                </mxCell>
                <mxCell id="21" style="edgeStyle=orthogonalEdgeStyle;rounded=0;orthogonalLoop=1;jettySize=auto;html=1;entryX=0.867;entryY=1;entryDx=0;entryDy=0;entryPerimeter=0;exitX=0.99;exitY=0.588;exitDx=0;exitDy=0;exitPerimeter=0;" parent="1" source="17" target="4" edge="1">
                    <mxGeometry relative="1" as="geometry"/>
                </mxCell>
                <mxCell id="17" value="キャンプ場情報" style="shape=cylinder;whiteSpace=wrap;html=1;boundedLbl=1;backgroundOutline=1;" parent="1" vertex="1">
                    <mxGeometry x="210" y="310" width="100" height="80" as="geometry"/>
                </mxCell>
                <mxCell id="xYVO_3l9nzE03jYVT4Hf-21" value="付属施設の一覧も載せたい" style="text;html=1;align=center;verticalAlign=middle;resizable=0;points=[];autosize=1;" parent="1" vertex="1">
                    <mxGeometry x="220" y="400" width="160" height="20" as="geometry"/>
                </mxCell>
            </root>
        </mxGraphModel>
    </diagram>
    <diagram id="kYufEC4sNPnH34RemRI6" name="クラス図">
        <mxGraphModel dx="1366" dy="317" grid="1" gridSize="10" guides="1" tooltips="1" connect="1" arrows="1" fold="1" page="1" pageScale="1" pageWidth="827" pageHeight="1169" math="0" shadow="0">
            <root>
                <mxCell id="j5kkjdyljS-DFzM0BRrH-0"/>
                <mxCell id="j5kkjdyljS-DFzM0BRrH-1" parent="j5kkjdyljS-DFzM0BRrH-0"/>
                <mxCell id="GJe1yP15iEL6D2NeIw-V-1" value="camplist" style="shape=table;startSize=30;container=1;collapsible=1;childLayout=tableLayout;fixedRows=1;rowLines=0;fontStyle=1;align=center;resizeLast=1;" parent="j5kkjdyljS-DFzM0BRrH-1" vertex="1">
                    <mxGeometry x="110" y="280" width="180" height="250" as="geometry">
                        <mxRectangle x="110" y="280" width="80" height="30" as="alternateBounds"/>
                    </mxGeometry>
                </mxCell>
                <mxCell id="GJe1yP15iEL6D2NeIw-V-2" value="" style="shape=partialRectangle;collapsible=0;dropTarget=0;pointerEvents=0;fillColor=none;top=0;left=0;bottom=1;right=0;points=[[0,0.5],[1,0.5]];portConstraint=eastwest;" parent="GJe1yP15iEL6D2NeIw-V-1" vertex="1">
                    <mxGeometry y="30" width="180" height="30" as="geometry"/>
                </mxCell>
                <mxCell id="GJe1yP15iEL6D2NeIw-V-3" value="PK" style="shape=partialRectangle;connectable=0;fillColor=none;top=0;left=0;bottom=0;right=0;fontStyle=1;overflow=hidden;" parent="GJe1yP15iEL6D2NeIw-V-2" vertex="1">
                    <mxGeometry width="30" height="30" as="geometry"/>
                </mxCell>
                <mxCell id="GJe1yP15iEL6D2NeIw-V-4" value="campid" style="shape=partialRectangle;connectable=0;fillColor=none;top=0;left=0;bottom=0;right=0;align=left;spacingLeft=6;fontStyle=5;overflow=hidden;" parent="GJe1yP15iEL6D2NeIw-V-2" vertex="1">
                    <mxGeometry x="30" width="150" height="30" as="geometry"/>
                </mxCell>
                <mxCell id="EZzCHewfSCqTeQJnVhy--19" style="shape=partialRectangle;collapsible=0;dropTarget=0;pointerEvents=0;fillColor=none;top=0;left=0;bottom=0;right=0;points=[[0,0.5],[1,0.5]];portConstraint=eastwest;" parent="GJe1yP15iEL6D2NeIw-V-1" vertex="1">
                    <mxGeometry y="60" width="180" height="30" as="geometry"/>
                </mxCell>
                <mxCell id="EZzCHewfSCqTeQJnVhy--20" style="shape=partialRectangle;connectable=0;fillColor=none;top=0;left=0;bottom=0;right=0;editable=1;overflow=hidden;" parent="EZzCHewfSCqTeQJnVhy--19" vertex="1">
                    <mxGeometry width="30" height="30" as="geometry"/>
                </mxCell>
                <mxCell id="EZzCHewfSCqTeQJnVhy--21" value="campname" style="shape=partialRectangle;connectable=0;fillColor=none;top=0;left=0;bottom=0;right=0;align=left;spacingLeft=6;overflow=hidden;" parent="EZzCHewfSCqTeQJnVhy--19" vertex="1">
                    <mxGeometry x="30" width="150" height="30" as="geometry"/>
                </mxCell>
                <mxCell id="JcJrFMulHQuNIaQGMKc1-0" style="shape=partialRectangle;collapsible=0;dropTarget=0;pointerEvents=0;fillColor=none;top=0;left=0;bottom=0;right=0;points=[[0,0.5],[1,0.5]];portConstraint=eastwest;" parent="GJe1yP15iEL6D2NeIw-V-1" vertex="1">
                    <mxGeometry y="90" width="180" height="30" as="geometry"/>
                </mxCell>
                <mxCell id="JcJrFMulHQuNIaQGMKc1-1" style="shape=partialRectangle;connectable=0;fillColor=none;top=0;left=0;bottom=0;right=0;editable=1;overflow=hidden;" parent="JcJrFMulHQuNIaQGMKc1-0" vertex="1">
                    <mxGeometry width="30" height="30" as="geometry"/>
                </mxCell>
                <mxCell id="JcJrFMulHQuNIaQGMKc1-2" value="area" style="shape=partialRectangle;connectable=0;fillColor=none;top=0;left=0;bottom=0;right=0;align=left;spacingLeft=6;overflow=hidden;" parent="JcJrFMulHQuNIaQGMKc1-0" vertex="1">
                    <mxGeometry x="30" width="150" height="30" as="geometry"/>
                </mxCell>
                <mxCell id="GJe1yP15iEL6D2NeIw-V-5" value="" style="shape=partialRectangle;collapsible=0;dropTarget=0;pointerEvents=0;fillColor=none;top=0;left=0;bottom=0;right=0;points=[[0,0.5],[1,0.5]];portConstraint=eastwest;" parent="GJe1yP15iEL6D2NeIw-V-1" vertex="1">
                    <mxGeometry y="120" width="180" height="30" as="geometry"/>
                </mxCell>
                <mxCell id="GJe1yP15iEL6D2NeIw-V-6" value="" style="shape=partialRectangle;connectable=0;fillColor=none;top=0;left=0;bottom=0;right=0;editable=1;overflow=hidden;" parent="GJe1yP15iEL6D2NeIw-V-5" vertex="1">
                    <mxGeometry width="30" height="30" as="geometry"/>
                </mxCell>
                <mxCell id="GJe1yP15iEL6D2NeIw-V-7" value="address" style="shape=partialRectangle;connectable=0;fillColor=none;top=0;left=0;bottom=0;right=0;align=left;spacingLeft=6;overflow=hidden;" parent="GJe1yP15iEL6D2NeIw-V-5" vertex="1">
                    <mxGeometry x="30" width="150" height="30" as="geometry"/>
                </mxCell>
                <mxCell id="GJe1yP15iEL6D2NeIw-V-11" value="" style="shape=partialRectangle;collapsible=0;dropTarget=0;pointerEvents=0;fillColor=none;top=0;left=0;bottom=0;right=0;points=[[0,0.5],[1,0.5]];portConstraint=eastwest;" parent="GJe1yP15iEL6D2NeIw-V-1" vertex="1">
                    <mxGeometry y="150" width="180" height="30" as="geometry"/>
                </mxCell>
                <mxCell id="GJe1yP15iEL6D2NeIw-V-12" value="" style="shape=partialRectangle;connectable=0;fillColor=none;top=0;left=0;bottom=0;right=0;editable=1;overflow=hidden;" parent="GJe1yP15iEL6D2NeIw-V-11" vertex="1">
                    <mxGeometry width="30" height="30" as="geometry"/>
                </mxCell>
                <mxCell id="GJe1yP15iEL6D2NeIw-V-13" value="url" style="shape=partialRectangle;connectable=0;fillColor=none;top=0;left=0;bottom=0;right=0;align=left;spacingLeft=6;overflow=hidden;" parent="GJe1yP15iEL6D2NeIw-V-11" vertex="1">
                    <mxGeometry x="30" width="150" height="30" as="geometry"/>
                </mxCell>
                <mxCell id="GJe1yP15iEL6D2NeIw-V-8" value="" style="shape=partialRectangle;collapsible=0;dropTarget=0;pointerEvents=0;fillColor=none;top=0;left=0;bottom=0;right=0;points=[[0,0.5],[1,0.5]];portConstraint=eastwest;" parent="GJe1yP15iEL6D2NeIw-V-1" vertex="1">
                    <mxGeometry y="180" width="180" height="30" as="geometry"/>
                </mxCell>
                <mxCell id="GJe1yP15iEL6D2NeIw-V-9" value="" style="shape=partialRectangle;connectable=0;fillColor=none;top=0;left=0;bottom=0;right=0;editable=1;overflow=hidden;" parent="GJe1yP15iEL6D2NeIw-V-8" vertex="1">
                    <mxGeometry width="30" height="30" as="geometry"/>
                </mxCell>
                <mxCell id="GJe1yP15iEL6D2NeIw-V-10" value="phone" style="shape=partialRectangle;connectable=0;fillColor=none;top=0;left=0;bottom=0;right=0;align=left;spacingLeft=6;overflow=hidden;" parent="GJe1yP15iEL6D2NeIw-V-8" vertex="1">
                    <mxGeometry x="30" width="150" height="30" as="geometry"/>
                </mxCell>
                <mxCell id="eU9vivE2AT-rIZnDfKfP-0" style="shape=partialRectangle;collapsible=0;dropTarget=0;pointerEvents=0;fillColor=none;top=0;left=0;bottom=0;right=0;points=[[0,0.5],[1,0.5]];portConstraint=eastwest;" parent="GJe1yP15iEL6D2NeIw-V-1" vertex="1">
                    <mxGeometry y="210" width="180" height="30" as="geometry"/>
                </mxCell>
                <mxCell id="eU9vivE2AT-rIZnDfKfP-1" style="shape=partialRectangle;connectable=0;fillColor=none;top=0;left=0;bottom=0;right=0;editable=1;overflow=hidden;" parent="eU9vivE2AT-rIZnDfKfP-0" vertex="1">
                    <mxGeometry width="30" height="30" as="geometry"/>
                </mxCell>
                <mxCell id="eU9vivE2AT-rIZnDfKfP-2" value="reservmethod" style="shape=partialRectangle;connectable=0;fillColor=none;top=0;left=0;bottom=0;right=0;align=left;spacingLeft=6;overflow=hidden;" parent="eU9vivE2AT-rIZnDfKfP-0" vertex="1">
                    <mxGeometry x="30" width="150" height="30" as="geometry"/>
                </mxCell>
                <mxCell id="EZzCHewfSCqTeQJnVhy--0" value="campinf" style="shape=table;startSize=30;container=1;collapsible=1;childLayout=tableLayout;fixedRows=1;rowLines=0;fontStyle=1;align=center;resizeLast=1;" parent="j5kkjdyljS-DFzM0BRrH-1" vertex="1">
                    <mxGeometry x="110" y="540" width="180" height="160" as="geometry"/>
                </mxCell>
                <mxCell id="EZzCHewfSCqTeQJnVhy--1" value="" style="shape=partialRectangle;collapsible=0;dropTarget=0;pointerEvents=0;fillColor=none;top=0;left=0;bottom=1;right=0;points=[[0,0.5],[1,0.5]];portConstraint=eastwest;" parent="EZzCHewfSCqTeQJnVhy--0" vertex="1">
                    <mxGeometry y="30" width="180" height="30" as="geometry"/>
                </mxCell>
                <mxCell id="EZzCHewfSCqTeQJnVhy--2" value="PK" style="shape=partialRectangle;connectable=0;fillColor=none;top=0;left=0;bottom=0;right=0;fontStyle=1;overflow=hidden;" parent="EZzCHewfSCqTeQJnVhy--1" vertex="1">
                    <mxGeometry width="30" height="30" as="geometry"/>
                </mxCell>
                <mxCell id="EZzCHewfSCqTeQJnVhy--3" value="campid" style="shape=partialRectangle;connectable=0;fillColor=none;top=0;left=0;bottom=0;right=0;align=left;spacingLeft=6;fontStyle=5;overflow=hidden;" parent="EZzCHewfSCqTeQJnVhy--1" vertex="1">
                    <mxGeometry x="30" width="150" height="30" as="geometry"/>
                </mxCell>
                <mxCell id="EZzCHewfSCqTeQJnVhy--35" style="shape=partialRectangle;collapsible=0;dropTarget=0;pointerEvents=0;fillColor=none;top=0;left=0;bottom=1;right=0;points=[[0,0.5],[1,0.5]];portConstraint=eastwest;" parent="EZzCHewfSCqTeQJnVhy--0" vertex="1">
                    <mxGeometry y="60" width="180" height="30" as="geometry"/>
                </mxCell>
                <mxCell id="EZzCHewfSCqTeQJnVhy--36" value="PK" style="shape=partialRectangle;connectable=0;fillColor=none;top=0;left=0;bottom=0;right=0;fontStyle=1;overflow=hidden;" parent="EZzCHewfSCqTeQJnVhy--35" vertex="1">
                    <mxGeometry width="30" height="30" as="geometry"/>
                </mxCell>
                <mxCell id="EZzCHewfSCqTeQJnVhy--37" value="updateid" style="shape=partialRectangle;connectable=0;fillColor=none;top=0;left=0;bottom=0;right=0;align=left;spacingLeft=6;fontStyle=5;overflow=hidden;" parent="EZzCHewfSCqTeQJnVhy--35" vertex="1">
                    <mxGeometry x="30" width="150" height="30" as="geometry"/>
                </mxCell>
                <mxCell id="EZzCHewfSCqTeQJnVhy--4" value="" style="shape=partialRectangle;collapsible=0;dropTarget=0;pointerEvents=0;fillColor=none;top=0;left=0;bottom=0;right=0;points=[[0,0.5],[1,0.5]];portConstraint=eastwest;" parent="EZzCHewfSCqTeQJnVhy--0" vertex="1">
                    <mxGeometry y="90" width="180" height="30" as="geometry"/>
                </mxCell>
                <mxCell id="EZzCHewfSCqTeQJnVhy--5" value="" style="shape=partialRectangle;connectable=0;fillColor=none;top=0;left=0;bottom=0;right=0;editable=1;overflow=hidden;" parent="EZzCHewfSCqTeQJnVhy--4" vertex="1">
                    <mxGeometry width="30" height="30" as="geometry"/>
                </mxCell>
                <mxCell id="EZzCHewfSCqTeQJnVhy--6" value="updatedate" style="shape=partialRectangle;connectable=0;fillColor=none;top=0;left=0;bottom=0;right=0;align=left;spacingLeft=6;overflow=hidden;" parent="EZzCHewfSCqTeQJnVhy--4" vertex="1">
                    <mxGeometry x="30" width="150" height="30" as="geometry"/>
                </mxCell>
                <mxCell id="EZzCHewfSCqTeQJnVhy--7" value="" style="shape=partialRectangle;collapsible=0;dropTarget=0;pointerEvents=0;fillColor=none;top=0;left=0;bottom=0;right=0;points=[[0,0.5],[1,0.5]];portConstraint=eastwest;" parent="EZzCHewfSCqTeQJnVhy--0" vertex="1">
                    <mxGeometry y="120" width="180" height="30" as="geometry"/>
                </mxCell>
                <mxCell id="EZzCHewfSCqTeQJnVhy--8" value="" style="shape=partialRectangle;connectable=0;fillColor=none;top=0;left=0;bottom=0;right=0;editable=1;overflow=hidden;" parent="EZzCHewfSCqTeQJnVhy--7" vertex="1">
                    <mxGeometry width="30" height="30" as="geometry"/>
                </mxCell>
                <mxCell id="EZzCHewfSCqTeQJnVhy--9" value="inf" style="shape=partialRectangle;connectable=0;fillColor=none;top=0;left=0;bottom=0;right=0;align=left;spacingLeft=6;overflow=hidden;" parent="EZzCHewfSCqTeQJnVhy--7" vertex="1">
                    <mxGeometry x="30" width="150" height="30" as="geometry"/>
                </mxCell>
                <mxCell id="EZzCHewfSCqTeQJnVhy--22" value="reservinf" style="shape=table;startSize=30;container=1;collapsible=1;childLayout=tableLayout;fixedRows=1;rowLines=0;fontStyle=1;align=center;resizeLast=1;" parent="j5kkjdyljS-DFzM0BRrH-1" vertex="1">
                    <mxGeometry x="370" y="290" width="180" height="240" as="geometry"/>
                </mxCell>
                <mxCell id="EZzCHewfSCqTeQJnVhy--23" value="" style="shape=partialRectangle;collapsible=0;dropTarget=0;pointerEvents=0;fillColor=none;top=0;left=0;bottom=1;right=0;points=[[0,0.5],[1,0.5]];portConstraint=eastwest;" parent="EZzCHewfSCqTeQJnVhy--22" vertex="1">
                    <mxGeometry y="30" width="180" height="30" as="geometry"/>
                </mxCell>
                <mxCell id="EZzCHewfSCqTeQJnVhy--24" value="PK" style="shape=partialRectangle;connectable=0;fillColor=none;top=0;left=0;bottom=0;right=0;fontStyle=1;overflow=hidden;" parent="EZzCHewfSCqTeQJnVhy--23" vertex="1">
                    <mxGeometry width="30" height="30" as="geometry"/>
                </mxCell>
                <mxCell id="EZzCHewfSCqTeQJnVhy--25" value="campid" style="shape=partialRectangle;connectable=0;fillColor=none;top=0;left=0;bottom=0;right=0;align=left;spacingLeft=6;fontStyle=5;overflow=hidden;" parent="EZzCHewfSCqTeQJnVhy--23" vertex="1">
                    <mxGeometry x="30" width="150" height="30" as="geometry"/>
                </mxCell>
                <mxCell id="MLrRrqi5HHUcRcrmSUTy-3" style="shape=partialRectangle;collapsible=0;dropTarget=0;pointerEvents=0;fillColor=none;top=0;left=0;bottom=1;right=0;points=[[0,0.5],[1,0.5]];portConstraint=eastwest;" parent="EZzCHewfSCqTeQJnVhy--22" vertex="1">
                    <mxGeometry y="60" width="180" height="30" as="geometry"/>
                </mxCell>
                <mxCell id="MLrRrqi5HHUcRcrmSUTy-4" value="PK" style="shape=partialRectangle;connectable=0;fillColor=none;top=0;left=0;bottom=0;right=0;fontStyle=1;overflow=hidden;" parent="MLrRrqi5HHUcRcrmSUTy-3" vertex="1">
                    <mxGeometry width="30" height="30" as="geometry"/>
                </mxCell>
                <mxCell id="MLrRrqi5HHUcRcrmSUTy-5" value="Facilityid" style="shape=partialRectangle;connectable=0;fillColor=none;top=0;left=0;bottom=0;right=0;align=left;spacingLeft=6;fontStyle=5;overflow=hidden;" parent="MLrRrqi5HHUcRcrmSUTy-3" vertex="1">
                    <mxGeometry x="30" width="150" height="30" as="geometry"/>
                </mxCell>
                <mxCell id="MLrRrqi5HHUcRcrmSUTy-9" style="shape=partialRectangle;collapsible=0;dropTarget=0;pointerEvents=0;fillColor=none;top=0;left=0;bottom=1;right=0;points=[[0,0.5],[1,0.5]];portConstraint=eastwest;" parent="EZzCHewfSCqTeQJnVhy--22" vertex="1">
                    <mxGeometry y="90" width="180" height="30" as="geometry"/>
                </mxCell>
                <mxCell id="MLrRrqi5HHUcRcrmSUTy-10" value="PK" style="shape=partialRectangle;connectable=0;fillColor=none;top=0;left=0;bottom=0;right=0;fontStyle=1;overflow=hidden;" parent="MLrRrqi5HHUcRcrmSUTy-9" vertex="1">
                    <mxGeometry width="30" height="30" as="geometry"/>
                </mxCell>
                <mxCell id="MLrRrqi5HHUcRcrmSUTy-11" value="year" style="shape=partialRectangle;connectable=0;fillColor=none;top=0;left=0;bottom=0;right=0;align=left;spacingLeft=6;fontStyle=5;overflow=hidden;" parent="MLrRrqi5HHUcRcrmSUTy-9" vertex="1">
                    <mxGeometry x="30" width="150" height="30" as="geometry"/>
                </mxCell>
                <mxCell id="MLrRrqi5HHUcRcrmSUTy-12" style="shape=partialRectangle;collapsible=0;dropTarget=0;pointerEvents=0;fillColor=none;top=0;left=0;bottom=1;right=0;points=[[0,0.5],[1,0.5]];portConstraint=eastwest;" parent="EZzCHewfSCqTeQJnVhy--22" vertex="1">
                    <mxGeometry y="120" width="180" height="30" as="geometry"/>
                </mxCell>
                <mxCell id="MLrRrqi5HHUcRcrmSUTy-13" value="PK" style="shape=partialRectangle;connectable=0;fillColor=none;top=0;left=0;bottom=0;right=0;fontStyle=1;overflow=hidden;" parent="MLrRrqi5HHUcRcrmSUTy-12" vertex="1">
                    <mxGeometry width="30" height="30" as="geometry"/>
                </mxCell>
                <mxCell id="MLrRrqi5HHUcRcrmSUTy-14" value="month" style="shape=partialRectangle;connectable=0;fillColor=none;top=0;left=0;bottom=0;right=0;align=left;spacingLeft=6;fontStyle=5;overflow=hidden;" parent="MLrRrqi5HHUcRcrmSUTy-12" vertex="1">
                    <mxGeometry x="30" width="150" height="30" as="geometry"/>
                </mxCell>
                <mxCell id="MLrRrqi5HHUcRcrmSUTy-15" style="shape=partialRectangle;collapsible=0;dropTarget=0;pointerEvents=0;fillColor=none;top=0;left=0;bottom=1;right=0;points=[[0,0.5],[1,0.5]];portConstraint=eastwest;" parent="EZzCHewfSCqTeQJnVhy--22" vertex="1">
                    <mxGeometry y="150" width="180" height="30" as="geometry"/>
                </mxCell>
                <mxCell id="MLrRrqi5HHUcRcrmSUTy-16" value="PK" style="shape=partialRectangle;connectable=0;fillColor=none;top=0;left=0;bottom=0;right=0;fontStyle=1;overflow=hidden;" parent="MLrRrqi5HHUcRcrmSUTy-15" vertex="1">
                    <mxGeometry width="30" height="30" as="geometry"/>
                </mxCell>
                <mxCell id="MLrRrqi5HHUcRcrmSUTy-17" value="date" style="shape=partialRectangle;connectable=0;fillColor=none;top=0;left=0;bottom=0;right=0;align=left;spacingLeft=6;fontStyle=5;overflow=hidden;" parent="MLrRrqi5HHUcRcrmSUTy-15" vertex="1">
                    <mxGeometry x="30" width="150" height="30" as="geometry"/>
                </mxCell>
                <mxCell id="EZzCHewfSCqTeQJnVhy--26" value="" style="shape=partialRectangle;collapsible=0;dropTarget=0;pointerEvents=0;fillColor=none;top=0;left=0;bottom=0;right=0;points=[[0,0.5],[1,0.5]];portConstraint=eastwest;" parent="EZzCHewfSCqTeQJnVhy--22" vertex="1">
                    <mxGeometry y="180" width="180" height="30" as="geometry"/>
                </mxCell>
                <mxCell id="EZzCHewfSCqTeQJnVhy--27" value="" style="shape=partialRectangle;connectable=0;fillColor=none;top=0;left=0;bottom=0;right=0;editable=1;overflow=hidden;" parent="EZzCHewfSCqTeQJnVhy--26" vertex="1">
                    <mxGeometry width="30" height="30" as="geometry"/>
                </mxCell>
                <mxCell id="EZzCHewfSCqTeQJnVhy--28" value="reservinf" style="shape=partialRectangle;connectable=0;fillColor=none;top=0;left=0;bottom=0;right=0;align=left;spacingLeft=6;overflow=hidden;" parent="EZzCHewfSCqTeQJnVhy--26" vertex="1">
                    <mxGeometry x="30" width="150" height="30" as="geometry"/>
                </mxCell>
                <mxCell id="MLrRrqi5HHUcRcrmSUTy-6" style="shape=partialRectangle;collapsible=0;dropTarget=0;pointerEvents=0;fillColor=none;top=0;left=0;bottom=0;right=0;points=[[0,0.5],[1,0.5]];portConstraint=eastwest;" parent="EZzCHewfSCqTeQJnVhy--22" vertex="1">
                    <mxGeometry y="210" width="180" height="30" as="geometry"/>
                </mxCell>
                <mxCell id="MLrRrqi5HHUcRcrmSUTy-7" style="shape=partialRectangle;connectable=0;fillColor=none;top=0;left=0;bottom=0;right=0;editable=1;overflow=hidden;" parent="MLrRrqi5HHUcRcrmSUTy-6" vertex="1">
                    <mxGeometry width="30" height="30" as="geometry"/>
                </mxCell>
                <mxCell id="MLrRrqi5HHUcRcrmSUTy-8" style="shape=partialRectangle;connectable=0;fillColor=none;top=0;left=0;bottom=0;right=0;align=left;spacingLeft=6;overflow=hidden;" parent="MLrRrqi5HHUcRcrmSUTy-6" vertex="1">
                    <mxGeometry x="30" width="150" height="30" as="geometry"/>
                </mxCell>
                <mxCell id="Z8PzmmFWpUoGzA2Sb_2e-0" value="地域id&lt;br&gt;朝日町　1&lt;br&gt;入善　２&lt;br&gt;黒部　３&lt;br&gt;魚津　４&lt;br&gt;上市　５&lt;br&gt;滑川　６&lt;br&gt;立山　７&lt;br&gt;舟橋村　８&lt;br&gt;富山市　９&lt;br&gt;射水市　１０&lt;br&gt;高岡　１１&lt;br&gt;砺波　１２&lt;br&gt;南砺　１３&lt;br&gt;小矢部市　１４&lt;br&gt;氷見　１５" style="whiteSpace=wrap;html=1;" parent="j5kkjdyljS-DFzM0BRrH-1" vertex="1">
                    <mxGeometry x="-20" y="210" width="120" height="270" as="geometry"/>
                </mxCell>
            </root>
        </mxGraphModel>
    </diagram>
    <diagram id="v4kFDckCh1uXmhCJza4O" name="画面設計">
        <mxGraphModel dx="1987" dy="534" grid="1" gridSize="10" guides="1" tooltips="1" connect="1" arrows="1" fold="1" page="1" pageScale="1" pageWidth="827" pageHeight="1169" math="0" shadow="0">
            <root>
                <mxCell id="gdpqz9-ivrMvUYRW2mvd-0"/>
                <mxCell id="gdpqz9-ivrMvUYRW2mvd-1" parent="gdpqz9-ivrMvUYRW2mvd-0"/>
                <mxCell id="J2_Xc6a70r_ZDQhd3KVH-0" value="" style="whiteSpace=wrap;html=1;rounded=0;sketch=0;" parent="gdpqz9-ivrMvUYRW2mvd-1" vertex="1">
                    <mxGeometry x="-150" y="170" width="810" height="540" as="geometry"/>
                </mxCell>
                <mxCell id="J2_Xc6a70r_ZDQhd3KVH-2" value="Camp" style="html=1;shadow=0;dashed=0;fillColor=#F8F9FA;strokeColor=none;fontSize=16;fontColor=#181819;align=left;spacing=15;rounded=0;sketch=0;" parent="gdpqz9-ivrMvUYRW2mvd-1" vertex="1">
                    <mxGeometry x="-150" y="160" width="800" height="60" as="geometry"/>
                </mxCell>
                <mxCell id="J2_Xc6a70r_ZDQhd3KVH-3" value="Topページ" style="fillColor=none;strokeColor=none;fontSize=14;fontColor=#181819;align=center;" parent="J2_Xc6a70r_ZDQhd3KVH-2" vertex="1">
                    <mxGeometry width="70" height="40" relative="1" as="geometry">
                        <mxPoint x="100" y="10" as="offset"/>
                    </mxGeometry>
                </mxCell>
                <mxCell id="J2_Xc6a70r_ZDQhd3KVH-4" value="キャンプ場一覧" style="fillColor=none;strokeColor=none;fontSize=14;fontColor=#7C7C7D;align=center;" parent="J2_Xc6a70r_ZDQhd3KVH-2" vertex="1">
                    <mxGeometry width="120" height="40" relative="1" as="geometry">
                        <mxPoint x="190" y="10" as="offset"/>
                    </mxGeometry>
                </mxCell>
                <mxCell id="J2_Xc6a70r_ZDQhd3KVH-17" value="予約状況" style="fillColor=none;strokeColor=none;fontSize=14;fontColor=#7C7C7D;align=center;" parent="J2_Xc6a70r_ZDQhd3KVH-2" vertex="1">
                    <mxGeometry x="330" y="10" width="120" height="40" as="geometry"/>
                </mxCell>
                <mxCell id="J2_Xc6a70r_ZDQhd3KVH-19" value="Topページ" parent="gdpqz9-ivrMvUYRW2mvd-0" visible="0"/>
                <mxCell id="J2_Xc6a70r_ZDQhd3KVH-20" value="富山県地図&lt;br&gt;&lt;br&gt;キャンプ場一覧地図" style="ellipse;whiteSpace=wrap;html=1;rounded=0;sketch=0;" parent="J2_Xc6a70r_ZDQhd3KVH-19" vertex="1">
                    <mxGeometry x="30" y="300" width="440" height="300" as="geometry"/>
                </mxCell>
                <mxCell id="J2_Xc6a70r_ZDQhd3KVH-21" value="キャンプ場一覧" parent="gdpqz9-ivrMvUYRW2mvd-0"/>
                <mxCell id="J2_Xc6a70r_ZDQhd3KVH-22" value="" style="whiteSpace=wrap;html=1;rounded=0;sketch=0;" parent="J2_Xc6a70r_ZDQhd3KVH-21" vertex="1">
                    <mxGeometry x="-80" y="270" width="660" height="60" as="geometry"/>
                </mxCell>
                <mxCell id="J2_Xc6a70r_ZDQhd3KVH-23" value="キャンプ場名" style="text;html=1;align=center;verticalAlign=middle;resizable=0;points=[];autosize=1;" parent="J2_Xc6a70r_ZDQhd3KVH-21" vertex="1">
                    <mxGeometry x="-70" y="290" width="90" height="20" as="geometry"/>
                </mxCell>
                <mxCell id="J2_Xc6a70r_ZDQhd3KVH-24" value="住所" style="text;html=1;align=center;verticalAlign=middle;resizable=0;points=[];autosize=1;" parent="J2_Xc6a70r_ZDQhd3KVH-21" vertex="1">
                    <mxGeometry x="130" y="290" width="40" height="20" as="geometry"/>
                </mxCell>
                <mxCell id="J2_Xc6a70r_ZDQhd3KVH-25" value="電話番号" style="text;html=1;align=center;verticalAlign=middle;resizable=0;points=[];autosize=1;" parent="J2_Xc6a70r_ZDQhd3KVH-21" vertex="1">
                    <mxGeometry x="215" y="290" width="60" height="20" as="geometry"/>
                </mxCell>
                <mxCell id="J2_Xc6a70r_ZDQhd3KVH-26" value="Url" style="text;html=1;align=center;verticalAlign=middle;resizable=0;points=[];autosize=1;" parent="J2_Xc6a70r_ZDQhd3KVH-21" vertex="1">
                    <mxGeometry x="320" y="290" width="30" height="20" as="geometry"/>
                </mxCell>
                <mxCell id="J2_Xc6a70r_ZDQhd3KVH-30" value="地域" style="text;html=1;align=center;verticalAlign=middle;resizable=0;points=[];autosize=1;" parent="J2_Xc6a70r_ZDQhd3KVH-21" vertex="1">
                    <mxGeometry x="50" y="290" width="40" height="20" as="geometry"/>
                </mxCell>
                <mxCell id="J2_Xc6a70r_ZDQhd3KVH-38" value="" style="shape=image;verticalLabelPosition=bottom;labelBackgroundColor=#ffffff;verticalAlign=top;aspect=fixed;imageAspect=0;image=data:image/png,iVBORw0KGgoAAAANSUhEUgAAA1gAAAEHCAYAAACz2OejAAAgAElEQVR4Ae2di/MtVXXn758yVIUqmXKmnCkziYYwOJiHrwiBwIyJjkQIMSIoDskkMiAaH4ioYXxRBpBHTAIimghiTEbwCUQwekGNPBT03nAv8OMh917FR099D/U9rLPu7u5zzu88uvt8uurc3b0fa6/92av3Xqv7/M7dsW/fvooPDLABbAAbwAawAWwAG8AGsAFsABvYvg3sAOL2IcIQhtgANoANYAPYADaADWAD2AA2IBvYsX///ooPDLABbAAbwAawAWwAG8AGsAFsABvYvg0QYBFgEmBjA9gANoANYAPYADaADWAD2MCCbGDHgQMHKj4wwAawAWwAG8AGsAFsABvABrABbGD7NrDjRz/6UcUHBtgANoANYAPYADaADWAD2AA2gA1s3wYIsAgwCbCxAWwAG8AGsAFsABvABrABbGBBNrDjxz/+ccUHBtgANoANYAPYADaADWAD2AA2gA1s3wYIsGoCzC988UvVv/uFZ4w/uo4G9+ijj1Wnnn7GuFznyot1unj+tne8c6zzS3/7d6oHHnhgbp3bGHVx/Oi0/UUDhjDEBrABbAAbwAawAWyg3gZ2PPnkk9W0n127dleXXnZ59T9//+TqF59z+NhR/4VnPLP6jRe+pPqDV59aXfuJT1ZPPPHE1DKn7XvV9b74pS+Px6dAS9dRh8cee7x67eveMK6jc+XFOl08zwHWnj175ta5jVEXx49O09/vsIIVNoANYAPYADaADWADs9vAjp/85CdV22fvgw9WZ519bqVAKr7VKZ0ffezx1d69e1tltvW57vIvffkrE2PVddTp8cd/eFCApbxYp4vnbz/v/PG4tjtXbYy6OH50ar/fYQQjbAAbwAawAWwAG8AG5reB1gBr1+7d1Qkve/nYKS8FVTFvu057VyazLXhYZIClX2u585vfrN793gurs9/05mqZgRoB1vw3S1dsEz2YQ2wAG8AGsAFsABvABrprAzt++tOfVnUf/U/Of3bW2dUhhx42/jznV4+sLrv8yur++79fbW09Uu3bt6968MEHq3vv/W71yb//VHXW2W+qHnr44VqZdX11Lf/LX7l5PGaNX9dRxx/+8InqtNf/r3EdnSsv1pnmfFFypulLdRRgeT4VDGvupm2b67UxyvW5rr/XYAMbbAAbwAawAWwAG8AGhmEDjQHWHXfeWf3Sc48YO+THHv+y6vvf/8HcDnmfjKYteFhUYLQoOdOyJcAaxo077XxTj/nGBrABbAAbwAawAWxgtTaw42c/+1lV98lBxsWXXlZbt05GX/Pz2HUdx/LEE/sOeoOlvFhnmvNFyZmmL9V5xzvfNQ6Y9QbroYcemlln99XGyPVI6+8x2MAGG8AGsAFsABvABrCBYdkAAVZNgNkWPCwqMFqUnGlvTAKsYd3A08479Zh3bAAbwAawAWwAG8AGVmMDjQHWbbd/rXrms549fuOhH7v4twcemPmNRylY0avKb33r29WfvvHs6r8891dHfTzv+b9Z/eXFl1Y/fOKJcR+q9/Vv7Kxec9rrqmc9+5dG9Y448vnVBe/5i2rPnr3jeiWDefTRR6trP/F31Sl/9NpKbfy3R+rv1NNeX918y62jX/0rtS3pHOttNzD626s+NtbHepVSBUSxX51vZ1ylAKs0F2Yk9irPOui6jVFs4z7e/Na3V0f9+gvHY9e58u65597afqIczlezMMAZztgANoANYAPYADaADcxnAzt+/vOfV3WfrUceqV5x4kljZ1gBwMte/srRD1rUtSnlf+XmWyZk6PpjH7+2esYznzWR7wBDfT6wZ88o+Hnvhe+rDj3sPxTr/bdfe0H1r//6nYP013989sGLPlwr3/0ofdOb/3z0/3ZlvUs6xzr79u2vTj/jzLFeOlderNN0PkuAZTmLGFcMsI457oQR58uv+KtaxmKvOdAv1VgPp22MXO/xxx+vzn3LW2v70Dyon4s+fHGxH8shrb9XYQMbbAAbwAawAWwAG8AGumEDjQGWJkn/mazfHDkwkTN85p/82SjQUmTbNpnZEdcbC8v85V/5r8VA6PwL3lP91V//zdgp/8+/+JxxG+uhtBTY5OBHb2P090b6/OaLXjqWaTkKdvIYss66jnVyHyU9Yv18/qnrPj3S57eO+Z2JcYmL8qyvAkW3zX3OM64cYH3ggxeNeahvBa3m4lTzfdXV14zeYlkXpW2MVEf/6fQbzvzfEzJf8OKjqzf/+duqP3zNaeO3l+qrrp/YJ+fdWDiYB+YBG8AGsAFsABvABrCBsg20BlgKoD77j/804Qjb8VZ6yqtPrb53333jIKAEOjviavcHr35NtWvX7lE7fX3s05/5h4lAQ872v/+P/6n69Re+pNJXFf2K8qu33T4RBDz7l3+l2nnHnRP9OxCRbnd+81ujr55FvW7/2r9MyHj5K19VPfroYxMyss6LDrCsj3U106ZAzXW3M64YYJnx75/8hxPBsn6e/4orPzoR+Goevve9yXluY6Q5UwDnsSl40/zFoPyJffuqt779vIk6uR+zIi3fxHCBCzaADWAD2AA2gA1gA92xgdYAy5OlIEqOvZ3lmOqrfu/7wIcqOeauH9PsiL/4pb89Dq5cT19Be9e73zshX29UcmCj+vr/tmL/111/w0S/+iqdgi4FbpafU/0iomUcfuRR1XfuunuibtY56+FgxzKaAqPcd7yeRc4ixhUDLOmuOX3sscngUvopCLr0sivGjFQ3c25jpEDJb8T0t3w33vT5CcbmoL/r01s7syy9UXRd0u4sHswFc4ENYAPYADaADWAD2MDBNrCjmuGQ0/35L3yx0t/u2BmO6Wmve0Olv9vKh35MItZTMKbJyMeXvvyViXp//KdvrBRU5OM737mreu4RzxvX1dfXZj1iX5IlmfHIOus6Hvv3Hzjob7CUN+uxKDnut21c551/wZib3mDdeNMX3PSgVIHPi37rmHH9t73jnRPz1sZI8+J51xtLfV2wdDz55JOjHztxXf3wifI4IAABCEAAAhCAAAQg0DcCMwVYHpwCLb290A9e2Cl2qr+32bdvn6uO0uyI/7/P3ThR7ou77r6n0tsky/rrv73KRRNpdvzf/8GLJsrjhQIYBU83/MNnqwvf94HR3/2U/g4rB1BZ51y+qMBoXjnzjisGWAqexLLuaNOtiZHeHuoHRDyXs6R6G6i+OSAAAQhAAAIQgAAEINA3AnMFWB6kAi0FLv7BCjnReiuir5LFo8kRj/VygFX3Zmpra2viLZqChnzcd//91atPPX38Aw5tDn4OoNp0bgs+sj5117PK2e64YoClN5FiWXe06dbEKLdt4x/LCbDqZoR8CEAAAhCAAAQgAIGuE9hWgOXB6Y2UAis7yfkrXk2OuGUoXVSApR/FiG/CpJd+ce+4E363estb31795SWXjn4S3Poq7UOAtYhxrSvA0o9kvPNd76ne8xf/t/Vz9TUf5yuC8cbgHAIQgAAEIAABCECgNwQWEmA99NDDEz9SoEDmkUcfHUNYZYClryfq578dPOkX8r773e9N/O2QFGvTqa08v6GZ963LtHIWNa5ZAqzHHnu80i8smqW+8qev/vloYpT/ruq1p59R7du/301JIQABCEAAAhCAAAQgMEgCSwmw5JTLOffR5Ii7jtJFvMGKP4ChX6772r98PXYxPr/+058ZBw59eIO1qHHFAEs/cX/Hnd8cM8knX//Gzkp1HGBd8pHLJ6q0zav+Ns5t9WuC9913/0R7LiAAAQhAAAIQgAAEIDA0Ao0B1qdv+Ez1uZs+P/rJ7rqB69cAr/7YxzvzFcHo9Jd+HVDj0Nsg/eKhnf8uBVh1v7a3qHHFAEvj1tf24lspz7MYxf8gWP8h9Le+/W0Xj9KoU4nhbbfdXinINee6viaEcgEBCEAAAhCAAAQgAIEeE2gMsPwz2/rVvYsv+cjo1/j0Zko/bqFUDrf+XyX9P1h2oks//d3miJvfIt5g6Y1MfOvy9vPOrw4cePoX6fTVxXPOPfjX7aRjPNp0nvarfVFm6Tz/2p5+MOSmz3/hoK80LmpcOcDSfCnv8ceffuP4wJ491Vlnv2k8p5rbN/6fcw76yfw2RvlrjZIjuZKfD9XVD6Z8+OJLchHXEIAABCAAAQhAAAIQ6A2BqQIsB0/TpPoRg/xGpM0RN61FBFgKoF5x4kkTwYF+4OLoY4+v9B8cKxhUEPOWt71jos66AiyN3YFs5CudFdjqrY+ORY0rBlj6IZDj/8fvjTkc8bxfq/SJeuhcX++7+557PE3jdJp51Vcb/Z8NR7nP/40XjeZE8xL7lH4cEIAABCAAAQhAAAIQ6CuBxgDrk3/39xNf/YsOcj5X0KK3XKX/GHgaR1wAFxFgSc6t//zVg35F0PoqwLrm2k905kcupO+evXur//67rzgosJHOMeBYxLhigKWfaddbyByQmpVS/fpf/mqgjX3aeVWQpUAqyq07f++F77N4UghAAAIQgAAEIAABCPSOQGOApdHs3ftgpR+EOOucc8dvgOwc6y2EfrFPX+2KXzHLFKZ1xBcVYKn/7//gB6O3P347ogDw1NNfX+28487R1+/adGorX9RXBM1q65FHqne/98KJtzkvePHR1cev/aSrjNLtjisHWPp/sPTrfgqO1Z/mVkGo3mzpb+uafvmvjVFUXIH35268aWQvejtnG9K5/sPqD3zookr/x5f+po8DAhCAAAQgAAEIQAACfSXQGmD1dWDoDQEIQAACEIAABCAAAQhAYNUECLBWTZz+IAABCEAAAhCAAAQgAIHBEiDAGuzUMjAIQAACEIAABCAAAQhAYNUECLBWTZz+IAABCEAAAhCAAAQgAIHBEiDAGuzUMjAIQAACEIAABCAAAQhAYNUECLBWTZz+IAABCEAAAhCAAAQgAIHBEiDAGuzUMjAIQAACEIAABCAAAQhAYNUECLBWTZz+IAABCEAAAhCAAAQgAIHBEiDAGuzUMjAIQAACEIAABCAAAQhAYNUECLBWTZz+IAABCEAAAhCAAAQgAIHBEiDAGuzUMjAIQAACEIAABCAAAQhAYNUECLBWTZz+IAABCEAAAhCAAAQgAIHBEiDAGuzUMjAIQAACEIAABCAAAQhAYNUECLBWTZz+IAABCEAAAhCAAAQgAIHBEiDAGuzUMjAIQAACEIAABCAAAQhAYNUECLBWTZz+IAABCEAAAhCAAAQgAIHBEiDAGuzUMjAIQAACEIAABCAAAQhAYNUECLBWTZz+IAABCEAAAhCAAAQgAIHBEiDAWvPU3nzLrdXpZ5xZ7d9/oKjJXXffU5140inV1tZWsZxMCPSNwFVXX1Pp02b7Gpfs/pjjThjV7ds40RcCEIAABCAAgc0kQIC1hHmfxnF0t3Yg5XDqOO/8C6pDDj2s9RODMvU3TRvXkcM6bcA2y1g8pu2mBJXbJbje9rItPRTQPJYOz++uXbtHDxdkYzryvRDzXEd5ehgh+9e9UndYltu5je+zunaLyNf4jj72+Nrxt/WhcS1Sz0Xcw21z2jYmyiEAAQhAAAKbRIAAawmzPauDJAcoBz0lGaU8qV9qb4fSDqaHWarrslKq+jGYK9VxXw7g6tI8xpIs5dkBl1O37CPzyNfL7n878mUP+jQd2dnX9eFHHrXUN0JNzrjt6axzzh2/xYpjyPrmQEljVfDRZkslNupbY1cfdcci5l/y6946S/c43qyH7yXp4UP1fU+16e82MTVzyZ73aJrTeWXSDgIQgAAEIDBUAgRY25xZO4B2gNrS6Di565JTlZ2iJgdHdbPDWZKp/nJdXbfpXCpvC7o8NqVyKmdxDJvGGuUu4rzEI7OM/dTxWuQbh9hf03kpiMj1c8Ci63UGWLbLpiBDLG1fvr/EXYfSNluK7TOPNltUuXWzriX7d571iv00BViW6fHFdjp3ueR67NZH5Xk+Y3vVs17TppbtvqZt53ptcxH14xwCEIAABCCwKQTWEmD9/MCT1SN/fE3141u+W+T8s6191UO/d0n1wBHvqva+5P3VT+7aW6zXxczooM2jnx1gOzB1aXTsdJ6DguioRT1KdWN5Plf9Omcw1y1dy4GbtX0pwBJXs4hjL/U5S17mka8ty/Niznme7dwuUjf3XZeqTzvIdXWaHPK6NvPka9yen7rUus6ikx3/ablqXjxHdeOQHnWBgcokY9bDetaNPcr0vVm6L2z739i5c3TflMadba9NV8ko9dXWLpZbL80dBwQgAAEIQAACzQS2FWAp8Hn4jz5aKSCa5WgLsCxLciW/LwHWNI6jnJ06507jloz49SI5NnKOlOpQKgcyOl46r3PsSvlNDqidP7d75atOnss5s5zoWHpe21I7c/o7FuuxXQexrk+xizzytdqZr1IfJUdcc6e5jfVcfxmpdNCn6ZjGJpvaz1NWYpjtNutue/F8T5tG+5LMOJd1use+YvusY137tvxpAiD3ledP+bL193/wotq5zWtEmz6aj3nuH43D86B7cTt/V9amI+UQgAAEIACBIREgwFrQbNppU0Bip0SpHT45UrqOwZWdLNeXI2Tn6brrb5iQ4zrKl8zoxJccWusT62mopboRQXZ8dT2rc7Ydp956a7zZ+Yx6xvPYxpziuKOjqPJYlnnka40lB03uLzrn1ie3N0/lW7doA26Xdcyys61YbmYU5agf2Ut0jPPcWF+lqm8ddR0Pc3D5pZddMbKLrKfaKK9kM9LV9bMesa947nFnfWIdnZtH1tP65lT6fe7Gmw66H5t+nCP3WXcdx5nrWE/lS9f4MEV5Gq/ypJ/OS4frqP00h9iV5qOprdp47VI9XZfstkkGZRCAAAQgAIFNJTBXgBW/wqev8fmTv86372O3Fcv8Bmv/9XeMvwqorwTmN2FNb7Ci7FLbpgnN+uvritJJn0fP/VT1xOU3j/R+7ILPVvpofHVfZ3Q/cpzkxCn1YUc857vcaXQis9Olsuhsxbpun50h5btvlcWjVNfluW/lz+pYRQc/O7VZF/frVOVqYyfc+U2peUTukuO+srOvMcpRdLnS7EjG6+gQWw/3aRnOV6qy6KSX7EI6RWdVbT5y+ZVjMVlH9xe56DzblfKi7m4X+5LsGHBpDJITHfAsJ+sjRT2uqJMHoLK2fNtnqZ7lKPUYSqxjvdJ5HqvrSFYcr/NVPwc8Lps2lb5x/nO7kj3FOh6v6tUdrpOZeJ7yfVd3HW0l9uW5ifLdZ9t8RTmcQwACEIAABDaVwFwBlmE1fUVQZQqgfCggioGMzmNA5mDG9ZXWBVgKdmJQFWXH9nXn6ktt8uHAT7o9uXPXSD/V00dt6g45Q9lZkSNix6bJWZJMOy9yaKKTp3aWoVTXsa71KTmMJSdJ9VU362o5sW/neRzR2XJZTN2f9CzVtd4lx1Zy1CYGAlF207n0q5OpPkvOrjh6TjKPeF3XXpxikBL1MwczUD9ZP9epc1Zzed0Y4zjM1/1ap6xrvlb9zD3Liv1YbtbR+bmt85VKThxz3bhimyZ5sV7pvGTPqqcx5zlRfl39kuy6vDrZrl9i6TKlHm/kFMtjnTzXuZ6v23RyPaee2yhfbGQn0p8DAhCAAAQgAIFmAksLsHK3MRhzIBPfCuWgSe3rAiwFO7FtXb2sg6/V3sGe85RGvaK+TQGWnJDodNg5cRAzqxMZnTzJtZPjfuyAOV96q48YiLWdW7c4dp1bdzt30kWBhD6xv9zOzpfb5XJfZ/nOL43JZW2pGNX1a71KPDxnGlfkEa/jXEQ91F/JQVedPBb1476ijJzvdlFXj0t1fV4no05X5cdgMF/H8Vq2dVGZ50zn8XB+1qskT+1cP8uxTMmJY5/2PM6dZTlVX6V5qssvMZReJRnuI6YeY2YS6+R5j2U6j+xzma9Vp/TgwOU5rRtvrhev47g9Ln39uWTLsR3nEIAABCAAAQhU1dICLAcr/vqgUr91clkMkmJA44kpBU5uG+XqPL4Nkyxdu477tdwsw3o4X9dRn6YAyzKdygGJDll0VFwnp9Gpik6eZEVHU9exruWoj+z42CnKDq2um5xSy1e/emLd9Gtm6l/1NV6l0xwlXeOYp5ER62jcklk6ppGbecTrUntzbeozBjTSL8+NdI35kiXenqvcR90Yo4ySrupH+VGffB3Ha4a2AZVZF+vmOs6PHEp5ri+ZswQFsZ3sNffv8rq0SRfJiveoZWSGs+osufHesg7xHtZ5yR6sg9s0jTf347ZKPXe5z9J4Y7vSufS0HM2zPk26l2SQBwEIQAACENhEAksLsPJbohiwxEDG0BXU5LdKTQGWgyK3nzd1MCZ5Ua+o77QBVnZepZOckjbnxk6RHKfs5OVxxboqs0MWHd2Ynx21Jucs96XrNn1iG+tipyx/9Ux1S07arI5s7LOJb2YV2/k884jXJb1iuWXENAY9ys/Xyot6mVmcv5wnGdmGXMcOr+ZJvKVfPHQd5yHbaGk8Jf3cj2W7TtS7JMv1Z7Ejt1HqfvK4Yp3SeZMudTaTdczXpX6c5/kwD19nbrrW/REDMcuYJq2Tq7bSt2QDzl9Ev03zEPvJ455mbNSBAAQgAAEIDIVAa4ClwENvgkp/g6QASG+HSsGO6ruNAxe/SfK12/lagUw8SgGWylXPsmL9ec7jGKyH9Jo3wNJTejmFsxx2uuSc1Tl1djSzk6T68Q2F+7Ujlh2iJsfTbZ26TzuNzq9LNY7oWNnhsg6W5+soR31obKWyWC+fW2bsVzIsR/nZmdUv60k3HaoXy/N1HFMeT9al1JfyNK7IMNeLfUimWbiN+/V1rKO2PrJcs9lOgCXZYpLnRn3FcdnerKP6jm+s8hitc1vqMXg+2+qr3Lzq2tTpknV23x5TU9/qKwbB0qF0X7rvEtMm+Soz42ivsU3WwWXS5axzzh2195iiTbheUyq94/hyXetm5qrv81yXawhAAAIQgMDQCWwrwBIcB2BtX9PTL/P5/8xyIOOv8CmNwVWU6TrxK4DqV/VdpjS//aqbOAdUsa37tl7zBlh2XuRcTHuorhymXbt2jxyYWdqqD9UvtckOj/WR01PnoLmOUtWTA12SHevF85Iuck6VrzQ65LGdz+0Yq17TJ+tv7m6Ty9W/y5TGMWUe+doc3V7l+bD83K/qqcwfy8j1sv6ln0DPbMw1jsX9xX6kb3T0s+OfxysZ1ieOVeeWq1Q/cS6H28GH0uyAR53zmDPDuuuSLnV1lW87i7rH+tapVO65jmXOi2OP57Fu7Md6m4/Kcp6uxUxp0+F26jczju3qxlY3N9Euopx47r7b5s+czEN26fMoj3MIQAACEIDAJhBoDbA2AcKixyjnIjph+dzOihyi/MZLTkmuX7rWE+iv3va1Wget5PBYTnbK4/jtUM36hNsy6sbe5Bi6bZ9S8xXTprGJRxPvPo056urxxwAili/q3PbY5qy7Xol1vqeadFZZScY84zEj33dKZ5Gtum47bTtzcDulTfbZNC7338QrtneAN+s4owzOIQABCEAAAkMgQIA1hFlkDJ0lICd1Wue4s4MoKCZnepo3IIWmZEEAAhCAAAQgAIFBEyDAGvT0Mrh1ExhCgKU3QPEtht+SDDFwXLe90D8EIAABCEAAAv0nQIDV/zlkBB0mMIQAK371y189I7jqsNGhGgQgAAEIQAACayVAgLVW/HQOAQhAAAIQgAAEIAABCAyJAAHWkGaTsUAAAhCAAAQgAAEIQAACayVAgLVW/HQOAQhAAAIQgAAEIAABCAyJAAHWkGaTsUAAAhCAAAQgAAEIQAACayVAgLVW/HQOAQhAAAIQgAAEIAABCAyJAAHWkGaTsUAAAhCAAAQgAAEIQAACayVAgLVW/HQOAQhAAAIQgAAEIAABCAyJAAHWkGaTsUAAAhCAAAQgAAEIQAACayVAgLVW/HQOAQhAAAIQgAAEIAABCAyJAAHWkGaTsUAAAhCAAAQgAAEIQAACayVAgLVW/HQOAQhAAAIQgAAEIAABCAyJAAHWkGaTsUAAAhCAAAQgAAEIQAACayVAgLVW/HQOAQhAAAIQgAAEIAABCAyJAAHWkGaTsUAAAhCAAAQgAAEIQAACayVAgLVW/HQOAQhAAAIQgAAEIAABCAyJAAHWkGaTsUAAAhCAAAQgAAEIQAACayVAgLVW/HQOAQhAAAIQgAAEIAABCAyJAAHWkGaTsUAAAhCAAAQgAAEIQAACayVQG2D96MdPVnxggA1gA9gANoANYAPYADaADWADm2gD80ZpBFgEkgTS2AA2gA1gA9gANoANYAPYADaQbIAAKwHZxCibMfN0CRvABrABbAAbwAawAWwAG1iMDSw1wJpXOO0gAAEIQAACEIAABCAAAQj0hUAMTufVeaqvCM4rnHYQgAAEIAABCEAAAhCAAAT6QoAAqy8zhZ4QgAAEIAABCEAAAhCAQOcJEGB1fopQEAIQgAAEIAABCEAAAhDoCwECrL7MFHpCAAIQgAAEIAABCEAAAp0nQIDV+SlCQQhAAAIQgAAEIAABCECgLwQIsPoyU+gJAQhAAAIQgAAEIAABCHSeAAFW56cIBSEAAQhAAAIQgAAEIACBvhAgwOrLTKEnBCAAAQhAAAIQgAAEINB5AgRYnZ8iFIQABCAAAQhAAAIQgAAE+kKAAKsvM4WeEIAABCAAAQhAAAIQgEDnCRBgdX6KUBACEIAABCAAAQhAAAIQ6AsBAqy+zBR6QgACEIAABCAAAQhAAAKdJ0CA1fkpQkEIQAACEIAABCAAAQhAoC8ECLD6MlPoCQEIQAACEIAABCAAAQh0ngABVuenCAUhAAEIQAACEIAABCAAgb4QIMDqy0yhJwQgAAEIQAACEIAABCDQeQIEWJ2fIhSEAAQgAAEIQAACEIAABPpCgACrLzOFnhCAAAQgAAEIQAACEIBA5wkQYHV+ilAQAhCAAAQgAAEIQAACEOgLAQKsvswUekIAAhCAAAQgAAEIQAACnSdAgNX5KUJBCEAAAhCAAAQgAAEIQKAvBAiw+sO2VyIAAB7RSURBVDJT6AkBCEAAAhCAAAQgAAEIdJ4AAVbnpwgFIQABCEAAAhCAAAQgAIG+EBhMgHXv/bsrPjDABrABbAAbwAawAWwAG8AGsIE6G1hFkDaYAGsVsOgDAhCAAAQgAAEIQAACEIBAEwECrCY6lEEAAhCAAAQgAAEIQAACEJiBAAHWDLCoCgEIQAACEIAABCAAAQhAoIkAAVYTHcogAAEIQAACEIAABCAAAQjMQIAAawZYVIUABCAAAQhAAAIQgAAEINBEgACriQ5lEIAABCAAAQhAAAIQgAAEZiBAgDUDLKpCAAIQgAAEIAABCEAAAhBoIkCA1USHMghAAAIQgAAEIAABCEAAAjMQIMCaARZVIQABCEAAAhCAAAQgAAEINBEgwGqiQxkEIAABCEAAAhCAAAQgAIEZCBBgzQBrE6tedfU11SGHHladfsaZ1f79BzYRAWOGAAQgAAEIrIzAXXffUx1+5FGjvffmW24d9Xve+RewF69sBugIAtsnsBEBlgIDBQhaoHQoaNDipUVskw9zUQCVP2IVy4857oRqa2trk3Ex9o4TiPbqe73jKqMeBCDQAQJta8eqgxsCrA4YBSpAYJsENiLA8mKlwEqHFkveyFQTAVQpwBKrRb7B8ibledim7dIcAhME2pykicpzXngt4YHDnABpBoEOEmhbO7x3rcpv8DqjfZk3WB00GFSCwBQENiLA0gLlN1ZeSLVgbvphFlrEl81Db7/klKovAqxNt7zljH8V9uwHDgRYy5lDpEJgHQTa1g4CrHXMCn1CoN8EBh1gxadA+Q2NrjfdSWrbVGTaeWOJTK+7/oYRQwevMYgyb7VXgOvrmPrJXL9vIbTvCoFZ7DnaYQz4owzX0VPrhx9+ZPTW23lOV/VEuyuM0QMCQyQQ7/vSw8a8D4qB87wWKI1rSdwrtdfF+rmPuEdqP9XeqlQyvU+6fV5znG89og5DnCvGBIG+EBh0gOVJ0ALkRUmLlQMCl29q2rapiIsXb/OLm4YXdPH86m1fG7+hcr5StY+bRyzzxrGp/Bn3Ygm02XMsj3aoczkldeWyfQKsxc4V0iDQJQJ1935eJ7wPNtV3gBP3yle+6uSDHjJ6/6vbH9236+W9eBodusQYXSCwaQQGH2D5rYoXPS1Sm/7mykbetEDXLepx0/BmI3kx323dj1LPg53ZWMY5BBZBINqz7vNpjui07N79b+OHBF4vsgzly4ZZQzIZriHQXwJx7XBgU0rjnpdHG9cSyYt7otvFPNWP/cY1xeuMdPB+muUrX+XxgbHz3F/WkWsIQGB1BAYdYHlBKi2UceFaHe5u9RQX98yoblGPG0R0QkuyxN8HAZZJkC6LQLTBaHuxv+i4RJu3Q5LXDOdbhttHZ8hlpBCAQD8JtK0dXhfieuC1IK4jOneduFd6P8391O2LpbZZh7r+pQPrUz/tEK2HRWDQAZamSouQn/B4MVMex+SvCNY5pHlRLy38kaXre9PxQm/2yod/JMb5oghk5yXL9dNd2aDt3fZqp0htsuPi9SOW2a5zH1xDAAL9I9C2duR1Ypq1pLRX5n5inbgvxnwHZ1kHX3uvjWlcs/o3G2gMgWEQGHyApUXIzpMXRS9Yw5jC+UeRF/uSJC/iZlha+EvtzNoLPQFWiRJ5iyTQZs8OnGTTOmJ923fUp2TrlkGAFUlxDoF+E4hrgdeHOKK8D3odcN3Y3mtJaf2I9dQ27otup37dn4Im+yvOcz3r4D026ss5BCCwfgKDDrC8mHkR1IKEY/S00ZlPfKL/dOlTZ3lRL20aqhnz45M0bwaxL5d748h9cg2BeQiUbMy2Jju88qN/c9Afmsfy+DdYzlca1ww/OHC57XsefWkDAQh0g0BcO+wvRM3yPujgxutATL0mxD3Re12pnyZZkuu2WYcYnMX+Y5s4Bs4hAIHVEhh0gLValP3rrbTY51HkRb20aahNzPdi743GMnMdbxwuJ4XAdghEe7YNOrUt2p6VL8fG1yovBVgxuLJubiMZlusyUghAoH8E4tqh+zsfvufj/e680loieXG/815X108MsrTmqL7eTEm227q/qEOUp7r+uE0eB9cQgMDqCBBgrY41PUEAAhCAAAQgAAEIQAACAydAgDXwCWZ4EIAABCAAAQhAAAIQgMDqCBBgrY41PUEAAhCAAAQgAAEIQAACAydAgDXwCWZ4EIAABCAAAQhAAAIQgMDqCBBgrY41PUEAAhCAAAQgAAEIQAACAydAgDXwCWZ4EIAABCAAAQhAAAIQgMDqCBBgrY41PUEAAhCAAAQgAAEIQAACAydAgDXwCWZ4EIAABCAAAQhAAAIQgMDqCBBgrY41PUEAAhCAAAQgAAEIQAACAydAgDXwCWZ4EIAABCAAAQhAAAIQgMDqCAwmwLr3/t0VHxhgA9gANoANYAPYADaADWAD2ECdDawizCLAIjAjMMUGsAFsABvABrABbAAbwAY2wgYIsFZBgD4gAAEIQAACEIAABCAAAQgsiMBg3mAtiAdiIAABCEAAAhCAAAQgAAEIzE2AAGtudDSEAAQgAAEIQAACEIAABCAwSYAAa5IHVxCAAAQgAAEIQAACEIAABOYmQIA1NzoaQgACEIAABCAAAQhAAAIQmCRAgDXJgysIQAACEIAABCAAAQhAAAJzEyDAmhsdDSEAAQhAAAIQgAAEIAABCEwSIMCa5MEVBCAAAQhAAAIQgAAEIACBuQkQYM2NjoYQgAAEIAABCEAAAhCAAAQmCRBgTfLgCgIQgAAEIAABCEAAAhCAwNwECLDmRkfDeQicd/4FlT4cEIAABCAAAQhMErjr7nuqo489vlLKAQEI9JfARgVYcuwPOfSw6uZbbu3vjC1Y82mYaKE//MijFhIYEWAteAIRVyRw1dXXjO513e/+cN8XUZEJAQgkAltbW9Uxx50wXju8hmhdWfZBgLVswsiHwGoIbESAJcfKC6RSHK2njUsBzytfdXJj8GRnVXW3exBgbZcg7ZsI2DE6/Ywzq/37D4yr1j0k0FogR0rtfFgG64SJkEJgcwhoj9IDxdIbpKayRREiwFoUSeRAYL0EBh9gOTggwCobmjYMfR2h7isJcjZPPOmU6qxzzm0MwsrSD84lwDqYCTmLIyD7ysGVpZcCJwIs0yGFAASa1g/TKa0ZLltESoC1CIrIgMD6CWxEgKUn1FoU9VSKN1iTRueAR2np6w/iJof10suuOCjAUpu6wNWb0HXX3zCqY6fX/VkLB8Clvl2HFALTEJjGMZGdRVuM9qt14rP/+E8TNp3XC9ur28meOSAAgf4T0Pqhh4l+m61r+wxaG/SQUXk68n7pfU2p1watFXqLrvUm5mVScU1Rf9oz8wNPPxyynLo3bFk21xCAwPoIDD7AMtq4WMr553iKgDeGvLmo1JuDeGkTUF0fqq+NwIfqxEVf19oMYhvVdX86z20sixQC8xCQPeWv+2U5uU6+Vn07MyqLh2w3yvf94YAt1uUcAhDoFwHd39rndGh/i0FOvtbaEO97tdV+5zVDqYOhmBf3SPWj/uKa4rUn1lPfurZuamf5lj1Smn8gAIFOESDA6tR0rF4ZBzx2FuOCrYVdT+1UlgOsrKk3BrdXGjcJ13d/Ko8bkstJITAvAdlUdHpKcmTT8Sm12kQHR22yLSsvO1iWXZfvclIIQKD7BPL+p/0uBjRaE7S2KNWR1xrvax6p5Snfh/Mst7TOqG5eU7Jsy6vLdzkpBCCwXgIEWOvlv/be4yJd2jS8GSiNm4UU10agIMpP6mLAVHJc1UYy9GRQ7VSHAwKLIlBnc1F+rpOvVbfk+KheKXiz06RyDghAoJ8E8n2sfSre09rr4oOZvB/GfVQELM/7ZykvyzS5GGBZTtTF9erWJJeTQgAC6yVAgLVe/mvvPW4MWsz9PfP8xK60ocQ3VNkp1eKf3wxosDHAipvP2kGgQO8JRMekbjCyuRgolew027Jk1TkzTQ5QnQ7kQwAC3SOgvcl7UtzvfI97P9P6oGBL642PuI8qz20sr5RHgGV6pBAYJgECrGHO69SjyhuDHElvNHFziBtOyQHNeSXHVUq5P20uCtBiH1MrTUUI1BCwfZWKs42qTslOS/Xqgre6/FL/5EEAAt0lEB+iOEDStzL8IFFri7+tobrxyOuO28f9Led5D8yydO0+1UeW7X7r8l1OCgEIrJcAAdZ6+a+997xIy7nU07n4fXMpGQOsvFGoXHKm/Yqg6urwBhM3oVEB/0BgTgIOjuJbKomyrdn2LL4UIJXsW/XV1k+xde16WaZlk0IAAv0h4Pt5nv1Ia0BcB0qySnl5TfH6FQMsr11RrxyE9YcymkJgcwgQYG3OXBdHmjcGVYrBlBvlPC/6fqKnXxSU8+mncUqjM2o5uT/Vk4zsELs+KQTmISA7s20qjQ5Llue60V5tl2prm1Y717Xs6PRkuVxDAAL9IuAAJ64FHoHKdP8rUMqH8vXxUQqmSnmqH9cU76HxFwxVJ++3Jf3cNykEINANAhsTYHUDN1pAAAIQgAAEINBlAvEBix+m5IctXdYf3SAAgfUTIMBa/xygAQQgAAEIQAACEIAABCAwEAIEWAOZSIYBAQhAAAIQgAAEIAABCKyfAAHW+ucADSAAAQhAAAIQgAAEIACBgRAgwBrIRDIMCEAAAhCAAAQgAAEIQGD9BAiw1j8HaAABCEAAAhCAAAQgAAEIDIQAAdZAJpJhQAACEIAABCAAAQhAAALrJ0CAtf45QAMIQAACEIAABCAAAQhAYCAECLAGMpEMAwIQgAAEIAABCEAAAhBYPwECrPXPARpAAAIQgAAEIAABCEAAAgMhMJgA6977d1d8YIANYAPYADaADWAD2AA2gA1gA3U2sIoYbjAB1ipg0QcEIAABCEAAAhCAAAQgAIEmAgRYTXQogwAEIAABCEAAAhCAAAQgMAMBAqwZYFEVAhCAAAQgAAEIQAACEIBAEwECrCY6lEEAAhCAAAQgAAEIQAACEJiBAAHWDLCoCgEIQAACEIAABCAAAQhAoIkAAVYTHcogAAEIQAACEIAABCAAAQjMQIAAawZYVIUABCAAAQhAAAIQgAAEINBEgACriQ5lEIAABCAAAQhAAAIQgAAEZiBAgDUDLKpCAAIQgAAEIAABCEAAAhBoIkCA1USHMghAAAIQgAAEIAABCEAAAjMQIMCaARZVF0fgrrvvqY4+9vhKKQcEVkXg5lturY457oRqa2trVV3SDwQgsAEEtJcdfuRR1SGHHlZpneGAAAQ2m8DgA6y46Gnh0+eqq6/Z7FlPo19HsLOOPtOwuRwQgf37D1Snn3Hm6P72fR5TB1UEWAOadIYCgSUR0AMYrRlxDWnyHVyfwGpJE4JYCPSQwKADLC96eZFsWih7OIfbVnkdwc46+tw2KAT0hsB5519Q6ZOPLgRYXpdwxvLscA2B9RPQuqE3Udqj8lFXNs9+xjqQ6XINgWERGHyApQVRT7d1xKfcetrt/GFN6eyjmWdzmL2XyRbr6HNSA66GTED3vT75IMDKRLiGAARMQGtGm29QWkPm2c8IsEydFALDJDDoAKs0Zfp6oN5g+StDpTqbllfaHMzJb/9KX6vMdaJDq03IbZXmTct9fmPnzomvdkUZmzYPjHdxBGRHJVuyc6TUfy8h+9R1POz82IbzE20/rLn0sivG9isZbfJVbplOY99N95T087hiPdayOHOcQ2A+AtqTTjzplPHfZ+raa4TusbPOOXf8Vkv3offEeC/qnvb9mNcQ50u7tnVgvhHQCgIQ6BKBjQqw4oJXcr66NDGr1MXBjlId4vSRy68cq+CNJjqC4hc3jNhGG052SHN9y4z1PD/MzRg9J3MSkA2V7MiOTQz4Za/Rlm2bdqCkgtv5HnCAFe031muSbzu3LA8x3yPuI8pSHTlx1s11SmO1XFIIQKCdgO4h31daA+KPMOVr3bvxvszl6u26628YB2S6lvzYpm4daNeUGhCAQB8IbEyA5cUsPmHqwwStQsfS5hD7tRNXt/nEuuacncecrz7lnOZ6uo7ObpTNOQSmJSBnphR0yL5yUJRts65tzPc9kfuYRn7uT2OquwdzvvqLTpracs9MaxXUg0CZgO9n3Us6tNd5v9O17lndd0p1qF68D/N9OqqU/sn3aWkdSE24hAAEekxgIwIsLWz+Og7O+8HWWtocvPibW3xqnjeXKFGy4tcsYpmcQ29apT5Vty4/yuEcAm0EYjAU62YnR2W2dZVlRyu3tVPlerZn12uTn/uL7SzbeUrdj+TqKI2r1GeUwTkEINBMoHSf+Z5Ty7yv6b7Xveijbt9SvbiHRv8jrjuWQwoBCAyHwOADrLjAZWdoONO4vZHkzcHMvMF48zE/5ZecQWmRN6KoGQFWpMH5MgmUAhH1VwpGoqNjW7ftRx2j3bue7wnXa5OverG/2K50T7kf61MaV6lPyyWFAASmIxD3J93Xutbhe9DBke5fPUTUXucj76G+x+M9ne9T1/G9bVmkEIDAMAgMOsDSoqevA+kJEotYvcHGhd+bSXQcc17eTKLkuk0j59fJUL9xU4qyOYfAtARKgYjaRlu3rGybdW1jfr4nLGsa+bk/ta27H3J+1KGpT5eRQgAC0xHQveu9x/e3fAd/pVj3nt9GqW488n1aWgdyXmkdiDI5hwAE+k1g0AGWnHUviDn106h+T99itM9OW742xxh0qU5kqM3CP4yhet6UrKHqe/NSnjYk1YkynBf7cXtSCMxCINuw22YnR/nZ0SnZodpFm7YDlm11Gvl1bfM95XrK91EaV6lP1yeFAASmI+D7Ld/T07TOAVa+9hoT97vt9DeNTtSBAATWS4AAa73819a7F3wFntGBk0KxTOX+Keq88ahdDFzl6PlQ3ViW+/AGpF9akuPqurkPyyOFwCwESoGI2peCEdt7tF8HWbbL6BhJTp1zNK181bPs2G++p/L9UBpXqc9ZWFEXAhB4ioDXgny/q1Rluv907+fD+5lSH3EPlDztdVlu3TpgGaQQgEB/CQw6wOrvtKA5BCAAAQhAAALrIBADHz8IURofhqxDL/qEAAT6Q4AAqz9zhaYQgAAEIAABCEAAAhCAQMcJEGB1fIJQDwIQgAAEIAABCEAAAhDoDwECrP7MFZpCAAIQgAAEIAABCEAAAh0nQIDV8QlCPQhAAAIQgAAEIAABCECgPwQIsPozV2gKAQhAAAIQgAAEIAABCHScAAFWxycI9SAAAQhAAAIQgAAEIACB/hAgwOrPXKEpBCAAAQhAAAIQgAAEINBxAgRYHZ8g1IMABCAAAQhAAAIQgAAE+kOAAKs/c4WmEIAABCAAAQhAAAIQgEDHCQwmwLr3/t0VHxhgA9gANoANYAPYADaADWAD2ECdDawiNhtMgLUKWPQBAQhAAAIQgAAEIAABCECgiQABVhMdyiAAAQhAAAIQgAAEIAABCMxAgABrBlhUhQAEIAABCEAAAhCAAAQg0ESAAKuJDmUQgAAEIAABCEAAAhCAAARmIECANQMsqkIAAhCAAAQgAAEIQAACEGgiQIDVRIcyCEAAAhCAAAQgAAEIQAACMxAgwJoBFlUhAAEIQAACEIAABCAAAQg0ESDAaqJDGQQgAAEIQAACEIAABCAAgRkIEGDNAIuqEIAABCAAAQhAAAIQgAAEmggQYDXRoQwCEIAABCAAAQhAAAIQgMAMBAiwZoBF1fUTuPmWW6tjjjuh2traWrky6vvwI4+q7rr7npn7Pu/8Cyp9OCAAAQhAAAKZgPaH0884s9q//0Au4hoCEOghgcEHWFddfU11yKGHTXzkKHM8RaBvjv+yAqySneSAiACLuwYCEIDA8AnoAZ4e5GXfQfvEsg4CrGWRRS4E1kNg0AGWngTpiVBeJHVNkPWUwXU5wNJmlp/oLTPAin15g13UhtplzutZeugVAhCAQPcIaK2u+6ZCXdky9qWSTPs0i9qXukcfjSAwHAKDD7AuveyK8St3O80KsFignjLiLjv+6wywREf9i88iji5zXsT4kAEBCECg7wS0TscHbaXxlAKfUl6p7Sx5JZkEWLMQpC4E1ktg0AFWRqu/ndGTKd5gPU2mzfFXeXwDqEXfh3gefezx1XXX3zDi6r+Nsky3fd8HPjSql/92qbSBSLY3kdivNz23Ueq5LM1nnGuVS5emoxTMeRxu5779918u9zgdtMdA3n27rmWRQgACEIBAdwhozzjxpFPGf98b9xDtbWedc+7472+1nnu99/rv/Up1b7vt9oP2PO9ZcR+MD/HiHlEnM+556s86iGJsk9/Aee/SXq123k+7Qx9NIDA8AoMPsLKzq8VFiw3HUwTiop6ZaCPQguwjbxDegPJi7YXenB0wxc1AMpv6VrnqZ9mSmTcI1XNwp3bSS4GfNzL3r/7qjtyX+oky1S7n5XGqju0tjlXn0rmp/zq9yIcABCAAgeUT0PrsdTvvIflae0Hcm/Le4D3H8qS99wvn5Toqj3tElikZuY2plNrGIEuy2INMixQCqyGwkQFWXBhXg7m7veSFuUlTBw9arHVo09Ei7mu3lczMWHVinmTpaaGDILeNqTai2EZlkhM3DuVlvdS/NzHLU7scMLlMqeprA4qfNhmlcZZ0lvxZOEe9OIcABCAAgeUScODivUzreFz/tcdoL1KqI+9npf1F7bXu6/B+p7dgOc97YN4jSjKtZ9RN7eObN/WX60lW3jdHivEPBCCwNAKDD7AiOQcEPMl5mkpe1J8ueeosMnPwocVah8rimyK3Lcn0BqM2OiQjB09u71SbSK5T2nQkW8GTyryxWNeYtgVYuS+NI+blvkvjVF7c/DyWUl2XkUIAAhCAwPoIeN/QGq9D67XPda19KwYxMXhSed4bcp7aK7j6xs6dYzlqE/eXvEeUZFrPuMeoXtzn4rnrlWRJRw4IQGB5BDYqwBJGLWJagOLCtjy83ZecF/WoscriU68YyKjeLAGW6kueF3yda9FvOlQ3z1Npo4h6eQNqk537LfWVx5f7LrGLY4x9lOrGcs4hAAEIQGB9BOLarf1A1zq8p/gBXX5YqDp5b1Be3JckTx/LUv3Yn+rnPaIk0+0ly4fq5X3SZU5LslxGCgEILIfAoAMsOcjxb4i84BFgPW1MeVF3iVlpYfaR83IA4np1MlVfT/F27do92hAkr+nQJpI3jtJGkfWq63/WvvL4ct+lfpSXdfamqDIOCEAAAhDoHgGt7167vWbLV/BDRq3ffjsU90WNJO8NHp3a6JeMte9pP9GhfS3nKV914x5Rkmm9YoCV9yn3HdOSrFjOOQQgsHgCgw+wtDh6UYxpXiAXj7YfEvOibq1LC7nqiqHZ1S3sTTK10WhziRuJ+8xpaVMo5eUAS3WinpIrXWOwnfsqBXPS0Ruu6ue+S+NUP7K5uAHqXPpMM+asF9cQgAAEILB8AqU9b9pe6/ZC70V5H9F+4Ddi7iPvJ3Uycz3rHfuQzI9cfuXE34zl/twvKQQgsBwCgw6w7HhrMfOHRWbSkLRYm41TP7FzsOB8BSjip01Dx7QbQOxRwYblx/zSuTcO9e/NIwc5aud5tl7K88Zm3dvm3UGQ6yvNAVHuO290HkPmJtl1dd2GFAIQgAAE1kvAe0lpv1CZ1nHtS6VDZdo3YlvL0x7gw3mqH4/SHlGSGfcXy417pfcwl6mPvHfFfjmHAASWQ2DQAdZykCF1OwS06DtY2o4c2kIAAhCAAASWQSA/oHPQonwOCEAAAtMQIMCahhJ1FkLAT9nik7WFCEYIBCAAAQhAAAIQgAAEOkKAAKsjE7EJavA1hU2YZcYIAQhAAAIQgAAENpsAAdZmz/9KRu/vnE/7t1crUYpOIAABCEAAAhCAAAQgsAQCBFhLgIpICEAAAhCAAAQgAAEIQGAzCRBgbea8M2oIQAACEIAABCAAAQhAYAkECLCWABWREIAABCAAAQhAAAIQgMBmEiDA2sx5Z9QQgAAEIAABCEAAAhCAwBIIEGAtASoiIQABCEAAAhCAAAQgAIHNJECAtZnzzqghAAEIQAACEIAABCAAgSUQIMBaAlREQgACEIAABCAAAQhAAAKbSYAAazPnnVFDAAIQgAAEIAABCEAAAksgQIC1BKiIhAAEIAABCEAAAhCAAAQ2kwAB1mbOO6OGAAQgAAEIQAACEIAABJZAgABrCVARCQEIQAACEIAABCAAAQhsJgECrM2cd0YNAQhAAAIQgAAEIAABCCyBAAHWEqAiEgIQgAAEIAABCEAAAhDYTAIEWJs574waAhCAAAQgAAEIQAACEFgCAQKsJUBFJAQgAAEIQAACEIAABCCwmQQIsDZz3hk1BCAAAQhAAAIQgAAEILAEAgRYS4CKSAhAAAIQgAAEIAABCEBgMwkQYG3mvDNqCEAAAhCAAAQgAAEIQGAJBAiwlgAVkRCAAAQgAAEIQAACEIDAZhIgwNrMeWfUEIAABCAAAQhAAAIQgMASCBBgLQEqIiEAAQhAAAIQgAAEIACBzSRAgLWZ886oIQABCEAAAhCAAAQgAIElECDAWgJUREIAAhCAAAQgAAEIQAACm0lgEQHW/wdQuypHjmH70QAAAABJRU5ErkJggg==;" parent="J2_Xc6a70r_ZDQhd3KVH-21" vertex="1">
                    <mxGeometry x="-80" y="330" width="660" height="202.78" as="geometry"/>
                </mxCell>
                <mxCell id="J2_Xc6a70r_ZDQhd3KVH-39" value="予約一覧" parent="gdpqz9-ivrMvUYRW2mvd-0" visible="0"/>
                <mxCell id="J2_Xc6a70r_ZDQhd3KVH-40" value="" style="shape=image;verticalLabelPosition=bottom;labelBackgroundColor=#ffffff;verticalAlign=top;aspect=fixed;imageAspect=0;image=data:image/png,iVBORw0KGgoAAAANSUhEUgAAA+0AAAC8CAYAAAANfU/cAAAgAElEQVR4Ae2dT+slSVb373rexfMaZtELFy0uHofaCL0rcCFCrQYtKFzMypZmLBBErJU90ot+FgUzWE+BvXKYhQhNlyAoCDKbgRZ6MSrzHlJOZkZmZOSJP5lx4satyk9BcW/Gn3MiPxEnMr8Rmfd3G/gHAQhAAAIQgAAEIAABCEAAAhCAwEMSuD1kq2jUOQL//Yvh6fd/f/iLfztXnVoQgAAEIAABCEAAAhCAAAQg8FgEEO136Y//GP7i+78/fO/Q/y+Hfz7Ytv/6+z8bvvf9s/Ui7Xv1H8Pwb1/G2y75y7/pPLeLBv8z/OyPfn/43qbcMAwsMCzU+AIBCEAAAhCAAAQgAAEIQCBGoEy0jwLrz4af/XfMTJCeEnkb4Zq3OQrRP/rF8F+Bi/JDTUiW17YpGWnDyEkR2bH0ZGMi4jhZZ8ocGc+i2v/+z68UsT3b0xcItPOMtAvRXtAzFIEABCAAAQhAAAIQgAAErk6gjWjPUJ0EX9lj3GPZhGgXYfn07/8n7lFZcBjFqLd4sN0ZjpuSHNf23a55oo3DoInZYd7BNhLtuYWScKfbO83xnDKifdMPoy9twUU7T0S7h5qvEIAABCAAAQhAAAIQgAAEDhHwRPssrjwxuxOmkbxy0Tv7SArcbfs3YnGbNR3ldmzH/FkYz2W3j2pPQjMp/MXTIoonW77QlezxWPio4njyUcpzKqeIee38x7SJq3oOOT5+27X+dWL+v/9nWBc7NMEuDUG0R7uIDAhAAAIQgAAEIAABCEAAAicIeKI9UXsUfjGhlqi3ySoUx0PZ4oEvUCfBHBG5IrZlkSB1DqMgj9Qfhlmsbs9ff3R8bvtOuGti1i0EKH4z7dlgXUS3YkcKFtjyFyD87+o5jvZiTzdo5xlhUrCYEJ4nxxCAAAQgAAEIQAACEIAABK5G4C6iPSmqM8RFOPoCfSy+E+CJnWYRmX/0i+Fnmp3FtyY2p0y97Ql/6m5zxH5MUMfSl/Z6X5LiNyKYvery1Rfq/ncn2icGkR+q2/zwnXaekTYk2x00kEMIQAACEIAABCAAAQhAAAIXJbAR7WlxFhFtu11ln+Qs2LTHrr+/3bn2a63fp/r7x++ndF/MT21XdptFAL/6cviLzCP58cUB7d17TZyurXZid02JlI+J81j6anD+tuewKTLayXNO9vumf7f+ys5zqrN7bQDRvukqDiAAAQhAAAIQgAAEIAABCGgENqJdKzCm7Xa2oyXXjFmUfS8mzl1+SkxH/W7F4+Q0JYyV3fq1peM3TbSPYlZrX7Rdk9Gx3kbsTm0zf6ddRLnWvrEZs1iO8Q/O3x3uhbjLkU+fu8ZbS0O0+wT5DgEIQAACEIAABCAAAQhA4AiBJqJ9FH6bx6ZjTfJF4L5MVDTP4jHcgVcF57jbrO2Wb/1pol215x4nj4rl7ePmWy/BUfGOelCv4HDaPf9y+Jn87fZEW0NTsXOeynn9pbZdRHu4s49oDxlzDAEIQAACEIAABCAAAQhAoJTAXrS7HfDdI+2hGNNdaOJXLzmnRneLPYG4M6Dt6O4KTQmZXfGpkO5LP5ecb92W2jpV+KoljyWOdt1CxdRe/1WClLFS0a6yUVkj2lO8yYMABCAAAQhAAAIQgAAEIJAisBXto9jTxPkk/Nzj3aUC0P0JMFdv916ztCwmXGPpUkcVh5HTHMsq77pviutCXNvp19I2phSGoxDeLYJEfiPAL7d5xH7jJX4wnm/wOsCcFj6ZMBmZRbXv1/++aUNmQULtM0R7vLPIgQAEIAABCEAAAhCAAAQgkCawEe3xXVYRtauYX0ToRtCFjvY7vGO94FFtXQQXiMPATuj9yLHeBrc44Has3QLDymHnYxStgWDeFfISVJHr5R/9qgl2ZyMp3F2h+c/bRfs13S/6+EG0r3T5BgEIQAACEIAABCAAAQhA4BiBjWifdr0VURoRl5oIX9yPIjG0FexoR4TkTkSL/0Wkp4Xj4r/wy7QAEbbTqzy3cXpaQC83tnfcndbzPWvbrxGu20JlR64N+m76bCPC2/egC29XIsU+6FtXZf79gd1TFgVtWUzwBQIQgAAEIAABCEAAAhCAwEUJbEW7QNiIVPcI90ExOsLUd1idKJzEsrIrPfrf+3OidBTPi4A/22uTwJyEeO7R+ZiP+fzOiHVn0kS0u3MpPA/Xv5HddNcvyysN3hMW21+Pdycxfe4WWpZsfRy4cZZcZFhs8AUCEIAABCAAAQhAAAIQgMA1CexFuykHX9i6BYD5MyIaTd1vjAVtuZf/UZgH5+6/M575nhS1kQWOzWmrBxOL8bcJnIh37VAXRNzCgJzHfkHFiflkW8N2zH4P1QltcAwBCEAAAhCAAAQgAAEIQOADJzCK9h//5P8P687qeYGJDdidHQP/5//+8AMPNU4PAhCAAAQgAAEIQAACEIDAcQKNd9qPN4gaEIAABCAAAQhAAAIQgAAEIAABCEwEEO2MBAhAAAIQgAAEIAABCEAAAhCAwIMSQLQ/aMfQLAhAAAIQgAAEIAABCEAAAhCAAKKdMQABCEAAAhCAAAQgAAEIQAACEHhQAoj2B+0YmgUBCEAAAhCAAAQgAAEIQAACEEC0MwYgAAEIQAACEIAABCAAAQhAAAIPSmAR7T/5yU8G/sOAMcAYYAwwBhgDjAHGAGOAMcAYYAwwBhgDfceAv36wEe1ff/tm4D8MHmkMyGTxq9/8613/47Md715sf/7LYbjnfznP4Z/+867/e7CV2MRvu3jx576enO8ZO85XjxiSmO3J2e/ve33nfO8Xv25s3/OTOLpf/94rZn0/V4zfe8aP89UzjhDtLE68N4szPSYkfLa7yPVi6ybee332mOB7sJWbB/y2i5dHuTm7V9z4fnrEEKL9PmP5qvOGP77v9Z04us+Y5jp4P873ih3fT884QrQj2hHtid37HpMvPttN+MLWn3zv8b3HBN9jDF315tsX0/f63rN/7xEzoY8eMYRobzcPh3HSczyHbbnHsZxvOMbvcUwc3WdMX3E83yNuQh9XjCNEO6Id0Y5o77JD2uPC1mOSF588Ht/2ZqnHWJIbiCv6vYe4CH30iCFEe9uY9W/AiaP7vLJFHN1nTF9xPPvxfK/vwjm8VtzjuGccIdoR7Yh2RHsX8dHjwtZjku8xwfdge1URe68bFN9Pz/69x01R6KNHDCHa7yNwrjpvhGP8HsfE0X3GdM/52b9O3Ot7z/O9R9yEPnrGEaId0f5BiPa/+9FtuN28/7/358O7mBj/hx9OZX/0ZfZH7VKTUdbnv//58Lt+m+bvL/4hfeGo8unOLfSbOdcqnwHnlcvvDH/17/FzrfP55fAiPMfl+IfD3wVtchcv8RlOwO74r//YGz9i6wevh5+qP1r3zfAHi6+pzm/95a+jdsVnbKf9mz8MfP72q+HX3o/W7fI3fn8wvH6j/8Bdiu2vlHGpjcm1H9c2auUcW/m08Pvub3+nPJbnfk76ncs4u7/7t79Q497lr/NIfBy5c7bwO9n6xfBXvyec0zFj5Vfr21tqzvQ4u3iJff70Lz8Z+28fE78efvSDdSytnD8ZfvSP6Z1G4RyLIZf+6z/9wej3kz/9l3TZN6+GT1wc/eHbZNna/t2PqfX8Y+MwG0eF41ns7P2nx3TV+SrzytrHt+GWuAZV+Z15aGO6ar4q5LxjXBNHP/3xdu4bx6keHy7OVsY/Hv5avV6tsRWNo7/5E8Vv/Poy/NO/DK9/W8Zyqsx6bYr2r3q/sp8Dtb4tna/cnLn5LPLr5uQ1ZifW+/ZtbKeug0V+g3smP64SMSRtqOW8G8tunrzdhlPz1cHz3fvPz1fqdagkjv7x9fBb3vmtcTT39x9/c/ye7kAcafd2P/6bNWbcdc3/HOPXU+38ejwC/qEFfGxCchP6MqksE4Uf8MoEnJkAU5NgkU+ZbDcX8LUNS1vnGwN/0q86Tzn3jc9/HVxbz9w0ubpLe1W260VmO+mmL25V5/kbJ9r9Pl7b4fP0v4tPbZJ3gn0RGsukH9wIxdITN0vi05943Xc3aS8iY5nw/2T4xhPurvzyuZSL3zDF2K6C3XHTxmRp2p53nd91rJaON9e3Ub/LOFlvvBbbXuwt49bNCcuN0rkx/KtCv79a4sm1L+3P6nwlrjeCZmmHGxf7vhXfwlmLn5//smQhaxLtf/DTVUT8fLlx0oWJ8yV+l/G/iY23w4+DG68lnjbl3M1QUP60aHfzj+s3/abWjSttzLm+1D5rx/OvfqPFsN6nvv96v6GPtR1nrj9lcbT6WDlraWHbEiKnMH6PXh8d62gcyfVlIxbWuPLjZhHsrmxtHMk1ZRMLa5xshMRy7XHjPn4N8uM1Oq5k3nFz7jgfr3Hlz08185Vjvvks8juNIb8d6/UzPU/Xnu/a1pXHKCo3rA6M56LzXRf51jja+1jbtubVn29ZvIa+a+PIXV/WT29h2cWWcm8nfv3xvXwviiO34HUb1muVluauWevn6BfRzp91e6Q/65ZqizoxLDfX/s3mOgFsJtxg5Xx7sVgnIH9isPLpbLqbuFBYu3z5tPa5CINAzJv7nG/8f/dv/3zeBT9xYSvuT3cx8/td78PwPNcJehYPyw2PL9DXyXu9WXI3UGmBEdofJ9pQQCy7fb5AXyfuzY3Spu5a5hbsyi8XjsSfqtrdZEpMzP22jknHdivslrGbuHFQx+5vFDGu+c30fepGIubX73v13Dc3itvxGi+/jrM6v6udVZxs2+C33/9u59e1Qe9z36d8F7/h+A6Pdwtgyk3PWkeLM0/Uz3XFrz++te+7RbBN3MiNj4udPxlez7vyW6Gy3hw5+7WcXcykxm7I2HHW0v201Ph0fkuucb7N2vP1bY3f3dxy284lYbk6v/rYLWFQ5bdyvlpjYD/e/TwXT6uY169Drtyy8KzEnZyvG9u5TxdPeow4UV8p2ud7Mn88uHGdHrt6n/t25HtJ/7o6ZX7T95bOlo1f5+uHw1+5p88S116L83Ux02K+cmw0zs5vus/dtWr9FM5+rKS+u/hY40iJu2VT5jas9337cnVx5GLnNvj3ee5JMT3epmvT6BfRjmhPCeVHylMnQndTEAhSbWJwk8aRCcLKp/O9tCtor8uXT1ufbuLXd4Kc32qf7gZmvKi4C2pagNT5dD7civ/8WXBR203sbqIOHocPJ/lldyMot7MX3CzJee5ukNyORSC80zdK/zkMrl7msUSVrbf7tlnMcn23PJq9jpn1ce01bVM3uOmq8uti+bZdiFliJtG3ut/14i7j3NnZ3ZAs57/1u8wTR2M1YBL1uynnxnM6ZpLxurGXON+g3GhzYZAXV7nx7uImJR4WGy72bv6C2bmbJBc76+7FVoRP+ZPIKLlBkpitGlfq4+kyT+X7uM6vG0vpvnRjyf+s87uNN3+3P3czXud3nZtWtmva8flqex7R+K2cr5YYCK4X2/R1UWsRG+oi8zCUXJ+E8+5atFvc8he4bsEOvIspJzysRfvab8kxc2C+8sd3/Huh30ifh3ZLxvNUJ+53GnfTXLFcixLXQLFX63fxs3l6yWa+ip9v3Xy1jZf9tWPKV+JoF3clZSb7dXHkFo/lWuDiZ03zhXwYq6NfRDui/ZGEeaot2oS0TDLBjbW70GoT/1InMwHGJsGl/gGf44TlXWh2wsG7kTY5T8/XLRBB0+S5vTGp8zlPugsPNwmnJ/s6n9v2l94gis9wko/d7Djx4W6WluPNBU0m3vTOu/gMJ99FNBwS7e5GKXYj5W6oYmLD9UtwM7+MFb+/1rLru15bUVs6jtZd5IzfyA3REm+JeNXGUtg+NyfsYi/ndxnX4Zgru0mK+vVifmXk98HenzunqvPd+J18uDbm5gotfsJ4cnGSEu2ujIytVDlnW4uhMKZSot3Fm7shcsepXQ2xb815eaolI9yr/C7xPC9k+vNVIoZkbFX5DcbVEreZc7XxazlfbePOxcbheSPBWji7sZ38XBa1vJ2/JW270BW7jvn2xW8YN+rxsji83Q1cy7prkRMd67VnLbOmlYyrcW5b5uLgWhGMLdcnJfOVmzOTnxm/q7/05ofzUXu+LnbcgpM71u5nnU/5rPXr2xq/L1zS16Uqv5XzlT++o9+XmPHiKBDtS/xk7ufEh5yvNs53adE4cvHjz9H+U5dr7Pg2R7+IdkR7Sig/Up42MSyTWXBjvUyyyoVzqaPkhZOWlc/1XSgJ0rT4MfM5X+hSLNz5nvfpVor9c3I3UMcn+qVvDvSnO4eVcdyvnGc4sS+TdbCDvgiL+d2m8Hi0s1wM4sJdfPoTr3xfRMMB0b7UWVZn9Yld7Gv9uQrD4IZouWiu3JZ++NGXyw61E+/uRmLh7t1Q1fl142Z7Y+S3RfMpabpfo5vvYCz6bajy63Fb+2btA99P+N3O77ojL/27EyabNk6cw/gJj12clIjx+nfa1xiIivb5xsnfgV9iafMe72rLxaslZ9eHZ+djV999Oju7PlPi+ciiprMf+4z63YyVNZZzQkP81HL25wjXvvPzVeG84b337veB35YYQznfMG52x8u1JfhR1CW9kWj3hEb8FSwnOgxF+yIQb7vf5fE5+v3rc/fLuO8l42pdSEv7HW2qsbUdL1Kuyu/MwT+3kjFV7XcTv+s5LbwT98tV56sydfeV+R+w3MVNIMZ/vsRLEEebcu6Vk1vwmxL6zr2cr7tGRD8TceRff9x1y81XbmFZszv6RbQj2h9JmKfaok4MbqIPbqxTE03pBBidBI/6XCYlEez5m3Kr8xwvMjIRL/7jvs/79G7O/B0d/3tksj/vc72gLOd44Dx3k7yb1M+I9l+uj1TFRIqc524CdhN6sWh3N0n+j5fsRYbzo7ItfTzeje9gcWmJqSDW/D6o8jveNMTHk38T4/uU77rf7Thx7d/ZWeLDX3haf5Rnfdd/a6/a7+YmyZ13PEb9c646X8+vYzLeMETiNPS7i5/Nzc8wHBLtv1zLuydaNPtyvm5sxz7dzY8vzqXscoPkz0mb73HhYcXZZ7gwT/Cu8ruM52AsReLab1uVX29cLdfYYA7xffnfq/xGzmvhfHi+2sa5s7ObNyrnK22cL2numjSO0604Xxe6tumxxefFZskOobsujX5TO3/uehSPHT9Os/279GF6U8P1xZH5yh9nu++Ffv16Sxtq4jfhd40dfxfW/x7EtRd3Vpzveb7R+9OF0fa67LdNztcf37vvqTjyrltL7GRe03L2xa8/vnffU3G05G3jy12/4gtl02aMp9kHfj2eX49//349frlB8QN7XaXTdgWXSTEx6bqJQZ0Ej/hcJp4ywS5+q316k/h4HksbfEbbGxNbn2UCxNan94NqiRtF8ekm3uVTfUdwFePLD5K4C8BG3K8rtEs572IgPsTnblI/+EN0q/DYTvQ7u/P7iSrb2Hvdbny4m1t3HHJ06a5cOM5iY7fUr2Jv3SGM36hEYyaw52629jff+niNl19jJ8bZzR/yWWLn/jvt6xxZegPsOC9xE4xzl35MtK9xFlv0isZQ8C6uu+kJRbsWI0s83X2nfeW+H4dW42r14V//luveifg9Np5dPOWf3HB2q+LIzUuG85Vrl3yWxa/rO8c+P1+5eAk/VwEh9wxbYT6Vddec7dNdJXGnXovmOFpiIivYZbHYTrQv43L0G7tHcVxn8Vpw7yZ9lxpXZX5dv7rPtR1n4/eM36VO5rzfz/NdmZ6Zr8L4ccf5OHK76C6eyl7VEvtVcRQR7cvvFQUbOf71a/TrqXZEO6L9/RPt2kU1dhGfb+JLJ8DUpL+7kCs+Fz/Ji5G7GKyfsYm3xKeU2V5M1gkx9ZhijU//Bmf67m7a8jcu+7rKTVKM7eYCtp7n9vxXrq4/3aTuf+5ueJxA39w0rQJjEehqOXcxSP9oyU5kxCbzReDH3i/c77jH+nNd1XY3Rxo313/+WNLKbdk6vlqflvnd23Nj3r+Ya/aj5+sJd2dLGx9LrLoxtSzMnRvDfhtTftdyjnnanytfd77O13QDrPFwfsJP8evHjfZ9F0tO3I+LY4EIWeJnK0BCu+LXv3nRvu/iKRD1fp1FoDQV7cI56E9lLgsZy3Fd/3oLmItAr4zfwjiStrvxnnpCJTznuvNdx/M6lu93vv65uHMvma/CMS7HLnbGhbTN4vD2mrIIEvdnqZaF53Nx5GJn9JsQDWsM2Yh2x2v0u4zV8Dqw9q+UW/s4LLc/jo2rIr/jNcBdJ2fbS/wGce3FRyp+i/wGtsTe7vqklKn3az9fFZ+v47qMgfL4rYmjTcwl4i30EbselcWRix3/qcn1h+hSi86jX0Q7j8enHkl/pLzYBCyT1WZyEJG8BL+byNdJYLxAjEJ6XrXdlXV10jdPOZ/LROv78r7HLuw157lr0+wv5kvYpSb7MrYrr8meu8ieu7CV+NTZpv258wwnYHe8uWESbuokvgr3ZRy5GycnToLP2AQvN0CbSV587m6Y1sl8n7cX6+6mKjWGVgE9j3/1zzHp8VIzjkr87vs1uGk6eLOy7mCv57r0mxPos80zvuOcXQxk/LqbFW9ecO1Lsa7zm2ibtCMzH7p42X6uuxWu/cuni49FWARM1DjbipR4DK03QIs/xzIhyOtFe4LhMq4iZZb8cN5cj+v6d7azG1tl8+M0h69t2c7pQd8Ja/98PJ+p8Rv6qD9f6/kq0nfB+Z6ZM1LXod01yI3l8XMryBfhvpQJFsSC65DEayyOdtehxab0t/cI/LKwvB8HuXdxwz6X49j9yhTLbrwm+kLamZmvTvtdFm6Dc034c75i47nsfMPYMxbtm76Vc8tw9uP74PX30Pl6c8e2//c8fM7b69B03SiOo2XROP4DdZr96jha/vzodmylYkju7Ua/iHZE+yMJ81RbYhOhC+AWn/iMT5i1vHux1SbhlmnjRJvY9XNC2/KzB1sZD/htFy9+vPXk3DJWYrZ7xJC7SfK53+t7z/691zn6fq54vrGx3jKdOPrw52c/ru71vWf8toyXmO2eceRpdt5pTwlG8vovbvSYGPDZ7iLXi21sIm6V3mOC78FWbhDw2y5e/BuwnpxbxUnKbo8YQrTfZyxfdd5IjfdWecTRfcZ0z/nZv07c63vP820VKym7PeMI0c577A/9Hru/WNJjYsBnu4tcL7apybhFXo8Jvgfbq9583+vGyPfTs39bxEjOZo8YQrS3m/v9sXzVeSM35lvkE0f3GdM95+cwtu5x3PN8W8RJzmbPOEK0I9oR7ZH3dHrdTPSYAK/kMzchW+f3mOB79GeveMHvfW5EHWfr+Cix1yOGEO33HVcyvu79v+c8WTLurcsQR/cZYz3H1b1jyF0Xevm1jpESez3jCNGOaEe0J24Weky++Gx3YRW2JZOyZZkeE3yPMdT74t3rpuFqfi1jo9RWjxhCtLebh8OYueJ8VTr2LcsRR/cZ01ccz2FM3+NYOFvGR6mtnnGEaEe0I9oR7V3eRe5xYesxyfeY4HuwlYs0fj/8m8LSGxvLcj1iCNF+n7F81XnDMj5KbRFH9xnTXAfvx7l07FuW6xlHUdEujeI/DBgDjAHGAGOAMcAYYAwwBhgDjAHGAGOAMdBvDERFu/8DYHzv/8vp9MGbcRHJH7D3+C6T073/4bMdcdi2YyuWe/DFb9s+9a3Tvz6Ndt/h3I6tbxnOPo123+Hcjq1vGc4+jXbfH4XzzZ2iNAiRiFB/tDHQI1Dw6WYF+0/Y2jN1FnuwFd/4dT3Q9hPObfk663B2JNp+wrktX2cdzo5E2084t+XrrF+dM6Kd99sferGmR4Di002P9p+wtWfqLPZgK77x63qg7Sec2/J11uHsSLT9hHNbvs46nB2Jtp9wbsvXWb86Z0Q7oh3R7maD+bPHpIDPoBMMD2FrCFMx1YOvNAO/Smc0SIJzA6iKSTgrUBokwbkBVMUknBUoDZLg3ACqYvJROCPaEe2I9iBAewQnPoNOMDyErSFMxVQPvtIM/Cqd0SAJzg2gKibhrEBpkATnBlAVk3BWoDRIgnMDqIrJR+GMaEe0I9qDAO0RnPgMOsHwELaGMBVTPfhKM/CrdEaDJDg3gKqYhLMCpUESnBtAVUzCWYHSIAnODaAqJh+F8/1E+7vnw8e323DL/v9o+PRd5Q/Ceb4+fvXFRpR+/kLsfzF8+sTAD4J/w7bFj9j1CBR8KjOWURJsjUAqZnqwlWbgV+mMBklwbgBVMQlnBUqDJDg3gKqYhLMCpUESnBtAVUxenfM50e6J4qQIf/GyuajLCcWvXn00LxTMIl3a/uT58JV8PkD7cu2/en6PAMWnMlMaJcHWCKRipgdbaQZ+lc5okATnBlAVk3BWoDRIgnMDqIpJOCtQGiTBuQFUxeTVOZ8T7QU7zKNYRhR3X7R430V/jwDFpzJTGiXB1gikYqYHW2kGfpXOaJAE5wZQFZNwVqA0SIJzA6iKSTgrUBokwbkBVMXk1Tl/eKL97dPlEfxnbysfsy9YnHjfRfGjt79HgOJTmSmNkmBrBFIx04OtNAO/Smc0SIJzA6iKSTgrUBokwbkBVMUknBUoDZLg3ACqYvLqnO8k2l8Oz7Lvsvvvuz8dPq8WzPLe+mxTHocP7Y2P+Fv4YWGgpfDvEaD4VGZKoyTYGoFUzPRgK83Ar9IZDZLg3ACqYhLOCpQGSXBuAFUxCWcFSoMkODeAqpi8Ouc7ifaIsM0JZ2/XPPnu/O3oj8pNgj78kbqW4hPbkTEQLqYExz0CFJ/KTGmUBFsjkIqZHmylGfhVOqNBEpwbQFVMwlmB0iAJzg2gKibhrEBpkATnBlAVk1fn3F+0a7vggXCzFbzzDjzv278X79sfDdBvPvOf2LgNt8++UcI+nYRPnQ9sdS5a6vswhobvXg+fbJ6A+mR4/Z12Num0o+eKXzinR9SUy7jKUCJ+ma8yQ0SyiaMMJOKIOMoMkUeKo66i/f4/Vjc/po9gfy8EuyzWHL7gFARfrgg+c4TO58P2PLtczR5spU34zfWMTew7EM4AACAASURBVD6cbTjmrMA5R8gmH842HHNW4JwjZJMPZxuOOStX59xPtI+Pvh99rP3cI9Yi/j5/Me3A8kj8eYa2TzyUtaNHgOIzN22ez4fteXa5mj3YSpvwm+sZm3w423DMWYFzjpBNPpxtOOaswDlHyCYfzjYcc1auzvmcaC9911zd0V5/IK75r7v77VTbUiYce4hVfE590yNA8ZmbNs/nw/Y8u1zNHmylTfjN9YxNPpxtOOaswDlHyCYfzjYcc1bgnCNkkw9nG445K1fnfE60n33nfBbRbXe710WB2+EfqEPEP9piQY8AxWdu2jyfD9vz7HI1e7CVNuE31zM2+XC24ZizAuccIZt8ONtwzFmBc46QTT6cbTjmrFyd831F+1mxT7335h10a9HfI0DxmZs2z+fD9jy7XM0ebKVN+M31jE0+nG045qzAOUfIJh/ONhxzVuCcI2STD2cbjjkrV+eMaGdB4KEXBHoEKD5z0+b5fNieZ5er2YOttAm/uZ6xyYezDcecFTjnCNnkw9mGY84KnHOEbPLhbMMxZ+XqnBHtiHZEezBL9JgU8Bl0guEhbA1hKqZ68JVm4FfpjAZJcG4AVTEJZwVKgyQ4N4CqmISzAqVBEpwbQFVMPgpnRDuiHdEeBGiP4MRn0AmGh7A1hKmY6sFXmoFfpTMaJMG5AVTFJJwVKA2S4NwAqmISzgqUBklwbgBVMfkonBHtiHZEexCgPYITn0EnGB7C1hCmYqoHX2kGfpXOaJAE5wZQFZNwVqA0SIJzA6iKSTgrUBokwbkBVMXko3BGtCPaEe1BgPYITnwGnWB4CFtDmIqpHnylGfhVOqNBEpwbQFVMwlmB0iAJzg2gKibhrEBpkATnBlAVk4/CGdGOaEe0BwHaIzjxGXSC4SFsDWEqpnrwlWbgV+mMBklwbgBVMQlnBUqDJDg3gKqYhLMCpUESnBtAVUw+CmdEO6Id0R4EaI/gxGfQCYaHsDWEqZjqwVeagV+lMxokwbkBVMUknBUoDZLg3ACqYhLOCpQGSXBuAFUx+SicN6JdGsV/GDAGGAOMAcYAY4AxwBhgDDAGGAOMAcYAY6DfGPDXEDai/Wt2nR961/mK/SMTxb3/4bMdcdh+WGzlbHr0KX7bjaPQMv0bEmlzDOc2XEOrcA6JtDmGcxuuoVU4h0TaHD8KZ0Q7CxUPvVDRI1Dw2WbSE6uw/bDY9upT/LYbR6HlHjFL/4a90O6Y/m3H1rcMZ59Gu+9wbsfWtwxnn0a77yFnRDuiHdEexFsYJEF2k0N8NsE6GoVtO7ZiuQdf/LbtU986/evTaPcdzu3Y+pbh7NNo9x3O7dj6luHs02j3/VE4I9oR7Yj2IM57BCc+g04wPIStIUzFVA++0gz8Kp3RIAnODaAqJuGsQGmQBOcGUBWTcFagNEiCcwOoislH4dxGtL97Pnz85PnwlXy+ePnQorDZe+Jvnw43Ofe3T4ePX31xTQYGCyI9AgWfyoxllARbI5CKmR5spRn4VTqjQRKcG0BVTMJZgdIgCc4NoCom4axAaZAE5wZQFZNX52wg2r8YPn1y2wnTr159NDx7+2b4/MVHw6fv3txXtLpFA000ipi+3YabLCpo+afSXg7PbrfxfP1FgOnchc/T4fON3YmZ8HHlP38x1e/Ca9O2tU2ubeWfwsG2v3sEKD6VmdIoCbZGIBUzPdhKM/CrdEaDJDg3gKqYhLMCpUESnBtAVUzCWYHSIAnODaAqJq/OuV60jyK4TKiJMB0Fs4jm2P+NmJ7E7WGBnRDtn7+axfrb595iwiS6x53xEwJWFihut1CYp8TvXrR//e3L4VmrpxOkjzZcc20Lz2VuW5YNol2ZY4qSekxE+CzqmlOFrsJW4PQ4V/yeGpanKtG/p7AdrgTnw8hOVYDzKWyHK8H5MLJTFeB8CtvhSo/CuVK0z6I6JsCtdl3d7nipME6IdnlcPbbTPonvo7vws+CPMggFsAhmTbSnhHRdniyWlD+iL+cTtllLy/W9tzBTvGCwP88egYLPw/NZcQXYFqM6XLAHW2kkfg931akKcD6F7XAlOB9GdqoCnE9hO1wJzoeRnaoA51PYDle6Oucq0T6J3Mguuwjnnfjbi7LyR6/fjO+H30oWAlKifRbMqZ3nIzvn09MDocidzzO6w31P0X509zsm0MNzLDyHKIOysdAjQPF5eB4trgDbYlSHC/ZgK43E7+GuOlUBzqewHa4E58PITlWA8ylshyvB+TCyUxXgfArb4UpX53xetM871v572b4AH4Wv/yN0o4j3dl+jO9ORRYDso9meCAxE+/axfAP7c1uSixbfyvv8sR3u7S51jKHP8/T3o6I5YOf87t+1R7Qfnm0SFXpMRPhMdEhl1lXYCqYe54rfygF6oDr9ewBWRVE4V8A7UBXOB2BVFIVzBbwDVeF8AFZF0UfhfE60ZwS7e/y7/JFsJ7iP7gp7O9qJBQIrUSwi3Z1TTrCP76grP043ieCt4HWLCs62E8oWn9uFg61f1b70rc/SW6DYciyw9e2bYbd4c2Tx5ds3XQRBj+DEZ8VsmqkK2wygyuwefKXJ+K3suMLqcC4EVVkMzpUAC6vDuRBUZTE4VwIsrA7nQlCVxR6F83HRPu6YZ3arxzLh49ROmCc+I7u8qrhcxJ8i9E/ZSbRLfPnnNC5aZM4vucOtC95JvG/ZTosDJU8oaO1RHnX3z2NhuJ67tGErzue8nZjXzyHsq+2iweonLBc77hEo+Kyc3RLVYZuAU5nVg600Gb+VHVdYHc6FoCqLwbkSYGF1OBeCqiwG50qAhdXhXAiqstjVOR8X7YrQ2wquScyd2TU+LvBElCqPoFuL9lHoRsSsymNqlyp+x/IpwassQqg+8gI4tss9Lg4ou+nT0wGa+BdfygJAtl3159IjQPFZOasmqsM2AacyqwdbaTJ+KzuusDqcC0FVFoNzJcDC6nAuBFVZDM6VAAurw7kQVGWxq3M2Fu2TGE39yNtW4HvCcxTG213maFkRi7OQVhcHLEX7uKt+XLBrj5iv55MS7R6TrChOlU350MW0iHyV59yO6C58pJ3xxYFUu7d5PQIUn5WzaqI6bBNwKrN6sJUm47ey4wqrw7kQVGUxOFcCLKwO50JQlcXgXAmwsDqcC0FVFrs6Z0PRLkLw6J9LmwXaQWE8isHo++KzoK/4M2OTuJ4XIEp+rd6J1nkhIS3Y5ZxTgnorWlehfzA9+Xj+/K65z2hse2yXffZdUmZk4dhl7Dluic8eAYrPylk1UR22CTiVWT3YSpPxW9lxhdXhXAiqshicKwEWVodzIajKYnCuBFhYHc6FoCqLXZ1zvWifBbf87fP44+ARwbnULdhhX8re1B9K24rbM49yT2303yFP7Tr7/tY6BefhidrDvBLi1m+PfNd3xeeFFe+X+6c2lC8ipHfPPfvq4/eRcZA4rx4Bis/KWTVRHbYJOJVZPdhKk/Fb2XGF1eFcCKqyGJwrARZWh3MhqMpicK4EWFgdzoWgKotdnXOFaHcCrVSoToLN7ZKLyL9l/46781FSNhCEvsj3ROrkd/pht0U0ux3yo08KLPWO7iiXi+RQjGePlzZpP1637atxseHJ8+H/ZR6L3/qUPtna8ft0YZoQ4lt7Qb8F9XoEKD4rZ9VEddgm4FRm9WArTcZvZccVVodzIajKYnCuBFhYHc6FoCqLwbkSYGF1OBeCqix2dc4Voj0tto4IM8rCMjYGegQoPitn1UR12CbgVGb1YCtNxm9lxxVWh3MhqMpicK4EWFgdzoWgKovBuRJgYXU4F4KqLHZ1zoj2YGc3Jh5J77Ow0CNA8Vk5qyaqwzYBpzKrB1tpMn4rO66wOpwLQVUWg3MlwMLqcC4EVVkMzpUAC6vDuRBUZbGrc0a0I9qHR16QOBqg33wWvBbw2TeHpwh86shgq3PRUt+HMTR893r4ZPPq0CfD6++0s0mnHT1X/MI5PaKmXMZVhhLxy3yVGSKSTRxlIBFHxFFmiDxSHCHaEe0flGgviL1skcMXuazFfAF85hmdLQHbs+TK6vXgKy3Db1n/1JaCcy3BsvpwLuNUWwrOtQTL6sO5jFNtKTjXEiyr/yicT4t2/8fH/B93W78f/XG2Po9fP/IuM2170+XGvEdw4rNs4jxTCrZnqJXX6cFXWoff8j6qKQnnGnrldeFczqqmJJxr6JXXhXM5q5qScK6hV173UTifFu0pQSmCvvTPpaXskMdCRo9AwWf5RHa0JGyPEisv34OttA6/5X1UUxLONfTK68K5nFVNSTjX0CuvC+dyVjUl4VxDr7zu1Tk3EO37PwmG+EZ8nx0DPQIUn+UT6NGSsD1KrLx8D7bSOvyW91FNSTjX0CuvC+dyVjUl4VxDr7wunMtZ1ZSEcw298rpX52wu2sfH5l+8fOj3pM8KSOrdf/GhR4Dis3wCPVoStkeJlZfvwVZah9/yPqopCecaeuV14VzOqqYknGvoldeFczmrmpJwrqFXXvfqnG1F+9unw+3Gu+yIeztx3yNA8Vk+gR4tCdujxMrL92ArrcNveR/VlIRzDb3yunAuZ1VTEs419MrrwrmcVU1JONfQK697dc6Gop3H4hHrdmLdsewRoPgsn0CPloTtUWLl5Xuwldbht7yPakrCuYZeeV04l7OqKQnnGnrldeFczqqmJJxr6JXXvTpnI9Eugv02PHshO+0fDZ++sxdvTsTxeS22PQIUn+UT6NGSsD1KrLx8D7bSOvyW91FNSTjX0CuvC+dyVjUl4VxDr7wunMtZ1ZSEcw298rpX51wv2t89Hz4Wwf52FpPhMX8Hnff7K8ZAjwDFZ/kEerQkbI8SKy/fg620Dr/lfVRTEs419MrrwrmcVU1JONfQK68L53JWNSXhXEOvvO7VOdeJ9vEddmVnHeGOUK8Q6v7TFD0CFJ/lE+jRkrA9Sqy8fA+20jr8lvdRTUk419ArrwvnclY1JeFcQ6+8LpzLWdWUhHMNvfK6V+d8UrR/MXz65DbcnjwfvoqJs1m48/far/U4uy+4Lb73CFB8lk+gR0vC9iix8vI92Err8FveRzUl4VxDr7wunMtZ1ZSEcw298rpwLmdVUxLONfTK616d83HRfmQXfSzLr8lbiNer2ugRoPgsn0CPloTtUWLl5Xuwldbht7yPakrCuYZeeV04l7OqKQnnGnrldeFczqqmJJxr6JXXvTrn46I9trNOOo/ENxgDPQIUn+UT6NGSsD1KrLx8D7bSOvyW91FNSTjX0CuvC+dyVjUl4VxDr7wunMtZ1ZSEcw298rpX54xobyA0r7or3uK8ewQoPssn0KMlYXuUWHn5Hmyldfgt76OaknCuoVdeF87lrGpKwrmGXnldOJezqikJ5xp65XWvzhnRjmh/6CcEegQoPssn0KMlYXuUWHn5Hmyldfgt76OaknCuoVdeF87lrGpKwrmGXnldOJezqikJ5xp65XWvzhnRjmhHtAfzRY9JAZ9BJxgewtYQpmKqB19pBn6VzmiQBOcGUBWTcFagNEiCcwOoikk4K1AaJMG5AVTF5KNwRrQj2hHtQYD2CE58Bp1geAhbQ5iKqR58pRn4VTqjQRKcG0BVTMJZgdIgCc4NoCom4axAaZAE5wZQFZOPwhnRjmhHtAcB2iM48Rl0guEhbA1hKqZ68JVm4FfpjAZJcG4AVTEJZwVKgyQ4N4CqmISzAqVBEpwbQFVMPgpnRDuiHdEeBGiP4MRn0AmGh7A1hKmY6sFXmoFfpTMaJMG5AVTFJJwVKA2S4NwAqmISzgqUBklwbgBVMfkonBHtiHZEexCgPYITn0EnGB7C1hCmYqoHX2kGfpXOaJAE5wZQFZNwVqA0SIJzA6iKSTgrUBokwbkBVMXko3DeiHZpFP9hwBhgDDAGGAOMAcYAY4AxwBhgDDAGGAOMgX5jwF9D2Ij2Fn9nG5tvHnon+9H7RyaKe//DZzvisP2w2MrZ9OhT/LYbR6Fl+jck0uYYzm24hlbhHBJpcwznNlxDq3AOibQ5fhTOiHYej3/oRYUegYLPNpOeWIXth8W2V5/it904Ci33iFn6N+yFdsf0bzu2vmU4+zTafYdzO7a+ZTj7NNp9Dzkj2hHtiPYg3sIgCbKbHOKzCdbRKGzbsRXLPfjit22f+tbpX59Gu+9wbsfWtwxnn0a773Bux9a3DGefRrvvj8IZ0Y5oR7QHcd4jOPEZdILhIWwNYSqmevCVZuBX6YwGSXBuAFUxCWcFSoMkODeAqpiEswKlQRKcG0BVTD4K52uK9nfPh49vt+H25PnwFaId0R4EaI/gxGfQCYaHsDWEqZjqwVeagV+lMxokwbkBVMUknBUoDZLg3ACqYhLOCpQGSXBuAFUx+SicjUT7F8OnTz4aPn33fvzo2levng+fi1h/+3R49ta1Wc7h5h279DfDV68+Gm4vXpqKW3ObshBxehHi5fBMFjFiCxlvn5qff+kP4PUIFHwqM5ZREmyNQCpmerCVZuBX6YwGSXBuAFUxCWcFSoMkODeAqpiEswKlQRKcG0BVTF6ds6Fo1wVvqTjTy01C+siO+OcvZvHpRGjqcyNyG4j2cUdfX8w4KtrH8ren02KDe1IgdW5LnudfxPeS7nOa7UaeOhDfH7/6Ylq02Pj2bAd1p/aW+9D7/00XQdBjUsCnMjsbJcHWCGTETA++0hT8RjrEOBnOxkAj5uAcAWOcDGdjoBFzcI6AMU6GszHQiLlH4Wwk2t8MulhOi8GYUNulL2LTwp7sKmti01i0z+J23clfd+7l/A6J9tFW5tylzGYRYutvx1REdmEdaaucxyTEvXaUtGsU88LcqxcIfLVtc5kegYLPyKxlkAxbA4gREz3YSlPwG+kQ42Q4GwONmINzBIxxMpyNgUbMwTkCxjgZzsZAI+auzvmUaN/vok47qstubEqUFQpFVciN4l0T3AUC1bUpFJrLgoC/K5z6XuB/9JF+8uCIaJcFkZ34L2z3Wm9+akHdaQ/ONxD/o/9X+qKAnEe+32MLJfl+6xGg+IzMlgbJsDWAGDHRg600Bb+RDjFOhrMx0Ig5OEfAGCfD2RhoxBycI2CMk+FsDDRi7uqcT4l2TVCXiTcRaSIeJ+Griv9AMGq+qtJE7Ko+bHba3TmtYlkXpq7c+Lh66n35cJHBLT68fboVy8piiCb2N/0U1NnkOT/fylMUHw0fx36zQHim2i92ChYxYn3aI0DxGZktDZJhawAxYqIHW2kKfiMdYpwMZ2OgEXNwjoAxToazMdCIOThHwBgnw9kYaMTc1Tmbiva0ePN+7Gze7d3u0MZFc0zQLeklwnEWoTFhOi0mKDvapY+yezvf2/NKiPZZ7C4CXhO/sXPz/OnvqU+7527xYPFRstN+u20WBMZXH9SFjsJH7Oe2lnBZ+nTurx4Bis/IbGmQDFsDiBETPdhKU/Ab6RDjZDgbA42Yg3MEjHEynI2BRszBOQLGOBnOxkAj5q7O2Uy0yy+x6+Jx/zi5KpylfkwYeru+oaj7+tsjj16nysYXDUbBqwnqcRfaPVo+nacI3BJxqtpUxK3KSnjccac92gZpR7Bbv++fmas8Xn/ivfYeAYrPyGxpkAxbA4gREz3YSlPwG+kQ42Q4GwONmINzBIxxMpyNgUbMwTkCxjgZzsZAI+auzvmEaN/vmC9ivVR0izj1RfD4+PSZHyqb2lIikkVMqkJ5WRCIi/a9EJ/KjucdnPO+bH6nPRS6vg3/+6ZcdJHELSJsd9pd3Y0ADwT3Jm/hMnGLMg770qs3+pT8mVH0XMI63nGPAMVnZLY0SIatAcSIiR5spSn4jXSIcTKcjYFGzME5AsY4Gc7GQCPm4BwBY5wMZ2OgEXNX53xCtOsidHpvuVB4b8SiCOD9brwTmdHPUeiX7WqLjVGwn9jpnc6rvH2lwjS9gLAyjgnpHZcN07X+Wi6x2BI+Mh8sRKw29nbT5xs+2RAe7+2FvnoEKD4js6VBMmwNIEZM9GArTcFvpEOMk+FsDDRiDs4RMMbJcDYGGjEH5wgY42Q4GwONmLs65z6iffwxukKB7+26OkEnQlF2ud372i5d/3Ri9Yy/eUfdfypAaY/vNy1iV5FaKtrH1w4C/9MCxHZHfXnaIRTgwfvprq2LjScfDR+rfwJvbaurs/scd/tjXCfuux36ZJ29zx4Bis/IbGmQDFsDiBETPdhKU/Ab6RDjZDgbA42Yg3MEjHEynI2BRszBOQLGOBnOxkAj5q7O2U60j++WxwTcXoyJuC0T3XPdUezNQjUQsTsxKcJ63okfxWxJ+UCMu4WBzWP8QRnNr7loH8+jgGt2p104ugWM+QmFpY573L/wiYKFbaT8nB/t37EvI3UDxj0CFJ+R2dIgGbYGECMmerCVpuA30iHGyXA2BhoxB+cIGONkOBsDjZiDcwSMcTKcjYFGzF2ds7FoLxNiInbLHvteReat8NH2ZQe5eCd+XVBYhLrsVp8Q+nJe5qJ9fCqhYIFjEeDr+fiLCtO5BeJ/V8eJd/21g5VPvJ9H/iWP14/CPmhPINil/T0CFJ+R2dIgGbYGECMmerCVpuA30iHGyXA2BhoxB+cIGONkOBsDjZiDcwSMcTKcjYFGzF2ds6Fo18WiLxz5fpJRocD9EPn2CFB8RmZLg2TYGkCMmOjBVpqC30iHGCfD2RhoxBycI2CMk+FsDDRiDs4RMMbJcDYGGjF3dc6IdmV39xHF7/QEQX5n+hHbXtOmHgGKz8hsaZAMWwOIERM92EpT8BvpEONkOBsDjZiDcwSMcTKcjYFGzME5AsY4Gc7GQCPmrs4Z0f6eiPYa4fs+1z0aoN98FvxA32ffREI/noxPnQ1sdS5a6vswhobvXg+fbH648pPh9Xfa2aTTjp4rfuGcHlFTLuMqQ4n4Zb7KDBHJJo4ykIgj4igzRB4pjupEu/yg2Ml3v99nIUnbTz7mf2KB5PAFpyD4ckXwmSN0Ph+259nlavZgK23Cb65nbPLhbMMxZwXOOUI2+XC24ZizAuccIZt8ONtwzFm5Ouc7ifb1B85Sf5psyRt/yMz/Ebpg93SzOzTnzT9+Nj1GHv+hNAT3/QS3BeseAYrP3LR5Ph+259nlavZgK23Cb65nbPLhbMMxZwXOOUI2+XC24ZizAuccIZt8ONtwzFm5OmdT0e7/cnvRDrzs1Jf80nhih1Z8qn8LvNKuheDERv0CQY8AxWdu2jyfD9vz7HI1e7CVNuE31zM2+XC24ZizAuccIZt8ONtwzFmBc46QTT6cbTjmrFyd8ynRvv7pr/lPo42/bu7/mTTZWc/tdstOeq5MXvSpor30z6QlFgMQ3Hn292DUI0DxmZs2z+fD9jy7XM0ebKVN+M31jE0+nG045qzAOUfIJh/ONhxzVuCcI2STD2cbjjkrV+d8SrQvYm3cKf9o+HgnvnOifX1cfrdLHgjpze798lj8+ivqumh/M3zN+/bD0k8B0/cpvUeA4jM3bZ7Ph+15drmaPdhKm/Cb6xmbfDjbcMxZgXOOkE0+nG045qzAOUfIJh/ONhxzVq7OuUq0T4J6FdCrGBRRrqVPu7fjTv2Ll8MkuF8Onz657R9xn4XmXpTLDv1qe58/7xBf+G+br/3wGLvlNe3pEaD4zE2b5/Nhe55drmYPttIm/OZ6xiYfzjYcc1bgnCNkkw9nG445K3DOEbLJh7MNx5yVq3M+L9p3j8T7AnErrFfRNu+wz784vwrubfpa/s0s7L/wdo23tlcbvn/5bvP4vd8WvoeM2x/3CFB85qbN8/mwPc8uV7MHW2kTfnM9Y5MPZxuOOStwzhGyyYezDcecFTjnCNnkw9mGY87K1TmfFO2TyH72IvYn314Oz3Y/BCcierujHgpuOb55u+giksMykxgv2Gkf32uvf2ceod5emKcY9whQfOamzfP5sD3PLlezB1tpE35zPWOTD2cbjjkrcM4RssmHsw3HnBU45wjZ5MPZhmPOytU5nxLto7iW3fLYe+OyC78R7fqu916Qvxm+Dh5rn4R8+CffSkS77jMlEMnrK9A1/j0CFJ+5afN8PmzPs8vV7MFW2oTfXM/Y5MPZhmPOCpxzhGzy4WzDMWcFzjlCNvlwtuGYs3J1zidEu7eLHhPtXvpXr54On77TxaAq2oMfTcuVieYH4l8ThKTp/fJIXHoEKD5z0+b5fNieZ5er2YOttAm/uZ6xyYezDcecFTjnCNnkw9mGY84KnHOEbPLhbMMxZ+XqnE+Idk/oeeJ8K/SmR+Fv8mvv8/vr2/zJRlRwB8Jdq+vSojaibfPaf8CP88fnffn1CFB85qbN8/mwPc8uV7MHW2kTfnM9Y5MPZxuOOStwzhGyyYezDcecFTjnCNnkw9mGY87K1Tk3Eu1lwi4quLNi2lsUuN2GZ29Df/M797v0sBzHj74I0SNA8ZmbNs/nw/Y8u1zNHmylTfjN9YxNPpxtOOaswDlHyCYfzjYcc1bgnCNkkw9nG445K1fnXCfas+K6kyiWXfbNO/Wd2vGofN6jdvUIUHzmps3z+bA9zy5XswdbaRN+cz1jkw9nG445K3DOEbLJh7MNx5wVOOcI2eTD2YZjzsrVOX9wol127283fjX+0XfQS9vXI0DxmZs2z+fD9jy7XM0ebKVN+M31jE0+nG045qzAOUfIJh/ONhxzVuCcI2STD2cbjjkrV+f8wYn2UjFIuffj6YMeAYrP3LR5Ph+259nlavZgK23Cb65nbPLhbMMxZwXOOUI2+XC24ZizAuccIZt8ONtwzFm5OmdE+3v0qPgVFxp6BCg+c9Pm+XzYnmeXq9mDrbQJv7mescmHsw3HnBU45wjZ5MPZhmPOCpxzhGzy4WzDMWfl6pwR7Yj24ZEXA3oEKD5z0+b5fNieZ5er2YOttAm/uZ6xyYezDcecFTjnCNnkw9mGY84KnHOEbPLhbMMxZ+XqnBHtiHZEezBL9JgU8Bl0guEhbA1hKqZ68JVm4FfpjAZJcG4AVTEJZwVKgyQ4XQHChgAACkNJREFUN4CqmISzAqVBEpwbQFVMPgpnRDuiHdEeBGiP4MRn0AmGh7A1hKmY6sFXmoFfpTMaJMG5AVTFJJwVKA2S4NwAqmISzgqUBklwbgBVMfkonBHtiHZEexCgPYITn0EnGB7C1hCmYqoHX2kGfpXOaJAE5wZQFZNwVqA0SIJzA6iKSTgrUBokwbkBVMXko3DeiHZpFP9hwBhgDDAGGAOMAcYAY4AxwBhgDDAGGAOMgX5jwF9D2Ij2R/5BMtr2fvyJNut+koni3v/w2Y44bD8stnI2PfoUv+3GUWiZ/g2JtDmGcxuuoVU4h0TaHMO5DdfQKpxDIm2OH4Uzop3H43k8PojxHsGJz6ATDA9hawhTMdWDrzQDv0pnNEiCcwOoikk4K1AaJMG5AVTFJJwVKA2S4NwAqmLyUTgj2hHtiPYgQHsEJz6DTjA8hK0hTMVUD77SDPwqndEgCc4NoCom4axAaZAE5wZQFZNwVqA0SIJzA6iKyUfhjGhHtCPagwDtEZz4DDrB8BC2hjAVUz34SjPwq3RGgyQ4N4CqmISzAqVBEpwbQFVMwlmB0iAJzg2gKiYfhTOiHdGOaA8CtEdw4jPoBMND2BrCVEz14CvNwK/SGQ2S4NwAqmISzgqUBklwbgBVMQlnBUqDJDg3gKqYfBTOjUT7y+HZk+fDV++eDx+/eNlZFH4xfPrko+HTdx/OD7l9/uI2fPzqi85c78OzR6DgU5mxjJJgawRSMdODrTQDv0pnNEiCcwOoikk4K1AaJMG5AVTFJJwVKA2S4NwAqmLy6pyrRfvnLwJBPAv1r159NDx7+2bY5d99Z1tE+21si/Uvm5+3J216Ony+YTEvdGzSdGGcF+3TOd9utyH6XxZVCnydP0e97Uft9QhQfCozpVESbI1AKmZ6sJVm4FfpjAZJcG4AVTEJZwVKgyQ4N4CqmISzAqVBEpwbQFVMXp1zpWhXdrHvtbsufgp380Xk7sVrKJptRGaZKH05PLuF/rW0N4Msfuzbrp1PsHgSFeSPuIgRZ98jQPGpzJRGSbA1AqmY6cFWmoFfpTMaJMG5AVTFJJwVKA2S4NwAqmISzgqUBklwbgBVMXl1zvai/dvyHeMygTsJukW8ejvE2m7+Ui7YZX6sx8k1ga7tvs+iPfuKgdgrFO2y2LFbMIiL5iN91KJsjwDFpzJTGiXB1gikYqYHW2kGfpXOaJAE5wZQFZNwVqA0SIJzA6iKSTgrUBokwbkBVMXk1TlXinZNfGpplaLw7dPhNgvNcdfcE+4lQlGEfFa0j2JW28Fu8Gi9e0og2A3XXiUYFyHMRPu0y55lEbSrhHGrMj0CFJ/KTGmUBFsjkIqZHmylGfhVOqNBEpwbQFVMwlmB0iAJzg2gKibhrEBpkATnBlAVk1fnXCfaVfGpPDJfIwJHMb3dRT4q3MuEr76wIL7k3XxTUSqLEIoQl3aGvoraPjIKH7fft3m0dXDBw/S8T4yDHgGKT2WmNEqCrRFIxUwPttIM/Cqd0SAJzg2gKibhrEBpkATnBlAVk3BWoDRIgnMDqIrJq3OuEu0iArVdW018fj3ulus72dt3tn2BLrv2umg+JECjvn1fe5H79bfxBYjRf/AI/vY83LnuxXR0IUAR86MfReBvxLTUy4nxQmG/sXtCZFvX7xGg+FRmSqMk2BqBVMz0YCvNwK/SGQ2S4NwAqmISzgqUBklwbgBVMQlnBUqDJDg3gKqYvDrnCtEeF7SjQM8JzawgzD/KvRfuk8hXxXNO1KrtafCov7zzH32nPJWnLSpMabIIoC2eLAJ6flrh2Qv5Ubv9IsJSTmUQ93uPekcD9JvP3GLJ/PnZN0rYp5PwqfOBrc5FS30fxtDw3evhk83C4yfD6++0s0mnHT1X/MI5PaKmXMZVhhLxy3yVGSKSTRxlIBFHxFFmiDxSHJ0X7cqu8CriEoK+VBgm7a9CsuhR+bO7zFLvlNhf27cymdJkoSElsKO78DFuwiklxMd874mC8Dhm90HSD19wCoIvVwSfOULn82F7nl2uZg+20ib85nrGJh/ONhxzVuCcI2STD2cbjjkrcM4RssmHsw3HnJWrcz4p2mVH2BOCisAreqxbqReK3JLjUbindvbPivbChYOSNo5lStpRUmbmNjKOvD4g/qZ8ZWf9PRLuPQIUn7lp83w+bM+zy9XswVbahN9cz9jkw9mGY84KnHOEbPLhbMMxZwXOOUI2+XC24ZizcnXOp0R79nHsUVROj7eHP6xWLHAPCvr0DnX6sfNR9G8eEw0esXZ5qYWBbHvLeeQWIdb2KoJ8bIec7039sbuF/yjc9d8LWMpkzyn+RIGVjR4Bis/ctHk+H7bn2eVq9mArbcJvrmds8uFswzFnBc45Qjb5cLbhmLMC5xwhm3w423DMWbk65+Oi/cjuc4PHy8+JwfyTAefslovW3GPxW/9Ke2eRPb6vn1o8OLKLLmWNH//fnkc5n1i9HgGKz9y0eT4ftufZ5Wr2YCttwm+uZ2zy4WzDMWcFzjlCNvlwtuGYswLnHCGbfDjbcMxZuTrn46L9AXZfYwKP9HqR/GgMewQoPnPT5vl82J5nl6vZg620Cb+5nrHJh7MNx5wVOOcI2eTD2YZjzgqcc4Rs8uFswzFn5eqcEe0sQtj+DXpjnj0CFJ+5afN8PmzPs8vV7MFW2oTfXM/Y5MPZhmPOCpxzhGzy4WzDMWcFzjlCNvlwtuGYs3J1zoh2Y5H5aDvV73t7egQoPnPT5vl82J5nl6vZg620Cb+5nrHJh7MNx5wVOOcI2eTD2YZjzgqcc4Rs8uFswzFn5eqcEe2Idnbag1mix6SAz6ATDA9hawhTMdWDrzQDv0pnNEiCcwOoikk4K1AaJMG5AVTFJJwVKA2S4NwAqmLyUTgj2hHtiPYgQHsEJz6DTjA8hK0hTMVUD77SDPwqndEgCc4NoCom4axAaZAE5wZQFZNwVqA0SIJzA6iKyUfhjGhHtCPagwDtEZz4DDrB8BC2hjAVUz34SjPwq3RGgyQ4N4CqmISzAqVBEpwbQFVMwlmB0iAJzg2gKiYfhTOiHdGOaA8CtEdw4jPoBMND2BrCVEz14CvNwK/SGQ2S4NwAqmISzgqUBklwbgBVMQlnBUqDJDg3gKqYfBTOiHZEO6I9CNAewYnPoBMMD2FrCFMx1YOvNAO/Smc0SIJzA6iKSTgrUBokwbkBVMUknBUoDZLg3ACqYvJROG9EuzSK/zBgDDAGGAOMAcYAY4AxwBhgDDAGGAOMAcZAvzHgryEsot1P5DsEIAABCEAAAhCAAAQgAAEIQAAC/Qkg2vv3AS2AAAQgAAEIQAACEIAABCAAAQioBBDtKhYSIQABCEAAAhCAAAQgAAEIQAAC/Qkg2vv3AS2AAAQgAAEIQAACEIAABCAAAQioBBDtKhYSIQABCEAAAhCAAAQgAAEIQAAC/Qkg2vv3AS2AAAQgAAEIQAACEIAABCAAAQioBBDtKhYSIQABCEAAAhCAAAQgAAEIQAAC/Qn8L8cqJfHWo1GFAAAAAElFTkSuQmCC;" parent="J2_Xc6a70r_ZDQhd3KVH-39" vertex="1">
                    <mxGeometry x="-120" y="260" width="748.4" height="140" as="geometry"/>
                </mxCell>
                <mxCell id="J2_Xc6a70r_ZDQhd3KVH-41" value="" style="shape=image;verticalLabelPosition=bottom;labelBackgroundColor=#ffffff;verticalAlign=top;aspect=fixed;imageAspect=0;image=data:image/png,iVBORw0KGgoAAAANSUhEUgAAA+0AAAC8CAYAAAANfU/cAAAgAElEQVR4Ae2dT+slSVb373rexfMaZtELFy0uHofaCL0rcCFCrQYtKFzMypZmLBBErJU90ot+FgUzWE+BvXKYhQhNlyAoCDKbgRZ6MSrzHlJOZkZmZOSJP5lx4satyk9BcW/Gn3MiPxEnMr8Rmfd3G/gHAQhAAAIQgAAEIAABCEAAAhCAwEMSuD1kq2jUOQL//Yvh6fd/f/iLfztXnVoQgAAEIAABCEAAAhCAAAQg8FgEEO136Y//GP7i+78/fO/Q/y+Hfz7Ytv/6+z8bvvf9s/Ui7Xv1H8Pwb1/G2y75y7/pPLeLBv8z/OyPfn/43qbcMAwsMCzU+AIBCEAAAhCAAAQgAAEIQCBGoEy0jwLrz4af/XfMTJCeEnkb4Zq3OQrRP/rF8F+Bi/JDTUiW17YpGWnDyEkR2bH0ZGMi4jhZZ8ocGc+i2v/+z68UsT3b0xcItPOMtAvRXtAzFIEABCAAAQhAAAIQgAAErk6gjWjPUJ0EX9lj3GPZhGgXYfn07/8n7lFZcBjFqLd4sN0ZjpuSHNf23a55oo3DoInZYd7BNhLtuYWScKfbO83xnDKifdMPoy9twUU7T0S7h5qvEIAABCAAAQhAAAIQgAAEDhHwRPssrjwxuxOmkbxy0Tv7SArcbfs3YnGbNR3ldmzH/FkYz2W3j2pPQjMp/MXTIoonW77QlezxWPio4njyUcpzKqeIee38x7SJq3oOOT5+27X+dWL+v/9nWBc7NMEuDUG0R7uIDAhAAAIQgAAEIAABCEAAAicIeKI9UXsUfjGhlqi3ySoUx0PZ4oEvUCfBHBG5IrZlkSB1DqMgj9Qfhlmsbs9ff3R8bvtOuGti1i0EKH4z7dlgXUS3YkcKFtjyFyD87+o5jvZiTzdo5xlhUrCYEJ4nxxCAAAQgAAEIQAACEIAABK5G4C6iPSmqM8RFOPoCfSy+E+CJnWYRmX/0i+Fnmp3FtyY2p0y97Ql/6m5zxH5MUMfSl/Z6X5LiNyKYvery1Rfq/ncn2icGkR+q2/zwnXaekTYk2x00kEMIQAACEIAABCAAAQhAAAIXJbAR7WlxFhFtu11ln+Qs2LTHrr+/3bn2a63fp/r7x++ndF/MT21XdptFAL/6cviLzCP58cUB7d17TZyurXZid02JlI+J81j6anD+tuewKTLayXNO9vumf7f+ys5zqrN7bQDRvukqDiAAAQhAAAIQgAAEIAABCGgENqJdKzCm7Xa2oyXXjFmUfS8mzl1+SkxH/W7F4+Q0JYyV3fq1peM3TbSPYlZrX7Rdk9Gx3kbsTm0zf6ddRLnWvrEZs1iO8Q/O3x3uhbjLkU+fu8ZbS0O0+wT5DgEIQAACEIAABCAAAQhA4AiBJqJ9FH6bx6ZjTfJF4L5MVDTP4jHcgVcF57jbrO2Wb/1pol215x4nj4rl7ePmWy/BUfGOelCv4HDaPf9y+Jn87fZEW0NTsXOeynn9pbZdRHu4s49oDxlzDAEIQAACEIAABCAAAQhAoJTAXrS7HfDdI+2hGNNdaOJXLzmnRneLPYG4M6Dt6O4KTQmZXfGpkO5LP5ecb92W2jpV+KoljyWOdt1CxdRe/1WClLFS0a6yUVkj2lO8yYMABCAAAQhAAAIQgAAEIJAisBXto9jTxPkk/Nzj3aUC0P0JMFdv916ztCwmXGPpUkcVh5HTHMsq77pviutCXNvp19I2phSGoxDeLYJEfiPAL7d5xH7jJX4wnm/wOsCcFj6ZMBmZRbXv1/++aUNmQULtM0R7vLPIgQAEIAABCEAAAhCAAAQgkCawEe3xXVYRtauYX0ToRtCFjvY7vGO94FFtXQQXiMPATuj9yLHeBrc44Has3QLDymHnYxStgWDeFfISVJHr5R/9qgl2ZyMp3F2h+c/bRfs13S/6+EG0r3T5BgEIQAACEIAABCAAAQhA4BiBjWifdr0VURoRl5oIX9yPIjG0FexoR4TkTkSL/0Wkp4Xj4r/wy7QAEbbTqzy3cXpaQC83tnfcndbzPWvbrxGu20JlR64N+m76bCPC2/egC29XIsU+6FtXZf79gd1TFgVtWUzwBQIQgAAEIAABCEAAAhCAwEUJbEW7QNiIVPcI90ExOsLUd1idKJzEsrIrPfrf+3OidBTPi4A/22uTwJyEeO7R+ZiP+fzOiHVn0kS0u3MpPA/Xv5HddNcvyysN3hMW21+Pdycxfe4WWpZsfRy4cZZcZFhs8AUCEIAABCAAAQhAAAIQgMA1CexFuykHX9i6BYD5MyIaTd1vjAVtuZf/UZgH5+6/M575nhS1kQWOzWmrBxOL8bcJnIh37VAXRNzCgJzHfkHFiflkW8N2zH4P1QltcAwBCEAAAhCAAAQgAAEIQOADJzCK9h//5P8P687qeYGJDdidHQP/5//+8AMPNU4PAhCAAAQgAAEIQAACEIDAcQKNd9qPN4gaEIAABCAAAQhAAAIQgAAEIAABCEwEEO2MBAhAAAIQgAAEIAABCEAAAhCAwIMSQLQ/aMfQLAhAAAIQgAAEIAABCEAAAhCAAKKdMQABCEAAAhCAAAQgAAEIQAACEHhQAoj2B+0YmgUBCEAAAhCAAAQgAAEIQAACEEC0MwYgAAEIQAACEIAABCAAAQhAAAIPSmAR7T/5yU8G/sOAMcAYYAwwBhgDjAHGAGOAMcAYYAwwBhgDfceAv36wEe1ff/tm4D8MHmkMyGTxq9/8613/47Md715sf/7LYbjnfznP4Z/+867/e7CV2MRvu3jx576enO8ZO85XjxiSmO3J2e/ve33nfO8Xv25s3/OTOLpf/94rZn0/V4zfe8aP89UzjhDtLE68N4szPSYkfLa7yPVi6ybee332mOB7sJWbB/y2i5dHuTm7V9z4fnrEEKL9PmP5qvOGP77v9Z04us+Y5jp4P873ih3fT884QrQj2hHtid37HpMvPttN+MLWn3zv8b3HBN9jDF315tsX0/f63rN/7xEzoY8eMYRobzcPh3HSczyHbbnHsZxvOMbvcUwc3WdMX3E83yNuQh9XjCNEO6Id0Y5o77JD2uPC1mOSF588Ht/2ZqnHWJIbiCv6vYe4CH30iCFEe9uY9W/AiaP7vLJFHN1nTF9xPPvxfK/vwjm8VtzjuGccIdoR7Yh2RHsX8dHjwtZjku8xwfdge1URe68bFN9Pz/69x01R6KNHDCHa7yNwrjpvhGP8HsfE0X3GdM/52b9O3Ot7z/O9R9yEPnrGEaId0f5BiPa/+9FtuN28/7/358O7mBj/hx9OZX/0ZfZH7VKTUdbnv//58Lt+m+bvL/4hfeGo8unOLfSbOdcqnwHnlcvvDH/17/FzrfP55fAiPMfl+IfD3wVtchcv8RlOwO74r//YGz9i6wevh5+qP1r3zfAHi6+pzm/95a+jdsVnbKf9mz8MfP72q+HX3o/W7fI3fn8wvH6j/8Bdiu2vlHGpjcm1H9c2auUcW/m08Pvub3+nPJbnfk76ncs4u7/7t79Q497lr/NIfBy5c7bwO9n6xfBXvyec0zFj5Vfr21tqzvQ4u3iJff70Lz8Z+28fE78efvSDdSytnD8ZfvSP6Z1G4RyLIZf+6z/9wej3kz/9l3TZN6+GT1wc/eHbZNna/t2PqfX8Y+MwG0eF41ns7P2nx3TV+SrzytrHt+GWuAZV+Z15aGO6ar4q5LxjXBNHP/3xdu4bx6keHy7OVsY/Hv5avV6tsRWNo7/5E8Vv/Poy/NO/DK9/W8Zyqsx6bYr2r3q/sp8Dtb4tna/cnLn5LPLr5uQ1ZifW+/ZtbKeug0V+g3smP64SMSRtqOW8G8tunrzdhlPz1cHz3fvPz1fqdagkjv7x9fBb3vmtcTT39x9/c/ye7kAcafd2P/6bNWbcdc3/HOPXU+38ejwC/qEFfGxCchP6MqksE4Uf8MoEnJkAU5NgkU+ZbDcX8LUNS1vnGwN/0q86Tzn3jc9/HVxbz9w0ubpLe1W260VmO+mmL25V5/kbJ9r9Pl7b4fP0v4tPbZJ3gn0RGsukH9wIxdITN0vi05943Xc3aS8iY5nw/2T4xhPurvzyuZSL3zDF2K6C3XHTxmRp2p53nd91rJaON9e3Ub/LOFlvvBbbXuwt49bNCcuN0rkx/KtCv79a4sm1L+3P6nwlrjeCZmmHGxf7vhXfwlmLn5//smQhaxLtf/DTVUT8fLlx0oWJ8yV+l/G/iY23w4+DG68lnjbl3M1QUP60aHfzj+s3/abWjSttzLm+1D5rx/OvfqPFsN6nvv96v6GPtR1nrj9lcbT6WDlraWHbEiKnMH6PXh8d62gcyfVlIxbWuPLjZhHsrmxtHMk1ZRMLa5xshMRy7XHjPn4N8uM1Oq5k3nFz7jgfr3Hlz08185Vjvvks8juNIb8d6/UzPU/Xnu/a1pXHKCo3rA6M56LzXRf51jja+1jbtubVn29ZvIa+a+PIXV/WT29h2cWWcm8nfv3xvXwviiO34HUb1muVluauWevn6BfRzp91e6Q/65ZqizoxLDfX/s3mOgFsJtxg5Xx7sVgnIH9isPLpbLqbuFBYu3z5tPa5CINAzJv7nG/8f/dv/3zeBT9xYSvuT3cx8/td78PwPNcJehYPyw2PL9DXyXu9WXI3UGmBEdofJ9pQQCy7fb5AXyfuzY3Spu5a5hbsyi8XjsSfqtrdZEpMzP22jknHdivslrGbuHFQx+5vFDGu+c30fepGIubX73v13Dc3itvxGi+/jrM6v6udVZxs2+C33/9u59e1Qe9z36d8F7/h+A6Pdwtgyk3PWkeLM0/Uz3XFrz++te+7RbBN3MiNj4udPxlez7vyW6Gy3hw5+7WcXcykxm7I2HHW0v201Ph0fkuucb7N2vP1bY3f3dxy284lYbk6v/rYLWFQ5bdyvlpjYD/e/TwXT6uY169Drtyy8KzEnZyvG9u5TxdPeow4UV8p2ud7Mn88uHGdHrt6n/t25HtJ/7o6ZX7T95bOlo1f5+uHw1+5p88S116L83Ux02K+cmw0zs5vus/dtWr9FM5+rKS+u/hY40iJu2VT5jas9337cnVx5GLnNvj3ee5JMT3epmvT6BfRjmhPCeVHylMnQndTEAhSbWJwk8aRCcLKp/O9tCtor8uXT1ufbuLXd4Kc32qf7gZmvKi4C2pagNT5dD7civ/8WXBR203sbqIOHocPJ/lldyMot7MX3CzJee5ukNyORSC80zdK/zkMrl7msUSVrbf7tlnMcn23PJq9jpn1ce01bVM3uOmq8uti+bZdiFliJtG3ut/14i7j3NnZ3ZAs57/1u8wTR2M1YBL1uynnxnM6ZpLxurGXON+g3GhzYZAXV7nx7uImJR4WGy72bv6C2bmbJBc76+7FVoRP+ZPIKLlBkpitGlfq4+kyT+X7uM6vG0vpvnRjyf+s87uNN3+3P3czXud3nZtWtmva8flqex7R+K2cr5YYCK4X2/R1UWsRG+oi8zCUXJ+E8+5atFvc8he4bsEOvIspJzysRfvab8kxc2C+8sd3/Huh30ifh3ZLxvNUJ+53GnfTXLFcixLXQLFX63fxs3l6yWa+ip9v3Xy1jZf9tWPKV+JoF3clZSb7dXHkFo/lWuDiZ03zhXwYq6NfRDui/ZGEeaot2oS0TDLBjbW70GoT/1InMwHGJsGl/gGf44TlXWh2wsG7kTY5T8/XLRBB0+S5vTGp8zlPugsPNwmnJ/s6n9v2l94gis9wko/d7Djx4W6WluPNBU0m3vTOu/gMJ99FNBwS7e5GKXYj5W6oYmLD9UtwM7+MFb+/1rLru15bUVs6jtZd5IzfyA3REm+JeNXGUtg+NyfsYi/ndxnX4Zgru0mK+vVifmXk98HenzunqvPd+J18uDbm5gotfsJ4cnGSEu2ujIytVDlnW4uhMKZSot3Fm7shcsepXQ2xb815eaolI9yr/C7xPC9k+vNVIoZkbFX5DcbVEreZc7XxazlfbePOxcbheSPBWji7sZ38XBa1vJ2/JW270BW7jvn2xW8YN+rxsji83Q1cy7prkRMd67VnLbOmlYyrcW5b5uLgWhGMLdcnJfOVmzOTnxm/q7/05ofzUXu+LnbcgpM71u5nnU/5rPXr2xq/L1zS16Uqv5XzlT++o9+XmPHiKBDtS/xk7ufEh5yvNs53adE4cvHjz9H+U5dr7Pg2R7+IdkR7Sig/Up42MSyTWXBjvUyyyoVzqaPkhZOWlc/1XSgJ0rT4MfM5X+hSLNz5nvfpVor9c3I3UMcn+qVvDvSnO4eVcdyvnGc4sS+TdbCDvgiL+d2m8Hi0s1wM4sJdfPoTr3xfRMMB0b7UWVZn9Yld7Gv9uQrD4IZouWiu3JZ++NGXyw61E+/uRmLh7t1Q1fl142Z7Y+S3RfMpabpfo5vvYCz6bajy63Fb+2btA99P+N3O77ojL/27EyabNk6cw/gJj12clIjx+nfa1xiIivb5xsnfgV9iafMe72rLxaslZ9eHZ+djV999Oju7PlPi+ciiprMf+4z63YyVNZZzQkP81HL25wjXvvPzVeG84b337veB35YYQznfMG52x8u1JfhR1CW9kWj3hEb8FSwnOgxF+yIQb7vf5fE5+v3rc/fLuO8l42pdSEv7HW2qsbUdL1Kuyu/MwT+3kjFV7XcTv+s5LbwT98tV56sydfeV+R+w3MVNIMZ/vsRLEEebcu6Vk1vwmxL6zr2cr7tGRD8TceRff9x1y81XbmFZszv6RbQj2h9JmKfaok4MbqIPbqxTE03pBBidBI/6XCYlEez5m3Kr8xwvMjIRL/7jvs/79G7O/B0d/3tksj/vc72gLOd44Dx3k7yb1M+I9l+uj1TFRIqc524CdhN6sWh3N0n+j5fsRYbzo7ItfTzeje9gcWmJqSDW/D6o8jveNMTHk38T4/uU77rf7Thx7d/ZWeLDX3haf5Rnfdd/a6/a7+YmyZ13PEb9c646X8+vYzLeMETiNPS7i5/Nzc8wHBLtv1zLuydaNPtyvm5sxz7dzY8vzqXscoPkz0mb73HhYcXZZ7gwT/Cu8ruM52AsReLab1uVX29cLdfYYA7xffnfq/xGzmvhfHi+2sa5s7ObNyrnK22cL2numjSO0604Xxe6tumxxefFZskOobsujX5TO3/uehSPHT9Os/279GF6U8P1xZH5yh9nu++Ffv16Sxtq4jfhd40dfxfW/x7EtRd3Vpzveb7R+9OF0fa67LdNztcf37vvqTjyrltL7GRe03L2xa8/vnffU3G05G3jy12/4gtl02aMp9kHfj2eX49//349frlB8QN7XaXTdgWXSTEx6bqJQZ0Ej/hcJp4ywS5+q316k/h4HksbfEbbGxNbn2UCxNan94NqiRtF8ekm3uVTfUdwFePLD5K4C8BG3K8rtEs572IgPsTnblI/+EN0q/DYTvQ7u/P7iSrb2Hvdbny4m1t3HHJ06a5cOM5iY7fUr2Jv3SGM36hEYyaw52629jff+niNl19jJ8bZzR/yWWLn/jvt6xxZegPsOC9xE4xzl35MtK9xFlv0isZQ8C6uu+kJRbsWI0s83X2nfeW+H4dW42r14V//luveifg9Np5dPOWf3HB2q+LIzUuG85Vrl3yWxa/rO8c+P1+5eAk/VwEh9wxbYT6Vddec7dNdJXGnXovmOFpiIivYZbHYTrQv43L0G7tHcVxn8Vpw7yZ9lxpXZX5dv7rPtR1n4/eM36VO5rzfz/NdmZ6Zr8L4ccf5OHK76C6eyl7VEvtVcRQR7cvvFQUbOf71a/TrqXZEO6L9/RPt2kU1dhGfb+JLJ8DUpL+7kCs+Fz/Ji5G7GKyfsYm3xKeU2V5M1gkx9ZhijU//Bmf67m7a8jcu+7rKTVKM7eYCtp7n9vxXrq4/3aTuf+5ueJxA39w0rQJjEehqOXcxSP9oyU5kxCbzReDH3i/c77jH+nNd1XY3Rxo313/+WNLKbdk6vlqflvnd23Nj3r+Ya/aj5+sJd2dLGx9LrLoxtSzMnRvDfhtTftdyjnnanytfd77O13QDrPFwfsJP8evHjfZ9F0tO3I+LY4EIWeJnK0BCu+LXv3nRvu/iKRD1fp1FoDQV7cI56E9lLgsZy3Fd/3oLmItAr4zfwjiStrvxnnpCJTznuvNdx/M6lu93vv65uHMvma/CMS7HLnbGhbTN4vD2mrIIEvdnqZaF53Nx5GJn9JsQDWsM2Yh2x2v0u4zV8Dqw9q+UW/s4LLc/jo2rIr/jNcBdJ2fbS/wGce3FRyp+i/wGtsTe7vqklKn3az9fFZ+v47qMgfL4rYmjTcwl4i30EbselcWRix3/qcn1h+hSi86jX0Q7j8enHkl/pLzYBCyT1WZyEJG8BL+byNdJYLxAjEJ6XrXdlXV10jdPOZ/LROv78r7HLuw157lr0+wv5kvYpSb7MrYrr8meu8ieu7CV+NTZpv258wwnYHe8uWESbuokvgr3ZRy5GycnToLP2AQvN0CbSV587m6Y1sl8n7cX6+6mKjWGVgE9j3/1zzHp8VIzjkr87vs1uGk6eLOy7mCv57r0mxPos80zvuOcXQxk/LqbFW9ecO1Lsa7zm2ibtCMzH7p42X6uuxWu/cuni49FWARM1DjbipR4DK03QIs/xzIhyOtFe4LhMq4iZZb8cN5cj+v6d7azG1tl8+M0h69t2c7pQd8Ja/98PJ+p8Rv6qD9f6/kq0nfB+Z6ZM1LXod01yI3l8XMryBfhvpQJFsSC65DEayyOdtehxab0t/cI/LKwvB8HuXdxwz6X49j9yhTLbrwm+kLamZmvTvtdFm6Dc034c75i47nsfMPYMxbtm76Vc8tw9uP74PX30Pl6c8e2//c8fM7b69B03SiOo2XROP4DdZr96jha/vzodmylYkju7Ua/iHZE+yMJ81RbYhOhC+AWn/iMT5i1vHux1SbhlmnjRJvY9XNC2/KzB1sZD/htFy9+vPXk3DJWYrZ7xJC7SfK53+t7z/691zn6fq54vrGx3jKdOPrw52c/ru71vWf8toyXmO2eceRpdt5pTwlG8vovbvSYGPDZ7iLXi21sIm6V3mOC78FWbhDw2y5e/BuwnpxbxUnKbo8YQrTfZyxfdd5IjfdWecTRfcZ0z/nZv07c63vP820VKym7PeMI0c577A/9Hru/WNJjYsBnu4tcL7apybhFXo8Jvgfbq9583+vGyPfTs39bxEjOZo8YQrS3m/v9sXzVeSM35lvkE0f3GdM95+cwtu5x3PN8W8RJzmbPOEK0I9oR7ZH3dHrdTPSYAK/kMzchW+f3mOB79GeveMHvfW5EHWfr+Cix1yOGEO33HVcyvu79v+c8WTLurcsQR/cZYz3H1b1jyF0Xevm1jpESez3jCNGOaEe0J24Weky++Gx3YRW2JZOyZZkeE3yPMdT74t3rpuFqfi1jo9RWjxhCtLebh8OYueJ8VTr2LcsRR/cZ01ccz2FM3+NYOFvGR6mtnnGEaEe0I9oR7V3eRe5xYesxyfeY4HuwlYs0fj/8m8LSGxvLcj1iCNF+n7F81XnDMj5KbRFH9xnTXAfvx7l07FuW6xlHUdEujeI/DBgDjAHGAGOAMcAYYAwwBhgDjAHGAGOAMdBvDERFu/8DYHzv/8vp9MGbcRHJH7D3+C6T073/4bMdcdi2YyuWe/DFb9s+9a3Tvz6Ndt/h3I6tbxnOPo123+Hcjq1vGc4+jXbfH4XzzZ2iNAiRiFB/tDHQI1Dw6WYF+0/Y2jN1FnuwFd/4dT3Q9hPObfk663B2JNp+wrktX2cdzo5E2084t+XrrF+dM6Kd99sferGmR4Di002P9p+wtWfqLPZgK77x63qg7Sec2/J11uHsSLT9hHNbvs46nB2Jtp9wbsvXWb86Z0Q7oh3R7maD+bPHpIDPoBMMD2FrCFMx1YOvNAO/Smc0SIJzA6iKSTgrUBokwbkBVMUknBUoDZLg3ACqYvJROCPaEe2I9iBAewQnPoNOMDyErSFMxVQPvtIM/Cqd0SAJzg2gKibhrEBpkATnBlAVk3BWoDRIgnMDqIrJR+GMaEe0I9qDAO0RnPgMOsHwELaGMBVTPfhKM/CrdEaDJDg3gKqYhLMCpUESnBtAVUzCWYHSIAnODaAqJh+F8/1E+7vnw8e323DL/v9o+PRd5Q/Ceb4+fvXFRpR+/kLsfzF8+sTAD4J/w7bFj9j1CBR8KjOWURJsjUAqZnqwlWbgV+mMBklwbgBVMQlnBUqDJDg3gKqYhLMCpUESnBtAVUxenfM50e6J4qQIf/GyuajLCcWvXn00LxTMIl3a/uT58JV8PkD7cu2/en6PAMWnMlMaJcHWCKRipgdbaQZ+lc5okATnBlAVk3BWoDRIgnMDqIpJOCtQGiTBuQFUxeTVOZ8T7QU7zKNYRhR3X7R430V/jwDFpzJTGiXB1gikYqYHW2kGfpXOaJAE5wZQFZNwVqA0SIJzA6iKSTgrUBokwbkBVMXk1Tl/eKL97dPlEfxnbysfsy9YnHjfRfGjt79HgOJTmSmNkmBrBFIx04OtNAO/Smc0SIJzA6iKSTgrUBokwbkBVMUknBUoDZLg3ACqYvLqnO8k2l8Oz7Lvsvvvuz8dPq8WzPLe+mxTHocP7Y2P+Fv4YWGgpfDvEaD4VGZKoyTYGoFUzPRgK83Ar9IZDZLg3ACqYhLOCpQGSXBuAFUxCWcFSoMkODeAqpi8Ouc7ifaIsM0JZ2/XPPnu/O3oj8pNgj78kbqW4hPbkTEQLqYExz0CFJ/KTGmUBFsjkIqZHmylGfhVOqNBEpwbQFVMwlmB0iAJzg2gKibhrEBpkATnBlAVk1fn3F+0a7vggXCzFbzzDjzv278X79sfDdBvPvOf2LgNt8++UcI+nYRPnQ9sdS5a6vswhobvXg+fbJ6A+mR4/Z12Num0o+eKXzinR9SUy7jKUCJ+ma8yQ0SyiaMMJOKIOMoMkUeKo66i/f4/Vjc/po9gfy8EuyzWHL7gFARfrgg+c4TO58P2PLtczR5spU34zfWMTew7EM4AACAASURBVD6cbTjmrMA5R8gmH842HHNW4JwjZJMPZxuOOStX59xPtI+Pvh99rP3cI9Yi/j5/Me3A8kj8eYa2TzyUtaNHgOIzN22ez4fteXa5mj3YSpvwm+sZm3w423DMWYFzjpBNPpxtOOaswDlHyCYfzjYcc1auzvmcaC9911zd0V5/IK75r7v77VTbUiYce4hVfE590yNA8ZmbNs/nw/Y8u1zNHmylTfjN9YxNPpxtOOaswDlHyCYfzjYcc1bgnCNkkw9nG445K1fnfE60n33nfBbRbXe710WB2+EfqEPEP9piQY8AxWdu2jyfD9vz7HI1e7CVNuE31zM2+XC24ZizAuccIZt8ONtwzFmBc46QTT6cbTjmrFyd831F+1mxT7335h10a9HfI0DxmZs2z+fD9jy7XM0ebKVN+M31jE0+nG045qzAOUfIJh/ONhxzVuCcI2STD2cbjjkrV+eMaGdB4KEXBHoEKD5z0+b5fNieZ5er2YOttAm/uZ6xyYezDcecFTjnCNnkw9mGY84KnHOEbPLhbMMxZ+XqnBHtiHZEezBL9JgU8Bl0guEhbA1hKqZ68JVm4FfpjAZJcG4AVTEJZwVKgyQ4N4CqmISzAqVBEpwbQFVMPgpnRDuiHdEeBGiP4MRn0AmGh7A1hKmY6sFXmoFfpTMaJMG5AVTFJJwVKA2S4NwAqmISzgqUBklwbgBVMfkonBHtiHZEexCgPYITn0EnGB7C1hCmYqoHX2kGfpXOaJAE5wZQFZNwVqA0SIJzA6iKSTgrUBokwbkBVMXko3BGtCPaEe1BgPYITnwGnWB4CFtDmIqpHnylGfhVOqNBEpwbQFVMwlmB0iAJzg2gKibhrEBpkATnBlAVk4/CGdGOaEe0BwHaIzjxGXSC4SFsDWEqpnrwlWbgV+mMBklwbgBVMQlnBUqDJDg3gKqYhLMCpUESnBtAVUw+CmdEO6Id0R4EaI/gxGfQCYaHsDWEqZjqwVeagV+lMxokwbkBVMUknBUoDZLg3ACqYhLOCpQGSXBuAFUx+SicN6JdGsV/GDAGGAOMAcYAY4AxwBhgDDAGGAOMAcYAY6DfGPDXEDai/Wt2nR961/mK/SMTxb3/4bMdcdh+WGzlbHr0KX7bjaPQMv0bEmlzDOc2XEOrcA6JtDmGcxuuoVU4h0TaHD8KZ0Q7CxUPvVDRI1Dw2WbSE6uw/bDY9upT/LYbR6HlHjFL/4a90O6Y/m3H1rcMZ59Gu+9wbsfWtwxnn0a77yFnRDuiHdEexFsYJEF2k0N8NsE6GoVtO7ZiuQdf/LbtU986/evTaPcdzu3Y+pbh7NNo9x3O7dj6luHs02j3/VE4I9oR7Yj2IM57BCc+g04wPIStIUzFVA++0gz8Kp3RIAnODaAqJuGsQGmQBOcGUBWTcFagNEiCcwOoislH4dxGtL97Pnz85PnwlXy+ePnQorDZe+Jvnw43Ofe3T4ePX31xTQYGCyI9AgWfyoxllARbI5CKmR5spRn4VTqjQRKcG0BVTMJZgdIgCc4NoCom4axAaZAE5wZQFZNX52wg2r8YPn1y2wnTr159NDx7+2b4/MVHw6fv3txXtLpFA000ipi+3YabLCpo+afSXg7PbrfxfP1FgOnchc/T4fON3YmZ8HHlP38x1e/Ca9O2tU2ubeWfwsG2v3sEKD6VmdIoCbZGIBUzPdhKM/CrdEaDJDg3gKqYhLMCpUESnBtAVUzCWYHSIAnODaAqJq/OuV60jyK4TKiJMB0Fs4jm2P+NmJ7E7WGBnRDtn7+axfrb595iwiS6x53xEwJWFihut1CYp8TvXrR//e3L4VmrpxOkjzZcc20Lz2VuW5YNol2ZY4qSekxE+CzqmlOFrsJW4PQ4V/yeGpanKtG/p7AdrgTnw8hOVYDzKWyHK8H5MLJTFeB8CtvhSo/CuVK0z6I6JsCtdl3d7nipME6IdnlcPbbTPonvo7vws+CPMggFsAhmTbSnhHRdniyWlD+iL+cTtllLy/W9tzBTvGCwP88egYLPw/NZcQXYFqM6XLAHW2kkfg931akKcD6F7XAlOB9GdqoCnE9hO1wJzoeRnaoA51PYDle6Oucq0T6J3Mguuwjnnfjbi7LyR6/fjO+H30oWAlKifRbMqZ3nIzvn09MDocidzzO6w31P0X509zsm0MNzLDyHKIOysdAjQPF5eB4trgDbYlSHC/ZgK43E7+GuOlUBzqewHa4E58PITlWA8ylshyvB+TCyUxXgfArb4UpX53xetM871v572b4AH4Wv/yN0o4j3dl+jO9ORRYDso9meCAxE+/axfAP7c1uSixbfyvv8sR3u7S51jKHP8/T3o6I5YOf87t+1R7Qfnm0SFXpMRPhMdEhl1lXYCqYe54rfygF6oDr9ewBWRVE4V8A7UBXOB2BVFIVzBbwDVeF8AFZF0UfhfE60ZwS7e/y7/JFsJ7iP7gp7O9qJBQIrUSwi3Z1TTrCP76grP043ieCt4HWLCs62E8oWn9uFg61f1b70rc/SW6DYciyw9e2bYbd4c2Tx5ds3XQRBj+DEZ8VsmqkK2wygyuwefKXJ+K3suMLqcC4EVVkMzpUAC6vDuRBUZTE4VwIsrA7nQlCVxR6F83HRPu6YZ3arxzLh49ROmCc+I7u8qrhcxJ8i9E/ZSbRLfPnnNC5aZM4vucOtC95JvG/ZTosDJU8oaO1RHnX3z2NhuJ67tGErzue8nZjXzyHsq+2iweonLBc77hEo+Kyc3RLVYZuAU5nVg600Gb+VHVdYHc6FoCqLwbkSYGF1OBeCqiwG50qAhdXhXAiqstjVOR8X7YrQ2wquScyd2TU+LvBElCqPoFuL9lHoRsSsymNqlyp+x/IpwassQqg+8gI4tss9Lg4ou+nT0wGa+BdfygJAtl3159IjQPFZOasmqsM2AacyqwdbaTJ+KzuusDqcC0FVFoNzJcDC6nAuBFVZDM6VAAurw7kQVGWxq3M2Fu2TGE39yNtW4HvCcxTG213maFkRi7OQVhcHLEX7uKt+XLBrj5iv55MS7R6TrChOlU350MW0iHyV59yO6C58pJ3xxYFUu7d5PQIUn5WzaqI6bBNwKrN6sJUm47ey4wqrw7kQVGUxOFcCLKwO50JQlcXgXAmwsDqcC0FVFrs6Z0PRLkLw6J9LmwXaQWE8isHo++KzoK/4M2OTuJ4XIEp+rd6J1nkhIS3Y5ZxTgnorWlehfzA9+Xj+/K65z2hse2yXffZdUmZk4dhl7Dluic8eAYrPylk1UR22CTiVWT3YSpPxW9lxhdXhXAiqshicKwEWVodzIajKYnCuBFhYHc6FoCqLXZ1zvWifBbf87fP44+ARwbnULdhhX8re1B9K24rbM49yT2303yFP7Tr7/tY6BefhidrDvBLi1m+PfNd3xeeFFe+X+6c2lC8ipHfPPfvq4/eRcZA4rx4Bis/KWTVRHbYJOJVZPdhKk/Fb2XGF1eFcCKqyGJwrARZWh3MhqMpicK4EWFgdzoWgKotdnXOFaHcCrVSoToLN7ZKLyL9l/46781FSNhCEvsj3ROrkd/pht0U0ux3yo08KLPWO7iiXi+RQjGePlzZpP1637atxseHJ8+H/ZR6L3/qUPtna8ft0YZoQ4lt7Qb8F9XoEKD4rZ9VEddgm4FRm9WArTcZvZccVVodzIajKYnCuBFhYHc6FoCqLwbkSYGF1OBeCqix2dc4Voj0tto4IM8rCMjYGegQoPitn1UR12CbgVGb1YCtNxm9lxxVWh3MhqMpicK4EWFgdzoWgKovBuRJgYXU4F4KqLHZ1zoj2YGc3Jh5J77Ow0CNA8Vk5qyaqwzYBpzKrB1tpMn4rO66wOpwLQVUWg3MlwMLqcC4EVVkMzpUAC6vDuRBUZbGrc0a0I9qHR16QOBqg33wWvBbw2TeHpwh86shgq3PRUt+HMTR893r4ZPPq0CfD6++0s0mnHT1X/MI5PaKmXMZVhhLxy3yVGSKSTRxlIBFHxFFmiDxSHCHaEe0flGgviL1skcMXuazFfAF85hmdLQHbs+TK6vXgKy3Db1n/1JaCcy3BsvpwLuNUWwrOtQTL6sO5jFNtKTjXEiyr/yicT4t2/8fH/B93W78f/XG2Po9fP/IuM2170+XGvEdw4rNs4jxTCrZnqJXX6cFXWoff8j6qKQnnGnrldeFczqqmJJxr6JXXhXM5q5qScK6hV173UTifFu0pQSmCvvTPpaXskMdCRo9AwWf5RHa0JGyPEisv34OttA6/5X1UUxLONfTK68K5nFVNSTjX0CuvC+dyVjUl4VxDr7zu1Tk3EO37PwmG+EZ8nx0DPQIUn+UT6NGSsD1KrLx8D7bSOvyW91FNSTjX0CuvC+dyVjUl4VxDr7wunMtZ1ZSEcw298rpX52wu2sfH5l+8fOj3pM8KSOrdf/GhR4Dis3wCPVoStkeJlZfvwVZah9/yPqopCecaeuV14VzOqqYknGvoldeFczmrmpJwrqFXXvfqnG1F+9unw+3Gu+yIeztx3yNA8Vk+gR4tCdujxMrL92ArrcNveR/VlIRzDb3yunAuZ1VTEs419MrrwrmcVU1JONfQK697dc6Gop3H4hHrdmLdsewRoPgsn0CPloTtUWLl5Xuwldbht7yPakrCuYZeeV04l7OqKQnnGnrldeFczqqmJJxr6JXXvTpnI9Eugv02PHshO+0fDZ++sxdvTsTxeS22PQIUn+UT6NGSsD1KrLx8D7bSOvyW91FNSTjX0CuvC+dyVjUl4VxDr7wunMtZ1ZSEcw298rpX51wv2t89Hz4Wwf52FpPhMX8Hnff7K8ZAjwDFZ/kEerQkbI8SKy/fg620Dr/lfVRTEs419MrrwrmcVU1JONfQK68L53JWNSXhXEOvvO7VOdeJ9vEddmVnHeGOUK8Q6v7TFD0CFJ/lE+jRkrA9Sqy8fA+20jr8lvdRTUk419ArrwvnclY1JeFcQ6+8LpzLWdWUhHMNvfK6V+d8UrR/MXz65DbcnjwfvoqJs1m48/far/U4uy+4Lb73CFB8lk+gR0vC9iix8vI92Err8FveRzUl4VxDr7wunMtZ1ZSEcw298rpwLmdVUxLONfTK616d83HRfmQXfSzLr8lbiNer2ugRoPgsn0CPloTtUWLl5Xuwldbht7yPakrCuYZeeV04l7OqKQnnGnrldeFczqqmJJxr6JXXvTrn46I9trNOOo/ENxgDPQIUn+UT6NGSsD1KrLx8D7bSOvyW91FNSTjX0CuvC+dyVjUl4VxDr7wunMtZ1ZSEcw298rpX54xobyA0r7or3uK8ewQoPssn0KMlYXuUWHn5Hmyldfgt76OaknCuoVdeF87lrGpKwrmGXnldOJezqikJ5xp65XWvzhnRjmh/6CcEegQoPssn0KMlYXuUWHn5Hmyldfgt76OaknCuoVdeF87lrGpKwrmGXnldOJezqikJ5xp65XWvzhnRjmhHtAfzRY9JAZ9BJxgewtYQpmKqB19pBn6VzmiQBOcGUBWTcFagNEiCcwOoikk4K1AaJMG5AVTF5KNwRrQj2hHtQYD2CE58Bp1geAhbQ5iKqR58pRn4VTqjQRKcG0BVTMJZgdIgCc4NoCom4axAaZAE5wZQFZOPwhnRjmhHtAcB2iM48Rl0guEhbA1hKqZ68JVm4FfpjAZJcG4AVTEJZwVKgyQ4N4CqmISzAqVBEpwbQFVMPgpnRDuiHdEeBGiP4MRn0AmGh7A1hKmY6sFXmoFfpTMaJMG5AVTFJJwVKA2S4NwAqmISzgqUBklwbgBVMfkonBHtiHZEexCgPYITn0EnGB7C1hCmYqoHX2kGfpXOaJAE5wZQFZNwVqA0SIJzA6iKSTgrUBokwbkBVMXko3DeiHZpFP9hwBhgDDAGGAOMAcYAY4AxwBhgDDAGGAOMgX5jwF9D2Ij2Fn9nG5tvHnon+9H7RyaKe//DZzvisP2w2MrZ9OhT/LYbR6Fl+jck0uYYzm24hlbhHBJpcwznNlxDq3AOibQ5fhTOiHYej3/oRYUegYLPNpOeWIXth8W2V5/it904Ci33iFn6N+yFdsf0bzu2vmU4+zTafYdzO7a+ZTj7NNp9Dzkj2hHtiPYg3sIgCbKbHOKzCdbRKGzbsRXLPfjit22f+tbpX59Gu+9wbsfWtwxnn0a773Bux9a3DGefRrvvj8IZ0Y5oR7QHcd4jOPEZdILhIWwNYSqmevCVZuBX6YwGSXBuAFUxCWcFSoMkODeAqpiEswKlQRKcG0BVTD4K52uK9nfPh49vt+H25PnwFaId0R4EaI/gxGfQCYaHsDWEqZjqwVeagV+lMxokwbkBVMUknBUoDZLg3ACqYhLOCpQGSXBuAFUx+SicjUT7F8OnTz4aPn33fvzo2levng+fi1h/+3R49ta1Wc7h5h279DfDV68+Gm4vXpqKW3ObshBxehHi5fBMFjFiCxlvn5qff+kP4PUIFHwqM5ZREmyNQCpmerCVZuBX6YwGSXBuAFUxCWcFSoMkODeAqpiEswKlQRKcG0BVTF6ds6Fo1wVvqTjTy01C+siO+OcvZvHpRGjqcyNyG4j2cUdfX8w4KtrH8ren02KDe1IgdW5LnudfxPeS7nOa7UaeOhDfH7/6Ylq02Pj2bAd1p/aW+9D7/00XQdBjUsCnMjsbJcHWCGTETA++0hT8RjrEOBnOxkAj5uAcAWOcDGdjoBFzcI6AMU6GszHQiLlH4Wwk2t8MulhOi8GYUNulL2LTwp7sKmti01i0z+J23clfd+7l/A6J9tFW5tylzGYRYutvx1REdmEdaaucxyTEvXaUtGsU88LcqxcIfLVtc5kegYLPyKxlkAxbA4gREz3YSlPwG+kQ42Q4GwONmINzBIxxMpyNgUbMwTkCxjgZzsZAI+auzvmUaN/vok47qstubEqUFQpFVciN4l0T3AUC1bUpFJrLgoC/K5z6XuB/9JF+8uCIaJcFkZ34L2z3Wm9+akHdaQ/ONxD/o/9X+qKAnEe+32MLJfl+6xGg+IzMlgbJsDWAGDHRg600Bb+RDjFOhrMx0Ig5OEfAGCfD2RhoxBycI2CMk+FsDDRi7uqcT4l2TVCXiTcRaSIeJ+Griv9AMGq+qtJE7Ko+bHba3TmtYlkXpq7c+Lh66n35cJHBLT68fboVy8piiCb2N/0U1NnkOT/fylMUHw0fx36zQHim2i92ChYxYn3aI0DxGZktDZJhawAxYqIHW2kKfiMdYpwMZ2OgEXNwjoAxToazMdCIOThHwBgnw9kYaMTc1Tmbiva0ePN+7Gze7d3u0MZFc0zQLeklwnEWoTFhOi0mKDvapY+yezvf2/NKiPZZ7C4CXhO/sXPz/OnvqU+7527xYPFRstN+u20WBMZXH9SFjsJH7Oe2lnBZ+nTurx4Bis/IbGmQDFsDiBETPdhKU/Ab6RDjZDgbA42Yg3MEjHEynI2BRszBOQLGOBnOxkAj5q7O2Uy0yy+x6+Jx/zi5KpylfkwYeru+oaj7+tsjj16nysYXDUbBqwnqcRfaPVo+nacI3BJxqtpUxK3KSnjccac92gZpR7Bbv++fmas8Xn/ivfYeAYrPyGxpkAxbA4gREz3YSlPwG+kQ42Q4GwONmINzBIxxMpyNgUbMwTkCxjgZzsZAI+auzvmEaN/vmC9ivVR0izj1RfD4+PSZHyqb2lIikkVMqkJ5WRCIi/a9EJ/KjucdnPO+bH6nPRS6vg3/+6ZcdJHELSJsd9pd3Y0ADwT3Jm/hMnGLMg770qs3+pT8mVH0XMI63nGPAMVnZLY0SIatAcSIiR5spSn4jXSIcTKcjYFGzME5AsY4Gc7GQCPm4BwBY5wMZ2OgEXNX53xCtOsidHpvuVB4b8SiCOD9brwTmdHPUeiX7WqLjVGwn9jpnc6rvH2lwjS9gLAyjgnpHZcN07X+Wi6x2BI+Mh8sRKw29nbT5xs+2RAe7+2FvnoEKD4js6VBMmwNIEZM9GArTcFvpEOMk+FsDDRiDs4RMMbJcDYGGjEH5wgY42Q4GwONmLs65z6iffwxukKB7+26OkEnQlF2ud372i5d/3Ri9Yy/eUfdfypAaY/vNy1iV5FaKtrH1w4C/9MCxHZHfXnaIRTgwfvprq2LjScfDR+rfwJvbaurs/scd/tjXCfuux36ZJ29zx4Bis/IbGmQDFsDiBETPdhKU/Ab6RDjZDgbA42Yg3MEjHEynI2BRszBOQLGOBnOxkAj5q7O2U60j++WxwTcXoyJuC0T3XPdUezNQjUQsTsxKcJ63okfxWxJ+UCMu4WBzWP8QRnNr7loH8+jgGt2p104ugWM+QmFpY573L/wiYKFbaT8nB/t37EvI3UDxj0CFJ+R2dIgGbYGECMmerCVpuA30iHGyXA2BhoxB+cIGONkOBsDjZiDcwSMcTKcjYFGzF2ds7FoLxNiInbLHvteReat8NH2ZQe5eCd+XVBYhLrsVp8Q+nJe5qJ9fCqhYIFjEeDr+fiLCtO5BeJ/V8eJd/21g5VPvJ9H/iWP14/CPmhPINil/T0CFJ+R2dIgGbYGECMmerCVpuA30iHGyXA2BhoxB+cIGONkOBsDjZiDcwSMcTKcjYFGzF2ds6Fo18WiLxz5fpJRocD9EPn2CFB8RmZLg2TYGkCMmOjBVpqC30iHGCfD2RhoxBycI2CMk+FsDDRiDs4RMMbJcDYGGjF3dc6IdmV39xHF7/QEQX5n+hHbXtOmHgGKz8hsaZAMWwOIERM92EpT8BvpEONkOBsDjZiDcwSMcTKcjYFGzME5AsY4Gc7GQCPmrs4Z0f6eiPYa4fs+1z0aoN98FvxA32ffREI/noxPnQ1sdS5a6vswhobvXg+fbH648pPh9Xfa2aTTjp4rfuGcHlFTLuMqQ4n4Zb7KDBHJJo4ykIgj4igzRB4pjupEu/yg2Ml3v99nIUnbTz7mf2KB5PAFpyD4ckXwmSN0Ph+259nlavZgK23Cb65nbPLhbMMxZwXOOUI2+XC24ZizAuccIZt8ONtwzFm5Ouc7ifb1B85Sf5psyRt/yMz/Ebpg93SzOzTnzT9+Nj1GHv+hNAT3/QS3BeseAYrP3LR5Ph+259nlavZgK23Cb65nbPLhbMMxZwXOOUI2+XC24ZizAuccIZt8ONtwzFm5OmdT0e7/cnvRDrzs1Jf80nhih1Z8qn8LvNKuheDERv0CQY8AxWdu2jyfD9vz7HI1e7CVNuE31zM2+XC24ZizAuccIZt8ONtwzFmBc46QTT6cbTjmrFyd8ynRvv7pr/lPo42/bu7/mTTZWc/tdstOeq5MXvSpor30z6QlFgMQ3Hn292DUI0DxmZs2z+fD9jy7XM0ebKVN+M31jE0+nG045qzAOUfIJh/ONhxzVuCcI2STD2cbjjkrV+d8SrQvYm3cKf9o+HgnvnOifX1cfrdLHgjpze798lj8+ivqumh/M3zN+/bD0k8B0/cpvUeA4jM3bZ7Ph+15drmaPdhKm/Cb6xmbfDjbcMxZgXOOkE0+nG045qzAOUfIJh/ONhxzVq7OuUq0T4J6FdCrGBRRrqVPu7fjTv2Ll8MkuF8Onz657R9xn4XmXpTLDv1qe58/7xBf+G+br/3wGLvlNe3pEaD4zE2b5/Nhe55drmYPttIm/OZ6xiYfzjYcc1bgnCNkkw9nG445K3DOEbLJh7MNx5yVq3M+L9p3j8T7AnErrFfRNu+wz784vwrubfpa/s0s7L/wdo23tlcbvn/5bvP4vd8WvoeM2x/3CFB85qbN8/mwPc8uV7MHW2kTfnM9Y5MPZxuOOStwzhGyyYezDcecFTjnCNnkw9mGY87K1TmfFO2TyH72IvYn314Oz3Y/BCcierujHgpuOb55u+giksMykxgv2Gkf32uvf2ceod5emKcY9whQfOamzfP5sD3PLlezB1tpE35zPWOTD2cbjjkrcM4RssmHsw3HnBU45wjZ5MPZhmPOytU5nxLto7iW3fLYe+OyC78R7fqu916Qvxm+Dh5rn4R8+CffSkS77jMlEMnrK9A1/j0CFJ+5afN8PmzPs8vV7MFW2oTfXM/Y5MPZhmPOCpxzhGzy4WzDMWcFzjlCNvlwtuGYs3J1zidEu7eLHhPtXvpXr54On77TxaAq2oMfTcuVieYH4l8ThKTp/fJIXHoEKD5z0+b5fNieZ5er2YOttAm/uZ6xyYezDcecFTjnCNnkw9mGY84KnHOEbPLhbMMxZ+XqnE+Idk/oeeJ8K/SmR+Fv8mvv8/vr2/zJRlRwB8Jdq+vSojaibfPaf8CP88fnffn1CFB85qbN8/mwPc8uV7MHW2kTfnM9Y5MPZxuOOStwzhGyyYezDcecFTjnCNnkw9mGY87K1Tk3Eu1lwi4quLNi2lsUuN2GZ29Df/M797v0sBzHj74I0SNA8ZmbNs/nw/Y8u1zNHmylTfjN9YxNPpxtOOaswDlHyCYfzjYcc1bgnCNkkw9nG445K1fnXCfas+K6kyiWXfbNO/Wd2vGofN6jdvUIUHzmps3z+bA9zy5XswdbaRN+cz1jkw9nG445K3DOEbLJh7MNx5wVOOcI2eTD2YZjzsrVOX9wol127283fjX+0XfQS9vXI0DxmZs2z+fD9jy7XM0ebKVN+M31jE0+nG045qzAOUfIJh/ONhxzVuCcI2STD2cbjjkrV+f8wYn2UjFIuffj6YMeAYrP3LR5Ph+259nlavZgK23Cb65nbPLhbMMxZwXOOUI2+XC24ZizAuccIZt8ONtwzFm5OmdE+3v0qPgVFxp6BCg+c9Pm+XzYnmeXq9mDrbQJv7mescmHsw3HnBU45wjZ5MPZhmPOCpxzhGzy4WzDMWfl6pwR7Yj24ZEXA3oEKD5z0+b5fNieZ5er2YOttAm/uZ6xyYezDcecFTjnCNnkw9mGY84KnHOEbPLhbMMxZ+XqnBHtiHZEezBL9JgU8Bl0guEhbA1hKqZ68JVm4FfpjAZJcG4AVTEJZwVKgyQ4XQHChgAACkNJREFUN4CqmISzAqVBEpwbQFVMPgpnRDuiHdEeBGiP4MRn0AmGh7A1hKmY6sFXmoFfpTMaJMG5AVTFJJwVKA2S4NwAqmISzgqUBklwbgBVMfkonBHtiHZEexCgPYITn0EnGB7C1hCmYqoHX2kGfpXOaJAE5wZQFZNwVqA0SIJzA6iKSTgrUBokwbkBVMXko3DeiHZpFP9hwBhgDDAGGAOMAcYAY4AxwBhgDDAGGAOMgX5jwF9D2Ij2R/5BMtr2fvyJNut+koni3v/w2Y44bD8stnI2PfoUv+3GUWiZ/g2JtDmGcxuuoVU4h0TaHMO5DdfQKpxDIm2OH4Uzop3H43k8PojxHsGJz6ATDA9hawhTMdWDrzQDv0pnNEiCcwOoikk4K1AaJMG5AVTFJJwVKA2S4NwAqmLyUTgj2hHtiPYgQHsEJz6DTjA8hK0hTMVUD77SDPwqndEgCc4NoCom4axAaZAE5wZQFZNwVqA0SIJzA6iKyUfhjGhHtCPagwDtEZz4DDrB8BC2hjAVUz34SjPwq3RGgyQ4N4CqmISzAqVBEpwbQFVMwlmB0iAJzg2gKiYfhTOiHdGOaA8CtEdw4jPoBMND2BrCVEz14CvNwK/SGQ2S4NwAqmISzgqUBklwbgBVMQlnBUqDJDg3gKqYfBTOjUT7y+HZk+fDV++eDx+/eNlZFH4xfPrko+HTdx/OD7l9/uI2fPzqi85c78OzR6DgU5mxjJJgawRSMdODrTQDv0pnNEiCcwOoikk4K1AaJMG5AVTFJJwVKA2S4NwAqmLy6pyrRfvnLwJBPAv1r159NDx7+2bY5d99Z1tE+21si/Uvm5+3J216Ony+YTEvdGzSdGGcF+3TOd9utyH6XxZVCnydP0e97Uft9QhQfCozpVESbI1AKmZ6sJVm4FfpjAZJcG4AVTEJZwVKgyQ4N4CqmISzAqVBEpwbQFVMXp1zpWhXdrHvtbsufgp380Xk7sVrKJptRGaZKH05PLuF/rW0N4Msfuzbrp1PsHgSFeSPuIgRZ98jQPGpzJRGSbA1AqmY6cFWmoFfpTMaJMG5AVTFJJwVKA2S4NwAqmISzgqUBklwbgBVMXl1zvai/dvyHeMygTsJukW8ejvE2m7+Ui7YZX6sx8k1ga7tvs+iPfuKgdgrFO2y2LFbMIiL5iN91KJsjwDFpzJTGiXB1gikYqYHW2kGfpXOaJAE5wZQFZNwVqA0SIJzA6iKSTgrUBokwbkBVMXk1TlXinZNfGpplaLw7dPhNgvNcdfcE+4lQlGEfFa0j2JW28Fu8Gi9e0og2A3XXiUYFyHMRPu0y55lEbSrhHGrMj0CFJ/KTGmUBFsjkIqZHmylGfhVOqNBEpwbQFVMwlmB0iAJzg2gKibhrEBpkATnBlAVk1fnXCfaVfGpPDJfIwJHMb3dRT4q3MuEr76wIL7k3XxTUSqLEIoQl3aGvoraPjIKH7fft3m0dXDBw/S8T4yDHgGKT2WmNEqCrRFIxUwPttIM/Cqd0SAJzg2gKibhrEBpkATnBlAVk3BWoDRIgnMDqIrJq3OuEu0iArVdW018fj3ulus72dt3tn2BLrv2umg+JECjvn1fe5H79bfxBYjRf/AI/vY83LnuxXR0IUAR86MfReBvxLTUy4nxQmG/sXtCZFvX7xGg+FRmSqMk2BqBVMz0YCvNwK/SGQ2S4NwAqmISzgqUBklwbgBVMQlnBUqDJDg3gKqYvDrnCtEeF7SjQM8JzawgzD/KvRfuk8hXxXNO1KrtafCov7zzH32nPJWnLSpMabIIoC2eLAJ6flrh2Qv5Ubv9IsJSTmUQ93uPekcD9JvP3GLJ/PnZN0rYp5PwqfOBrc5FS30fxtDw3evhk83C4yfD6++0s0mnHT1X/MI5PaKmXMZVhhLxy3yVGSKSTRxlIBFHxFFmiDxSHJ0X7cqu8CriEoK+VBgm7a9CsuhR+bO7zFLvlNhf27cymdJkoSElsKO78DFuwiklxMd874mC8Dhm90HSD19wCoIvVwSfOULn82F7nl2uZg+20ib85nrGJh/ONhxzVuCcI2STD2cbjjkrcM4RssmHsw3HnJWrcz4p2mVH2BOCisAreqxbqReK3JLjUbindvbPivbChYOSNo5lStpRUmbmNjKOvD4g/qZ8ZWf9PRLuPQIUn7lp83w+bM+zy9XswVbahN9cz9jkw9mGY84KnHOEbPLhbMMxZwXOOUI2+XC24ZizcnXOp0R79nHsUVROj7eHP6xWLHAPCvr0DnX6sfNR9G8eEw0esXZ5qYWBbHvLeeQWIdb2KoJ8bIec7039sbuF/yjc9d8LWMpkzyn+RIGVjR4Bis/ctHk+H7bn2eVq9mArbcJvrmds8uFswzFnBc45Qjb5cLbhmLMC5xwhm3w423DMWbk65+Oi/cjuc4PHy8+JwfyTAefslovW3GPxW/9Ke2eRPb6vn1o8OLKLLmWNH//fnkc5n1i9HgGKz9y0eT4ftufZ5Wr2YCttwm+uZ2zy4WzDMWcFzjlCNvlwtuGYswLnHCGbfDjbcMxZuTrn46L9AXZfYwKP9HqR/GgMewQoPnPT5vl82J5nl6vZg620Cb+5nrHJh7MNx5wVOOcI2eTD2YZjzgqcc4Rs8uFswzFn5eqcEe0sQtj+DXpjnj0CFJ+5afN8PmzPs8vV7MFW2oTfXM/Y5MPZhmPOCpxzhGzy4WzDMWcFzjlCNvlwtuGYs3J1zoh2Y5H5aDvV73t7egQoPnPT5vl82J5nl6vZg620Cb+5nrHJh7MNx5wVOOcI2eTD2YZjzgqcc4Rs8uFswzFn5eqcEe2Idnbag1mix6SAz6ATDA9hawhTMdWDrzQDv0pnNEiCcwOoikk4K1AaJMG5AVTFJJwVKA2S4NwAqmLyUTgj2hHtiPYgQHsEJz6DTjA8hK0hTMVUD77SDPwqndEgCc4NoCom4axAaZAE5wZQFZNwVqA0SIJzA6iKyUfhjGhHtCPagwDtEZz4DDrB8BC2hjAVUz34SjPwq3RGgyQ4N4CqmISzAqVBEpwbQFVMwlmB0iAJzg2gKiYfhTOiHdGOaA8CtEdw4jPoBMND2BrCVEz14CvNwK/SGQ2S4NwAqmISzgqUBklwbgBVMQlnBUqDJDg3gKqYfBTOiHZEO6I9CNAewYnPoBMMD2FrCFMx1YOvNAO/Smc0SIJzA6iKSTgrUBokwbkBVMUknBUoDZLg3ACqYvJROG9EuzSK/zBgDDAGGAOMAcYAY4AxwBhgDDAGGAOMAcZAvzHgryEsot1P5DsEIAABCEAAAhCAAAQgAAEIQAAC/Qkg2vv3AS2AAAQgAAEIQAACEIAABCAAAQioBBDtKhYSIQABCEAAAhCAAAQgAAEIQAAC/Qkg2vv3AS2AAAQgAAEIQAACEIAABCAAAQioBBDtKhYSIQABCEAAAhCAAAQgAAEIQAAC/Qkg2vv3AS2AAAQgAAEIQAACEIAABCAAAQioBBDtKhYSIQABCEAAAhCAAAQgAAEIQAAC/Qn8L8cqJfHWo1GFAAAAAElFTkSuQmCC;" parent="J2_Xc6a70r_ZDQhd3KVH-39" vertex="1">
                    <mxGeometry x="-120" y="560" width="748.4" height="140" as="geometry"/>
                </mxCell>
                <mxCell id="J2_Xc6a70r_ZDQhd3KVH-42" value="" style="shape=image;verticalLabelPosition=bottom;labelBackgroundColor=#ffffff;verticalAlign=top;aspect=fixed;imageAspect=0;image=data:image/png,iVBORw0KGgoAAAANSUhEUgAAA+0AAAC8CAYAAAANfU/cAAAgAElEQVR4Ae2dT+slSVb373rexfMaZtELFy0uHofaCL0rcCFCrQYtKFzMypZmLBBErJU90ot+FgUzWE+BvXKYhQhNlyAoCDKbgRZ6MSrzHlJOZkZmZOSJP5lx4satyk9BcW/Gn3MiPxEnMr8Rmfd3G/gHAQhAAAIQgAAEIAABCEAAAhCAwEMSuD1kq2jUOQL//Yvh6fd/f/iLfztXnVoQgAAEIAABCEAAAhCAAAQg8FgEEO136Y//GP7i+78/fO/Q/y+Hfz7Ytv/6+z8bvvf9s/Ui7Xv1H8Pwb1/G2y75y7/pPLeLBv8z/OyPfn/43qbcMAwsMCzU+AIBCEAAAhCAAAQgAAEIQCBGoEy0jwLrz4af/XfMTJCeEnkb4Zq3OQrRP/rF8F+Bi/JDTUiW17YpGWnDyEkR2bH0ZGMi4jhZZ8ocGc+i2v/+z68UsT3b0xcItPOMtAvRXtAzFIEABCAAAQhAAAIQgAAErk6gjWjPUJ0EX9lj3GPZhGgXYfn07/8n7lFZcBjFqLd4sN0ZjpuSHNf23a55oo3DoInZYd7BNhLtuYWScKfbO83xnDKifdMPoy9twUU7T0S7h5qvEIAABCAAAQhAAAIQgAAEDhHwRPssrjwxuxOmkbxy0Tv7SArcbfs3YnGbNR3ldmzH/FkYz2W3j2pPQjMp/MXTIoonW77QlezxWPio4njyUcpzKqeIee38x7SJq3oOOT5+27X+dWL+v/9nWBc7NMEuDUG0R7uIDAhAAAIQgAAEIAABCEAAAicIeKI9UXsUfjGhlqi3ySoUx0PZ4oEvUCfBHBG5IrZlkSB1DqMgj9Qfhlmsbs9ff3R8bvtOuGti1i0EKH4z7dlgXUS3YkcKFtjyFyD87+o5jvZiTzdo5xlhUrCYEJ4nxxCAAAQgAAEIQAACEIAABK5G4C6iPSmqM8RFOPoCfSy+E+CJnWYRmX/0i+Fnmp3FtyY2p0y97Ql/6m5zxH5MUMfSl/Z6X5LiNyKYvery1Rfq/ncn2icGkR+q2/zwnXaekTYk2x00kEMIQAACEIAABCAAAQhAAAIXJbAR7WlxFhFtu11ln+Qs2LTHrr+/3bn2a63fp/r7x++ndF/MT21XdptFAL/6cviLzCP58cUB7d17TZyurXZid02JlI+J81j6anD+tuewKTLayXNO9vumf7f+ys5zqrN7bQDRvukqDiAAAQhAAAIQgAAEIAABCGgENqJdKzCm7Xa2oyXXjFmUfS8mzl1+SkxH/W7F4+Q0JYyV3fq1peM3TbSPYlZrX7Rdk9Gx3kbsTm0zf6ddRLnWvrEZs1iO8Q/O3x3uhbjLkU+fu8ZbS0O0+wT5DgEIQAACEIAABCAAAQhA4AiBJqJ9FH6bx6ZjTfJF4L5MVDTP4jHcgVcF57jbrO2Wb/1pol215x4nj4rl7ePmWy/BUfGOelCv4HDaPf9y+Jn87fZEW0NTsXOeynn9pbZdRHu4s49oDxlzDAEIQAACEIAABCAAAQhAoJTAXrS7HfDdI+2hGNNdaOJXLzmnRneLPYG4M6Dt6O4KTQmZXfGpkO5LP5ecb92W2jpV+KoljyWOdt1CxdRe/1WClLFS0a6yUVkj2lO8yYMABCAAAQhAAAIQgAAEIJAisBXto9jTxPkk/Nzj3aUC0P0JMFdv916ztCwmXGPpUkcVh5HTHMsq77pviutCXNvp19I2phSGoxDeLYJEfiPAL7d5xH7jJX4wnm/wOsCcFj6ZMBmZRbXv1/++aUNmQULtM0R7vLPIgQAEIAABCEAAAhCAAAQgkCawEe3xXVYRtauYX0ToRtCFjvY7vGO94FFtXQQXiMPATuj9yLHeBrc44Has3QLDymHnYxStgWDeFfISVJHr5R/9qgl2ZyMp3F2h+c/bRfs13S/6+EG0r3T5BgEIQAACEIAABCAAAQhA4BiBjWifdr0VURoRl5oIX9yPIjG0FexoR4TkTkSL/0Wkp4Xj4r/wy7QAEbbTqzy3cXpaQC83tnfcndbzPWvbrxGu20JlR64N+m76bCPC2/egC29XIsU+6FtXZf79gd1TFgVtWUzwBQIQgAAEIAABCEAAAhCAwEUJbEW7QNiIVPcI90ExOsLUd1idKJzEsrIrPfrf+3OidBTPi4A/22uTwJyEeO7R+ZiP+fzOiHVn0kS0u3MpPA/Xv5HddNcvyysN3hMW21+Pdycxfe4WWpZsfRy4cZZcZFhs8AUCEIAABCAAAQhAAAIQgMA1CexFuykHX9i6BYD5MyIaTd1vjAVtuZf/UZgH5+6/M575nhS1kQWOzWmrBxOL8bcJnIh37VAXRNzCgJzHfkHFiflkW8N2zH4P1QltcAwBCEAAAhCAAAQgAAEIQOADJzCK9h//5P8P687qeYGJDdidHQP/5//+8AMPNU4PAhCAAAQgAAEIQAACEIDAcQKNd9qPN4gaEIAABCAAAQhAAAIQgAAEIAABCEwEEO2MBAhAAAIQgAAEIAABCEAAAhCAwIMSQLQ/aMfQLAhAAAIQgAAEIAABCEAAAhCAAKKdMQABCEAAAhCAAAQgAAEIQAACEHhQAoj2B+0YmgUBCEAAAhCAAAQgAAEIQAACEEC0MwYgAAEIQAACEIAABCAAAQhAAAIPSmAR7T/5yU8G/sOAMcAYYAwwBhgDjAHGAGOAMcAYYAwwBhgDfceAv36wEe1ff/tm4D8MHmkMyGTxq9/8613/47Md715sf/7LYbjnfznP4Z/+867/e7CV2MRvu3jx576enO8ZO85XjxiSmO3J2e/ve33nfO8Xv25s3/OTOLpf/94rZn0/V4zfe8aP89UzjhDtLE68N4szPSYkfLa7yPVi6ybee332mOB7sJWbB/y2i5dHuTm7V9z4fnrEEKL9PmP5qvOGP77v9Z04us+Y5jp4P873ih3fT884QrQj2hHtid37HpMvPttN+MLWn3zv8b3HBN9jDF315tsX0/f63rN/7xEzoY8eMYRobzcPh3HSczyHbbnHsZxvOMbvcUwc3WdMX3E83yNuQh9XjCNEO6Id0Y5o77JD2uPC1mOSF588Ht/2ZqnHWJIbiCv6vYe4CH30iCFEe9uY9W/AiaP7vLJFHN1nTF9xPPvxfK/vwjm8VtzjuGccIdoR7Yh2RHsX8dHjwtZjku8xwfdge1URe68bFN9Pz/69x01R6KNHDCHa7yNwrjpvhGP8HsfE0X3GdM/52b9O3Ot7z/O9R9yEPnrGEaId0f5BiPa/+9FtuN28/7/358O7mBj/hx9OZX/0ZfZH7VKTUdbnv//58Lt+m+bvL/4hfeGo8unOLfSbOdcqnwHnlcvvDH/17/FzrfP55fAiPMfl+IfD3wVtchcv8RlOwO74r//YGz9i6wevh5+qP1r3zfAHi6+pzm/95a+jdsVnbKf9mz8MfP72q+HX3o/W7fI3fn8wvH6j/8Bdiu2vlHGpjcm1H9c2auUcW/m08Pvub3+nPJbnfk76ncs4u7/7t79Q497lr/NIfBy5c7bwO9n6xfBXvyec0zFj5Vfr21tqzvQ4u3iJff70Lz8Z+28fE78efvSDdSytnD8ZfvSP6Z1G4RyLIZf+6z/9wej3kz/9l3TZN6+GT1wc/eHbZNna/t2PqfX8Y+MwG0eF41ns7P2nx3TV+SrzytrHt+GWuAZV+Z15aGO6ar4q5LxjXBNHP/3xdu4bx6keHy7OVsY/Hv5avV6tsRWNo7/5E8Vv/Poy/NO/DK9/W8Zyqsx6bYr2r3q/sp8Dtb4tna/cnLn5LPLr5uQ1ZifW+/ZtbKeug0V+g3smP64SMSRtqOW8G8tunrzdhlPz1cHz3fvPz1fqdagkjv7x9fBb3vmtcTT39x9/c/ye7kAcafd2P/6bNWbcdc3/HOPXU+38ejwC/qEFfGxCchP6MqksE4Uf8MoEnJkAU5NgkU+ZbDcX8LUNS1vnGwN/0q86Tzn3jc9/HVxbz9w0ubpLe1W260VmO+mmL25V5/kbJ9r9Pl7b4fP0v4tPbZJ3gn0RGsukH9wIxdITN0vi05943Xc3aS8iY5nw/2T4xhPurvzyuZSL3zDF2K6C3XHTxmRp2p53nd91rJaON9e3Ub/LOFlvvBbbXuwt49bNCcuN0rkx/KtCv79a4sm1L+3P6nwlrjeCZmmHGxf7vhXfwlmLn5//smQhaxLtf/DTVUT8fLlx0oWJ8yV+l/G/iY23w4+DG68lnjbl3M1QUP60aHfzj+s3/abWjSttzLm+1D5rx/OvfqPFsN6nvv96v6GPtR1nrj9lcbT6WDlraWHbEiKnMH6PXh8d62gcyfVlIxbWuPLjZhHsrmxtHMk1ZRMLa5xshMRy7XHjPn4N8uM1Oq5k3nFz7jgfr3Hlz08185Vjvvks8juNIb8d6/UzPU/Xnu/a1pXHKCo3rA6M56LzXRf51jja+1jbtubVn29ZvIa+a+PIXV/WT29h2cWWcm8nfv3xvXwviiO34HUb1muVluauWevn6BfRzp91e6Q/65ZqizoxLDfX/s3mOgFsJtxg5Xx7sVgnIH9isPLpbLqbuFBYu3z5tPa5CINAzJv7nG/8f/dv/3zeBT9xYSvuT3cx8/td78PwPNcJehYPyw2PL9DXyXu9WXI3UGmBEdofJ9pQQCy7fb5AXyfuzY3Spu5a5hbsyi8XjsSfqtrdZEpMzP22jknHdivslrGbuHFQx+5vFDGu+c30fepGIubX73v13Dc3itvxGi+/jrM6v6udVZxs2+C33/9u59e1Qe9z36d8F7/h+A6Pdwtgyk3PWkeLM0/Uz3XFrz++te+7RbBN3MiNj4udPxlez7vyW6Gy3hw5+7WcXcykxm7I2HHW0v201Ph0fkuucb7N2vP1bY3f3dxy284lYbk6v/rYLWFQ5bdyvlpjYD/e/TwXT6uY169Drtyy8KzEnZyvG9u5TxdPeow4UV8p2ud7Mn88uHGdHrt6n/t25HtJ/7o6ZX7T95bOlo1f5+uHw1+5p88S116L83Ux02K+cmw0zs5vus/dtWr9FM5+rKS+u/hY40iJu2VT5jas9337cnVx5GLnNvj3ee5JMT3epmvT6BfRjmhPCeVHylMnQndTEAhSbWJwk8aRCcLKp/O9tCtor8uXT1ufbuLXd4Kc32qf7gZmvKi4C2pagNT5dD7civ/8WXBR203sbqIOHocPJ/lldyMot7MX3CzJee5ukNyORSC80zdK/zkMrl7msUSVrbf7tlnMcn23PJq9jpn1ce01bVM3uOmq8uti+bZdiFliJtG3ut/14i7j3NnZ3ZAs57/1u8wTR2M1YBL1uynnxnM6ZpLxurGXON+g3GhzYZAXV7nx7uImJR4WGy72bv6C2bmbJBc76+7FVoRP+ZPIKLlBkpitGlfq4+kyT+X7uM6vG0vpvnRjyf+s87uNN3+3P3czXud3nZtWtmva8flqex7R+K2cr5YYCK4X2/R1UWsRG+oi8zCUXJ+E8+5atFvc8he4bsEOvIspJzysRfvab8kxc2C+8sd3/Huh30ifh3ZLxvNUJ+53GnfTXLFcixLXQLFX63fxs3l6yWa+ip9v3Xy1jZf9tWPKV+JoF3clZSb7dXHkFo/lWuDiZ03zhXwYq6NfRDui/ZGEeaot2oS0TDLBjbW70GoT/1InMwHGJsGl/gGf44TlXWh2wsG7kTY5T8/XLRBB0+S5vTGp8zlPugsPNwmnJ/s6n9v2l94gis9wko/d7Djx4W6WluPNBU0m3vTOu/gMJ99FNBwS7e5GKXYj5W6oYmLD9UtwM7+MFb+/1rLru15bUVs6jtZd5IzfyA3REm+JeNXGUtg+NyfsYi/ndxnX4Zgru0mK+vVifmXk98HenzunqvPd+J18uDbm5gotfsJ4cnGSEu2ujIytVDlnW4uhMKZSot3Fm7shcsepXQ2xb815eaolI9yr/C7xPC9k+vNVIoZkbFX5DcbVEreZc7XxazlfbePOxcbheSPBWji7sZ38XBa1vJ2/JW270BW7jvn2xW8YN+rxsji83Q1cy7prkRMd67VnLbOmlYyrcW5b5uLgWhGMLdcnJfOVmzOTnxm/q7/05ofzUXu+LnbcgpM71u5nnU/5rPXr2xq/L1zS16Uqv5XzlT++o9+XmPHiKBDtS/xk7ufEh5yvNs53adE4cvHjz9H+U5dr7Pg2R7+IdkR7Sig/Up42MSyTWXBjvUyyyoVzqaPkhZOWlc/1XSgJ0rT4MfM5X+hSLNz5nvfpVor9c3I3UMcn+qVvDvSnO4eVcdyvnGc4sS+TdbCDvgiL+d2m8Hi0s1wM4sJdfPoTr3xfRMMB0b7UWVZn9Yld7Gv9uQrD4IZouWiu3JZ++NGXyw61E+/uRmLh7t1Q1fl142Z7Y+S3RfMpabpfo5vvYCz6bajy63Fb+2btA99P+N3O77ojL/27EyabNk6cw/gJj12clIjx+nfa1xiIivb5xsnfgV9iafMe72rLxaslZ9eHZ+djV999Oju7PlPi+ciiprMf+4z63YyVNZZzQkP81HL25wjXvvPzVeG84b337veB35YYQznfMG52x8u1JfhR1CW9kWj3hEb8FSwnOgxF+yIQb7vf5fE5+v3rc/fLuO8l42pdSEv7HW2qsbUdL1Kuyu/MwT+3kjFV7XcTv+s5LbwT98tV56sydfeV+R+w3MVNIMZ/vsRLEEebcu6Vk1vwmxL6zr2cr7tGRD8TceRff9x1y81XbmFZszv6RbQj2h9JmKfaok4MbqIPbqxTE03pBBidBI/6XCYlEez5m3Kr8xwvMjIRL/7jvs/79G7O/B0d/3tksj/vc72gLOd44Dx3k7yb1M+I9l+uj1TFRIqc524CdhN6sWh3N0n+j5fsRYbzo7ItfTzeje9gcWmJqSDW/D6o8jveNMTHk38T4/uU77rf7Thx7d/ZWeLDX3haf5Rnfdd/a6/a7+YmyZ13PEb9c646X8+vYzLeMETiNPS7i5/Nzc8wHBLtv1zLuydaNPtyvm5sxz7dzY8vzqXscoPkz0mb73HhYcXZZ7gwT/Cu8ruM52AsReLab1uVX29cLdfYYA7xffnfq/xGzmvhfHi+2sa5s7ObNyrnK22cL2numjSO0604Xxe6tumxxefFZskOobsujX5TO3/uehSPHT9Os/279GF6U8P1xZH5yh9nu++Ffv16Sxtq4jfhd40dfxfW/x7EtRd3Vpzveb7R+9OF0fa67LdNztcf37vvqTjyrltL7GRe03L2xa8/vnffU3G05G3jy12/4gtl02aMp9kHfj2eX49//349frlB8QN7XaXTdgWXSTEx6bqJQZ0Ej/hcJp4ywS5+q316k/h4HksbfEbbGxNbn2UCxNan94NqiRtF8ekm3uVTfUdwFePLD5K4C8BG3K8rtEs572IgPsTnblI/+EN0q/DYTvQ7u/P7iSrb2Hvdbny4m1t3HHJ06a5cOM5iY7fUr2Jv3SGM36hEYyaw52629jff+niNl19jJ8bZzR/yWWLn/jvt6xxZegPsOC9xE4xzl35MtK9xFlv0isZQ8C6uu+kJRbsWI0s83X2nfeW+H4dW42r14V//luveifg9Np5dPOWf3HB2q+LIzUuG85Vrl3yWxa/rO8c+P1+5eAk/VwEh9wxbYT6Vddec7dNdJXGnXovmOFpiIivYZbHYTrQv43L0G7tHcVxn8Vpw7yZ9lxpXZX5dv7rPtR1n4/eM36VO5rzfz/NdmZ6Zr8L4ccf5OHK76C6eyl7VEvtVcRQR7cvvFQUbOf71a/TrqXZEO6L9/RPt2kU1dhGfb+JLJ8DUpL+7kCs+Fz/Ji5G7GKyfsYm3xKeU2V5M1gkx9ZhijU//Bmf67m7a8jcu+7rKTVKM7eYCtp7n9vxXrq4/3aTuf+5ueJxA39w0rQJjEehqOXcxSP9oyU5kxCbzReDH3i/c77jH+nNd1XY3Rxo313/+WNLKbdk6vlqflvnd23Nj3r+Ya/aj5+sJd2dLGx9LrLoxtSzMnRvDfhtTftdyjnnanytfd77O13QDrPFwfsJP8evHjfZ9F0tO3I+LY4EIWeJnK0BCu+LXv3nRvu/iKRD1fp1FoDQV7cI56E9lLgsZy3Fd/3oLmItAr4zfwjiStrvxnnpCJTznuvNdx/M6lu93vv65uHMvma/CMS7HLnbGhbTN4vD2mrIIEvdnqZaF53Nx5GJn9JsQDWsM2Yh2x2v0u4zV8Dqw9q+UW/s4LLc/jo2rIr/jNcBdJ2fbS/wGce3FRyp+i/wGtsTe7vqklKn3az9fFZ+v47qMgfL4rYmjTcwl4i30EbselcWRix3/qcn1h+hSi86jX0Q7j8enHkl/pLzYBCyT1WZyEJG8BL+byNdJYLxAjEJ6XrXdlXV10jdPOZ/LROv78r7HLuw157lr0+wv5kvYpSb7MrYrr8meu8ieu7CV+NTZpv258wwnYHe8uWESbuokvgr3ZRy5GycnToLP2AQvN0CbSV587m6Y1sl8n7cX6+6mKjWGVgE9j3/1zzHp8VIzjkr87vs1uGk6eLOy7mCv57r0mxPos80zvuOcXQxk/LqbFW9ecO1Lsa7zm2ibtCMzH7p42X6uuxWu/cuni49FWARM1DjbipR4DK03QIs/xzIhyOtFe4LhMq4iZZb8cN5cj+v6d7azG1tl8+M0h69t2c7pQd8Ja/98PJ+p8Rv6qD9f6/kq0nfB+Z6ZM1LXod01yI3l8XMryBfhvpQJFsSC65DEayyOdtehxab0t/cI/LKwvB8HuXdxwz6X49j9yhTLbrwm+kLamZmvTvtdFm6Dc034c75i47nsfMPYMxbtm76Vc8tw9uP74PX30Pl6c8e2//c8fM7b69B03SiOo2XROP4DdZr96jha/vzodmylYkju7Ua/iHZE+yMJ81RbYhOhC+AWn/iMT5i1vHux1SbhlmnjRJvY9XNC2/KzB1sZD/htFy9+vPXk3DJWYrZ7xJC7SfK53+t7z/691zn6fq54vrGx3jKdOPrw52c/ru71vWf8toyXmO2eceRpdt5pTwlG8vovbvSYGPDZ7iLXi21sIm6V3mOC78FWbhDw2y5e/BuwnpxbxUnKbo8YQrTfZyxfdd5IjfdWecTRfcZ0z/nZv07c63vP820VKym7PeMI0c577A/9Hru/WNJjYsBnu4tcL7apybhFXo8Jvgfbq9583+vGyPfTs39bxEjOZo8YQrS3m/v9sXzVeSM35lvkE0f3GdM95+cwtu5x3PN8W8RJzmbPOEK0I9oR7ZH3dHrdTPSYAK/kMzchW+f3mOB79GeveMHvfW5EHWfr+Cix1yOGEO33HVcyvu79v+c8WTLurcsQR/cZYz3H1b1jyF0Xevm1jpESez3jCNGOaEe0J24Weky++Gx3YRW2JZOyZZkeE3yPMdT74t3rpuFqfi1jo9RWjxhCtLebh8OYueJ8VTr2LcsRR/cZ01ccz2FM3+NYOFvGR6mtnnGEaEe0I9oR7V3eRe5xYesxyfeY4HuwlYs0fj/8m8LSGxvLcj1iCNF+n7F81XnDMj5KbRFH9xnTXAfvx7l07FuW6xlHUdEujeI/DBgDjAHGAGOAMcAYYAwwBhgDjAHGAGOAMdBvDERFu/8DYHzv/8vp9MGbcRHJH7D3+C6T073/4bMdcdi2YyuWe/DFb9s+9a3Tvz6Ndt/h3I6tbxnOPo123+Hcjq1vGc4+jXbfH4XzzZ2iNAiRiFB/tDHQI1Dw6WYF+0/Y2jN1FnuwFd/4dT3Q9hPObfk663B2JNp+wrktX2cdzo5E2084t+XrrF+dM6Kd99sferGmR4Di002P9p+wtWfqLPZgK77x63qg7Sec2/J11uHsSLT9hHNbvs46nB2Jtp9wbsvXWb86Z0Q7oh3R7maD+bPHpIDPoBMMD2FrCFMx1YOvNAO/Smc0SIJzA6iKSTgrUBokwbkBVMUknBUoDZLg3ACqYvJROCPaEe2I9iBAewQnPoNOMDyErSFMxVQPvtIM/Cqd0SAJzg2gKibhrEBpkATnBlAVk3BWoDRIgnMDqIrJR+GMaEe0I9qDAO0RnPgMOsHwELaGMBVTPfhKM/CrdEaDJDg3gKqYhLMCpUESnBtAVUzCWYHSIAnODaAqJh+F8/1E+7vnw8e323DL/v9o+PRd5Q/Ceb4+fvXFRpR+/kLsfzF8+sTAD4J/w7bFj9j1CBR8KjOWURJsjUAqZnqwlWbgV+mMBklwbgBVMQlnBUqDJDg3gKqYhLMCpUESnBtAVUxenfM50e6J4qQIf/GyuajLCcWvXn00LxTMIl3a/uT58JV8PkD7cu2/en6PAMWnMlMaJcHWCKRipgdbaQZ+lc5okATnBlAVk3BWoDRIgnMDqIpJOCtQGiTBuQFUxeTVOZ8T7QU7zKNYRhR3X7R430V/jwDFpzJTGiXB1gikYqYHW2kGfpXOaJAE5wZQFZNwVqA0SIJzA6iKSTgrUBokwbkBVMXk1Tl/eKL97dPlEfxnbysfsy9YnHjfRfGjt79HgOJTmSmNkmBrBFIx04OtNAO/Smc0SIJzA6iKSTgrUBokwbkBVMUknBUoDZLg3ACqYvLqnO8k2l8Oz7Lvsvvvuz8dPq8WzPLe+mxTHocP7Y2P+Fv4YWGgpfDvEaD4VGZKoyTYGoFUzPRgK83Ar9IZDZLg3ACqYhLOCpQGSXBuAFUxCWcFSoMkODeAqpi8Ouc7ifaIsM0JZ2/XPPnu/O3oj8pNgj78kbqW4hPbkTEQLqYExz0CFJ/KTGmUBFsjkIqZHmylGfhVOqNBEpwbQFVMwlmB0iAJzg2gKibhrEBpkATnBlAVk1fn3F+0a7vggXCzFbzzDjzv278X79sfDdBvPvOf2LgNt8++UcI+nYRPnQ9sdS5a6vswhobvXg+fbJ6A+mR4/Z12Num0o+eKXzinR9SUy7jKUCJ+ma8yQ0SyiaMMJOKIOMoMkUeKo66i/f4/Vjc/po9gfy8EuyzWHL7gFARfrgg+c4TO58P2PLtczR5spU34zfWMTew7EM4AACAASURBVD6cbTjmrMA5R8gmH842HHNW4JwjZJMPZxuOOStX59xPtI+Pvh99rP3cI9Yi/j5/Me3A8kj8eYa2TzyUtaNHgOIzN22ez4fteXa5mj3YSpvwm+sZm3w423DMWYFzjpBNPpxtOOaswDlHyCYfzjYcc1auzvmcaC9911zd0V5/IK75r7v77VTbUiYce4hVfE590yNA8ZmbNs/nw/Y8u1zNHmylTfjN9YxNPpxtOOaswDlHyCYfzjYcc1bgnCNkkw9nG445K1fnfE60n33nfBbRbXe710WB2+EfqEPEP9piQY8AxWdu2jyfD9vz7HI1e7CVNuE31zM2+XC24ZizAuccIZt8ONtwzFmBc46QTT6cbTjmrFyd831F+1mxT7335h10a9HfI0DxmZs2z+fD9jy7XM0ebKVN+M31jE0+nG045qzAOUfIJh/ONhxzVuCcI2STD2cbjjkrV+eMaGdB4KEXBHoEKD5z0+b5fNieZ5er2YOttAm/uZ6xyYezDcecFTjnCNnkw9mGY84KnHOEbPLhbMMxZ+XqnBHtiHZEezBL9JgU8Bl0guEhbA1hKqZ68JVm4FfpjAZJcG4AVTEJZwVKgyQ4N4CqmISzAqVBEpwbQFVMPgpnRDuiHdEeBGiP4MRn0AmGh7A1hKmY6sFXmoFfpTMaJMG5AVTFJJwVKA2S4NwAqmISzgqUBklwbgBVMfkonBHtiHZEexCgPYITn0EnGB7C1hCmYqoHX2kGfpXOaJAE5wZQFZNwVqA0SIJzA6iKSTgrUBokwbkBVMXko3BGtCPaEe1BgPYITnwGnWB4CFtDmIqpHnylGfhVOqNBEpwbQFVMwlmB0iAJzg2gKibhrEBpkATnBlAVk4/CGdGOaEe0BwHaIzjxGXSC4SFsDWEqpnrwlWbgV+mMBklwbgBVMQlnBUqDJDg3gKqYhLMCpUESnBtAVUw+CmdEO6Id0R4EaI/gxGfQCYaHsDWEqZjqwVeagV+lMxokwbkBVMUknBUoDZLg3ACqYhLOCpQGSXBuAFUx+SicN6JdGsV/GDAGGAOMAcYAY4AxwBhgDDAGGAOMAcYAY6DfGPDXEDai/Wt2nR961/mK/SMTxb3/4bMdcdh+WGzlbHr0KX7bjaPQMv0bEmlzDOc2XEOrcA6JtDmGcxuuoVU4h0TaHD8KZ0Q7CxUPvVDRI1Dw2WbSE6uw/bDY9upT/LYbR6HlHjFL/4a90O6Y/m3H1rcMZ59Gu+9wbsfWtwxnn0a77yFnRDuiHdEexFsYJEF2k0N8NsE6GoVtO7ZiuQdf/LbtU986/evTaPcdzu3Y+pbh7NNo9x3O7dj6luHs02j3/VE4I9oR7Yj2IM57BCc+g04wPIStIUzFVA++0gz8Kp3RIAnODaAqJuGsQGmQBOcGUBWTcFagNEiCcwOoislH4dxGtL97Pnz85PnwlXy+ePnQorDZe+Jvnw43Ofe3T4ePX31xTQYGCyI9AgWfyoxllARbI5CKmR5spRn4VTqjQRKcG0BVTMJZgdIgCc4NoCom4axAaZAE5wZQFZNX52wg2r8YPn1y2wnTr159NDx7+2b4/MVHw6fv3txXtLpFA000ipi+3YabLCpo+afSXg7PbrfxfP1FgOnchc/T4fON3YmZ8HHlP38x1e/Ca9O2tU2ubeWfwsG2v3sEKD6VmdIoCbZGIBUzPdhKM/CrdEaDJDg3gKqYhLMCpUESnBtAVUzCWYHSIAnODaAqJq/OuV60jyK4TKiJMB0Fs4jm2P+NmJ7E7WGBnRDtn7+axfrb595iwiS6x53xEwJWFihut1CYp8TvXrR//e3L4VmrpxOkjzZcc20Lz2VuW5YNol2ZY4qSekxE+CzqmlOFrsJW4PQ4V/yeGpanKtG/p7AdrgTnw8hOVYDzKWyHK8H5MLJTFeB8CtvhSo/CuVK0z6I6JsCtdl3d7nipME6IdnlcPbbTPonvo7vws+CPMggFsAhmTbSnhHRdniyWlD+iL+cTtllLy/W9tzBTvGCwP88egYLPw/NZcQXYFqM6XLAHW2kkfg931akKcD6F7XAlOB9GdqoCnE9hO1wJzoeRnaoA51PYDle6Oucq0T6J3Mguuwjnnfjbi7LyR6/fjO+H30oWAlKifRbMqZ3nIzvn09MDocidzzO6w31P0X509zsm0MNzLDyHKIOysdAjQPF5eB4trgDbYlSHC/ZgK43E7+GuOlUBzqewHa4E58PITlWA8ylshyvB+TCyUxXgfArb4UpX53xetM871v572b4AH4Wv/yN0o4j3dl+jO9ORRYDso9meCAxE+/axfAP7c1uSixbfyvv8sR3u7S51jKHP8/T3o6I5YOf87t+1R7Qfnm0SFXpMRPhMdEhl1lXYCqYe54rfygF6oDr9ewBWRVE4V8A7UBXOB2BVFIVzBbwDVeF8AFZF0UfhfE60ZwS7e/y7/JFsJ7iP7gp7O9qJBQIrUSwi3Z1TTrCP76grP043ieCt4HWLCs62E8oWn9uFg61f1b70rc/SW6DYciyw9e2bYbd4c2Tx5ds3XQRBj+DEZ8VsmqkK2wygyuwefKXJ+K3suMLqcC4EVVkMzpUAC6vDuRBUZTE4VwIsrA7nQlCVxR6F83HRPu6YZ3arxzLh49ROmCc+I7u8qrhcxJ8i9E/ZSbRLfPnnNC5aZM4vucOtC95JvG/ZTosDJU8oaO1RHnX3z2NhuJ67tGErzue8nZjXzyHsq+2iweonLBc77hEo+Kyc3RLVYZuAU5nVg600Gb+VHVdYHc6FoCqLwbkSYGF1OBeCqiwG50qAhdXhXAiqstjVOR8X7YrQ2wquScyd2TU+LvBElCqPoFuL9lHoRsSsymNqlyp+x/IpwassQqg+8gI4tss9Lg4ou+nT0wGa+BdfygJAtl3159IjQPFZOasmqsM2AacyqwdbaTJ+KzuusDqcC0FVFoNzJcDC6nAuBFVZDM6VAAurw7kQVGWxq3M2Fu2TGE39yNtW4HvCcxTG213maFkRi7OQVhcHLEX7uKt+XLBrj5iv55MS7R6TrChOlU350MW0iHyV59yO6C58pJ3xxYFUu7d5PQIUn5WzaqI6bBNwKrN6sJUm47ey4wqrw7kQVGUxOFcCLKwO50JQlcXgXAmwsDqcC0FVFrs6Z0PRLkLw6J9LmwXaQWE8isHo++KzoK/4M2OTuJ4XIEp+rd6J1nkhIS3Y5ZxTgnorWlehfzA9+Xj+/K65z2hse2yXffZdUmZk4dhl7Dluic8eAYrPylk1UR22CTiVWT3YSpPxW9lxhdXhXAiqshicKwEWVodzIajKYnCuBFhYHc6FoCqLXZ1zvWifBbf87fP44+ARwbnULdhhX8re1B9K24rbM49yT2303yFP7Tr7/tY6BefhidrDvBLi1m+PfNd3xeeFFe+X+6c2lC8ipHfPPfvq4/eRcZA4rx4Bis/KWTVRHbYJOJVZPdhKk/Fb2XGF1eFcCKqyGJwrARZWh3MhqMpicK4EWFgdzoWgKotdnXOFaHcCrVSoToLN7ZKLyL9l/46781FSNhCEvsj3ROrkd/pht0U0ux3yo08KLPWO7iiXi+RQjGePlzZpP1637atxseHJ8+H/ZR6L3/qUPtna8ft0YZoQ4lt7Qb8F9XoEKD4rZ9VEddgm4FRm9WArTcZvZccVVodzIajKYnCuBFhYHc6FoCqLwbkSYGF1OBeCqix2dc4Voj0tto4IM8rCMjYGegQoPitn1UR12CbgVGb1YCtNxm9lxxVWh3MhqMpicK4EWFgdzoWgKovBuRJgYXU4F4KqLHZ1zoj2YGc3Jh5J77Ow0CNA8Vk5qyaqwzYBpzKrB1tpMn4rO66wOpwLQVUWg3MlwMLqcC4EVVkMzpUAC6vDuRBUZbGrc0a0I9qHR16QOBqg33wWvBbw2TeHpwh86shgq3PRUt+HMTR893r4ZPPq0CfD6++0s0mnHT1X/MI5PaKmXMZVhhLxy3yVGSKSTRxlIBFHxFFmiDxSHCHaEe0flGgviL1skcMXuazFfAF85hmdLQHbs+TK6vXgKy3Db1n/1JaCcy3BsvpwLuNUWwrOtQTL6sO5jFNtKTjXEiyr/yicT4t2/8fH/B93W78f/XG2Po9fP/IuM2170+XGvEdw4rNs4jxTCrZnqJXX6cFXWoff8j6qKQnnGnrldeFczqqmJJxr6JXXhXM5q5qScK6hV173UTifFu0pQSmCvvTPpaXskMdCRo9AwWf5RHa0JGyPEisv34OttA6/5X1UUxLONfTK68K5nFVNSTjX0CuvC+dyVjUl4VxDr7zu1Tk3EO37PwmG+EZ8nx0DPQIUn+UT6NGSsD1KrLx8D7bSOvyW91FNSTjX0CuvC+dyVjUl4VxDr7wunMtZ1ZSEcw298rpX52wu2sfH5l+8fOj3pM8KSOrdf/GhR4Dis3wCPVoStkeJlZfvwVZah9/yPqopCecaeuV14VzOqqYknGvoldeFczmrmpJwrqFXXvfqnG1F+9unw+3Gu+yIeztx3yNA8Vk+gR4tCdujxMrL92ArrcNveR/VlIRzDb3yunAuZ1VTEs419MrrwrmcVU1JONfQK697dc6Gop3H4hHrdmLdsewRoPgsn0CPloTtUWLl5Xuwldbht7yPakrCuYZeeV04l7OqKQnnGnrldeFczqqmJJxr6JXXvTpnI9Eugv02PHshO+0fDZ++sxdvTsTxeS22PQIUn+UT6NGSsD1KrLx8D7bSOvyW91FNSTjX0CuvC+dyVjUl4VxDr7wunMtZ1ZSEcw298rpX51wv2t89Hz4Wwf52FpPhMX8Hnff7K8ZAjwDFZ/kEerQkbI8SKy/fg620Dr/lfVRTEs419MrrwrmcVU1JONfQK68L53JWNSXhXEOvvO7VOdeJ9vEddmVnHeGOUK8Q6v7TFD0CFJ/lE+jRkrA9Sqy8fA+20jr8lvdRTUk419ArrwvnclY1JeFcQ6+8LpzLWdWUhHMNvfK6V+d8UrR/MXz65DbcnjwfvoqJs1m48/far/U4uy+4Lb73CFB8lk+gR0vC9iix8vI92Err8FveRzUl4VxDr7wunMtZ1ZSEcw298rpwLmdVUxLONfTK616d83HRfmQXfSzLr8lbiNer2ugRoPgsn0CPloTtUWLl5Xuwldbht7yPakrCuYZeeV04l7OqKQnnGnrldeFczqqmJJxr6JXXvTrn46I9trNOOo/ENxgDPQIUn+UT6NGSsD1KrLx8D7bSOvyW91FNSTjX0CuvC+dyVjUl4VxDr7wunMtZ1ZSEcw298rpX54xobyA0r7or3uK8ewQoPssn0KMlYXuUWHn5Hmyldfgt76OaknCuoVdeF87lrGpKwrmGXnldOJezqikJ5xp65XWvzhnRjmh/6CcEegQoPssn0KMlYXuUWHn5Hmyldfgt76OaknCuoVdeF87lrGpKwrmGXnldOJezqikJ5xp65XWvzhnRjmhHtAfzRY9JAZ9BJxgewtYQpmKqB19pBn6VzmiQBOcGUBWTcFagNEiCcwOoikk4K1AaJMG5AVTF5KNwRrQj2hHtQYD2CE58Bp1geAhbQ5iKqR58pRn4VTqjQRKcG0BVTMJZgdIgCc4NoCom4axAaZAE5wZQFZOPwhnRjmhHtAcB2iM48Rl0guEhbA1hKqZ68JVm4FfpjAZJcG4AVTEJZwVKgyQ4N4CqmISzAqVBEpwbQFVMPgpnRDuiHdEeBGiP4MRn0AmGh7A1hKmY6sFXmoFfpTMaJMG5AVTFJJwVKA2S4NwAqmISzgqUBklwbgBVMfkonBHtiHZEexCgPYITn0EnGB7C1hCmYqoHX2kGfpXOaJAE5wZQFZNwVqA0SIJzA6iKSTgrUBokwbkBVMXko3DeiHZpFP9hwBhgDDAGGAOMAcYAY4AxwBhgDDAGGAOMgX5jwF9D2Ij2Fn9nG5tvHnon+9H7RyaKe//DZzvisP2w2MrZ9OhT/LYbR6Fl+jck0uYYzm24hlbhHBJpcwznNlxDq3AOibQ5fhTOiHYej3/oRYUegYLPNpOeWIXth8W2V5/it904Ci33iFn6N+yFdsf0bzu2vmU4+zTafYdzO7a+ZTj7NNp9Dzkj2hHtiPYg3sIgCbKbHOKzCdbRKGzbsRXLPfjit22f+tbpX59Gu+9wbsfWtwxnn0a773Bux9a3DGefRrvvj8IZ0Y5oR7QHcd4jOPEZdILhIWwNYSqmevCVZuBX6YwGSXBuAFUxCWcFSoMkODeAqpiEswKlQRKcG0BVTD4K52uK9nfPh49vt+H25PnwFaId0R4EaI/gxGfQCYaHsDWEqZjqwVeagV+lMxokwbkBVMUknBUoDZLg3ACqYhLOCpQGSXBuAFUx+SicjUT7F8OnTz4aPn33fvzo2levng+fi1h/+3R49ta1Wc7h5h279DfDV68+Gm4vXpqKW3ObshBxehHi5fBMFjFiCxlvn5qff+kP4PUIFHwqM5ZREmyNQCpmerCVZuBX6YwGSXBuAFUxCWcFSoMkODeAqpiEswKlQRKcG0BVTF6ds6Fo1wVvqTjTy01C+siO+OcvZvHpRGjqcyNyG4j2cUdfX8w4KtrH8ren02KDe1IgdW5LnudfxPeS7nOa7UaeOhDfH7/6Ylq02Pj2bAd1p/aW+9D7/00XQdBjUsCnMjsbJcHWCGTETA++0hT8RjrEOBnOxkAj5uAcAWOcDGdjoBFzcI6AMU6GszHQiLlH4Wwk2t8MulhOi8GYUNulL2LTwp7sKmti01i0z+J23clfd+7l/A6J9tFW5tylzGYRYutvx1REdmEdaaucxyTEvXaUtGsU88LcqxcIfLVtc5kegYLPyKxlkAxbA4gREz3YSlPwG+kQ42Q4GwONmINzBIxxMpyNgUbMwTkCxjgZzsZAI+auzvmUaN/vok47qstubEqUFQpFVciN4l0T3AUC1bUpFJrLgoC/K5z6XuB/9JF+8uCIaJcFkZ34L2z3Wm9+akHdaQ/ONxD/o/9X+qKAnEe+32MLJfl+6xGg+IzMlgbJsDWAGDHRg600Bb+RDjFOhrMx0Ig5OEfAGCfD2RhoxBycI2CMk+FsDDRi7uqcT4l2TVCXiTcRaSIeJ+Griv9AMGq+qtJE7Ko+bHba3TmtYlkXpq7c+Lh66n35cJHBLT68fboVy8piiCb2N/0U1NnkOT/fylMUHw0fx36zQHim2i92ChYxYn3aI0DxGZktDZJhawAxYqIHW2kKfiMdYpwMZ2OgEXNwjoAxToazMdCIOThHwBgnw9kYaMTc1Tmbiva0ePN+7Gze7d3u0MZFc0zQLeklwnEWoTFhOi0mKDvapY+yezvf2/NKiPZZ7C4CXhO/sXPz/OnvqU+7527xYPFRstN+u20WBMZXH9SFjsJH7Oe2lnBZ+nTurx4Bis/IbGmQDFsDiBETPdhKU/Ab6RDjZDgbA42Yg3MEjHEynI2BRszBOQLGOBnOxkAj5q7O2Uy0yy+x6+Jx/zi5KpylfkwYeru+oaj7+tsjj16nysYXDUbBqwnqcRfaPVo+nacI3BJxqtpUxK3KSnjccac92gZpR7Bbv++fmas8Xn/ivfYeAYrPyGxpkAxbA4gREz3YSlPwG+kQ42Q4GwONmINzBIxxMpyNgUbMwTkCxjgZzsZAI+auzvmEaN/vmC9ivVR0izj1RfD4+PSZHyqb2lIikkVMqkJ5WRCIi/a9EJ/KjucdnPO+bH6nPRS6vg3/+6ZcdJHELSJsd9pd3Y0ADwT3Jm/hMnGLMg770qs3+pT8mVH0XMI63nGPAMVnZLY0SIatAcSIiR5spSn4jXSIcTKcjYFGzME5AsY4Gc7GQCPm4BwBY5wMZ2OgEXNX53xCtOsidHpvuVB4b8SiCOD9brwTmdHPUeiX7WqLjVGwn9jpnc6rvH2lwjS9gLAyjgnpHZcN07X+Wi6x2BI+Mh8sRKw29nbT5xs+2RAe7+2FvnoEKD4js6VBMmwNIEZM9GArTcFvpEOMk+FsDDRiDs4RMMbJcDYGGjEH5wgY42Q4GwONmLs65z6iffwxukKB7+26OkEnQlF2ud372i5d/3Ri9Yy/eUfdfypAaY/vNy1iV5FaKtrH1w4C/9MCxHZHfXnaIRTgwfvprq2LjScfDR+rfwJvbaurs/scd/tjXCfuux36ZJ29zx4Bis/IbGmQDFsDiBETPdhKU/Ab6RDjZDgbA42Yg3MEjHEynI2BRszBOQLGOBnOxkAj5q7O2U60j++WxwTcXoyJuC0T3XPdUezNQjUQsTsxKcJ63okfxWxJ+UCMu4WBzWP8QRnNr7loH8+jgGt2p104ugWM+QmFpY573L/wiYKFbaT8nB/t37EvI3UDxj0CFJ+R2dIgGbYGECMmerCVpuA30iHGyXA2BhoxB+cIGONkOBsDjZiDcwSMcTKcjYFGzF2ds7FoLxNiInbLHvteReat8NH2ZQe5eCd+XVBYhLrsVp8Q+nJe5qJ9fCqhYIFjEeDr+fiLCtO5BeJ/V8eJd/21g5VPvJ9H/iWP14/CPmhPINil/T0CFJ+R2dIgGbYGECMmerCVpuA30iHGyXA2BhoxB+cIGONkOBsDjZiDcwSMcTKcjYFGzF2ds6Fo18WiLxz5fpJRocD9EPn2CFB8RmZLg2TYGkCMmOjBVpqC30iHGCfD2RhoxBycI2CMk+FsDDRiDs4RMMbJcDYGGjF3dc6IdmV39xHF7/QEQX5n+hHbXtOmHgGKz8hsaZAMWwOIERM92EpT8BvpEONkOBsDjZiDcwSMcTKcjYFGzME5AsY4Gc7GQCPmrs4Z0f6eiPYa4fs+1z0aoN98FvxA32ffREI/noxPnQ1sdS5a6vswhobvXg+fbH648pPh9Xfa2aTTjp4rfuGcHlFTLuMqQ4n4Zb7KDBHJJo4ykIgj4igzRB4pjupEu/yg2Ml3v99nIUnbTz7mf2KB5PAFpyD4ckXwmSN0Ph+259nlavZgK23Cb65nbPLhbMMxZwXOOUI2+XC24ZizAuccIZt8ONtwzFm5Ouc7ifb1B85Sf5psyRt/yMz/Ebpg93SzOzTnzT9+Nj1GHv+hNAT3/QS3BeseAYrP3LR5Ph+259nlavZgK23Cb65nbPLhbMMxZwXOOUI2+XC24ZizAuccIZt8ONtwzFm5OmdT0e7/cnvRDrzs1Jf80nhih1Z8qn8LvNKuheDERv0CQY8AxWdu2jyfD9vz7HI1e7CVNuE31zM2+XC24ZizAuccIZt8ONtwzFmBc46QTT6cbTjmrFyd8ynRvv7pr/lPo42/bu7/mTTZWc/tdstOeq5MXvSpor30z6QlFgMQ3Hn292DUI0DxmZs2z+fD9jy7XM0ebKVN+M31jE0+nG045qzAOUfIJh/ONhxzVuCcI2STD2cbjjkrV+d8SrQvYm3cKf9o+HgnvnOifX1cfrdLHgjpze798lj8+ivqumh/M3zN+/bD0k8B0/cpvUeA4jM3bZ7Ph+15drmaPdhKm/Cb6xmbfDjbcMxZgXOOkE0+nG045qzAOUfIJh/ONhxzVq7OuUq0T4J6FdCrGBRRrqVPu7fjTv2Ll8MkuF8Onz657R9xn4XmXpTLDv1qe58/7xBf+G+br/3wGLvlNe3pEaD4zE2b5/Nhe55drmYPttIm/OZ6xiYfzjYcc1bgnCNkkw9nG445K3DOEbLJh7MNx5yVq3M+L9p3j8T7AnErrFfRNu+wz784vwrubfpa/s0s7L/wdo23tlcbvn/5bvP4vd8WvoeM2x/3CFB85qbN8/mwPc8uV7MHW2kTfnM9Y5MPZxuOOStwzhGyyYezDcecFTjnCNnkw9mGY87K1TmfFO2TyH72IvYn314Oz3Y/BCcierujHgpuOb55u+giksMykxgv2Gkf32uvf2ceod5emKcY9whQfOamzfP5sD3PLlezB1tpE35zPWOTD2cbjjkrcM4RssmHsw3HnBU45wjZ5MPZhmPOytU5nxLto7iW3fLYe+OyC78R7fqu916Qvxm+Dh5rn4R8+CffSkS77jMlEMnrK9A1/j0CFJ+5afN8PmzPs8vV7MFW2oTfXM/Y5MPZhmPOCpxzhGzy4WzDMWcFzjlCNvlwtuGYs3J1zidEu7eLHhPtXvpXr54On77TxaAq2oMfTcuVieYH4l8ThKTp/fJIXHoEKD5z0+b5fNieZ5er2YOttAm/uZ6xyYezDcecFTjnCNnkw9mGY84KnHOEbPLhbMMxZ+XqnE+Idk/oeeJ8K/SmR+Fv8mvv8/vr2/zJRlRwB8Jdq+vSojaibfPaf8CP88fnffn1CFB85qbN8/mwPc8uV7MHW2kTfnM9Y5MPZxuOOStwzhGyyYezDcecFTjnCNnkw9mGY87K1Tk3Eu1lwi4quLNi2lsUuN2GZ29Df/M797v0sBzHj74I0SNA8ZmbNs/nw/Y8u1zNHmylTfjN9YxNPpxtOOaswDlHyCYfzjYcc1bgnCNkkw9nG445K1fnXCfas+K6kyiWXfbNO/Wd2vGofN6jdvUIUHzmps3z+bA9zy5XswdbaRN+cz1jkw9nG445K3DOEbLJh7MNx5wVOOcI2eTD2YZjzsrVOX9wol127283fjX+0XfQS9vXI0DxmZs2z+fD9jy7XM0ebKVN+M31jE0+nG045qzAOUfIJh/ONhxzVuCcI2STD2cbjjkrV+f8wYn2UjFIuffj6YMeAYrP3LR5Ph+259nlavZgK23Cb65nbPLhbMMxZwXOOUI2+XC24ZizAuccIZt8ONtwzFm5OmdE+3v0qPgVFxp6BCg+c9Pm+XzYnmeXq9mDrbQJv7mescmHsw3HnBU45wjZ5MPZhmPOCpxzhGzy4WzDMWfl6pwR7Yj24ZEXA3oEKD5z0+b5fNieZ5er2YOttAm/uZ6xyYezDcecFTjnCNnkw9mGY84KnHOEbPLhbMMxZ+XqnBHtiHZEezBL9JgU8Bl0guEhbA1hKqZ68JVm4FfpjAZJcG4AVTEJZwVKgyQ4XQHChgAACkNJREFUN4CqmISzAqVBEpwbQFVMPgpnRDuiHdEeBGiP4MRn0AmGh7A1hKmY6sFXmoFfpTMaJMG5AVTFJJwVKA2S4NwAqmISzgqUBklwbgBVMfkonBHtiHZEexCgPYITn0EnGB7C1hCmYqoHX2kGfpXOaJAE5wZQFZNwVqA0SIJzA6iKSTgrUBokwbkBVMXko3DeiHZpFP9hwBhgDDAGGAOMAcYAY4AxwBhgDDAGGAOMgX5jwF9D2Ij2R/5BMtr2fvyJNut+koni3v/w2Y44bD8stnI2PfoUv+3GUWiZ/g2JtDmGcxuuoVU4h0TaHMO5DdfQKpxDIm2OH4Uzop3H43k8PojxHsGJz6ATDA9hawhTMdWDrzQDv0pnNEiCcwOoikk4K1AaJMG5AVTFJJwVKA2S4NwAqmLyUTgj2hHtiPYgQHsEJz6DTjA8hK0hTMVUD77SDPwqndEgCc4NoCom4axAaZAE5wZQFZNwVqA0SIJzA6iKyUfhjGhHtCPagwDtEZz4DDrB8BC2hjAVUz34SjPwq3RGgyQ4N4CqmISzAqVBEpwbQFVMwlmB0iAJzg2gKiYfhTOiHdGOaA8CtEdw4jPoBMND2BrCVEz14CvNwK/SGQ2S4NwAqmISzgqUBklwbgBVMQlnBUqDJDg3gKqYfBTOjUT7y+HZk+fDV++eDx+/eNlZFH4xfPrko+HTdx/OD7l9/uI2fPzqi85c78OzR6DgU5mxjJJgawRSMdODrTQDv0pnNEiCcwOoikk4K1AaJMG5AVTFJJwVKA2S4NwAqmLy6pyrRfvnLwJBPAv1r159NDx7+2bY5d99Z1tE+21si/Uvm5+3J216Ony+YTEvdGzSdGGcF+3TOd9utyH6XxZVCnydP0e97Uft9QhQfCozpVESbI1AKmZ6sJVm4FfpjAZJcG4AVTEJZwVKgyQ4N4CqmISzAqVBEpwbQFVMXp1zpWhXdrHvtbsufgp380Xk7sVrKJptRGaZKH05PLuF/rW0N4Msfuzbrp1PsHgSFeSPuIgRZ98jQPGpzJRGSbA1AqmY6cFWmoFfpTMaJMG5AVTFJJwVKA2S4NwAqmISzgqUBklwbgBVMXl1zvai/dvyHeMygTsJukW8ejvE2m7+Ui7YZX6sx8k1ga7tvs+iPfuKgdgrFO2y2LFbMIiL5iN91KJsjwDFpzJTGiXB1gikYqYHW2kGfpXOaJAE5wZQFZNwVqA0SIJzA6iKSTgrUBokwbkBVMXk1TlXinZNfGpplaLw7dPhNgvNcdfcE+4lQlGEfFa0j2JW28Fu8Gi9e0og2A3XXiUYFyHMRPu0y55lEbSrhHGrMj0CFJ/KTGmUBFsjkIqZHmylGfhVOqNBEpwbQFVMwlmB0iAJzg2gKibhrEBpkATnBlAVk1fnXCfaVfGpPDJfIwJHMb3dRT4q3MuEr76wIL7k3XxTUSqLEIoQl3aGvoraPjIKH7fft3m0dXDBw/S8T4yDHgGKT2WmNEqCrRFIxUwPttIM/Cqd0SAJzg2gKibhrEBpkATnBlAVk3BWoDRIgnMDqIrJq3OuEu0iArVdW018fj3ulus72dt3tn2BLrv2umg+JECjvn1fe5H79bfxBYjRf/AI/vY83LnuxXR0IUAR86MfReBvxLTUy4nxQmG/sXtCZFvX7xGg+FRmSqMk2BqBVMz0YCvNwK/SGQ2S4NwAqmISzgqUBklwbgBVMQlnBUqDJDg3gKqYvDrnCtEeF7SjQM8JzawgzD/KvRfuk8hXxXNO1KrtafCov7zzH32nPJWnLSpMabIIoC2eLAJ6flrh2Qv5Ubv9IsJSTmUQ93uPekcD9JvP3GLJ/PnZN0rYp5PwqfOBrc5FS30fxtDw3evhk83C4yfD6++0s0mnHT1X/MI5PaKmXMZVhhLxy3yVGSKSTRxlIBFHxFFmiDxSHJ0X7cqu8CriEoK+VBgm7a9CsuhR+bO7zFLvlNhf27cymdJkoSElsKO78DFuwiklxMd874mC8Dhm90HSD19wCoIvVwSfOULn82F7nl2uZg+20ib85nrGJh/ONhxzVuCcI2STD2cbjjkrcM4RssmHsw3HnJWrcz4p2mVH2BOCisAreqxbqReK3JLjUbindvbPivbChYOSNo5lStpRUmbmNjKOvD4g/qZ8ZWf9PRLuPQIUn7lp83w+bM+zy9XswVbahN9cz9jkw9mGY84KnHOEbPLhbMMxZwXOOUI2+XC24ZizcnXOp0R79nHsUVROj7eHP6xWLHAPCvr0DnX6sfNR9G8eEw0esXZ5qYWBbHvLeeQWIdb2KoJ8bIec7039sbuF/yjc9d8LWMpkzyn+RIGVjR4Bis/ctHk+H7bn2eVq9mArbcJvrmds8uFswzFnBc45Qjb5cLbhmLMC5xwhm3w423DMWbk65+Oi/cjuc4PHy8+JwfyTAefslovW3GPxW/9Ke2eRPb6vn1o8OLKLLmWNH//fnkc5n1i9HgGKz9y0eT4ftufZ5Wr2YCttwm+uZ2zy4WzDMWcFzjlCNvlwtuGYswLnHCGbfDjbcMxZuTrn46L9AXZfYwKP9HqR/GgMewQoPnPT5vl82J5nl6vZg620Cb+5nrHJh7MNx5wVOOcI2eTD2YZjzgqcc4Rs8uFswzFn5eqcEe0sQtj+DXpjnj0CFJ+5afN8PmzPs8vV7MFW2oTfXM/Y5MPZhmPOCpxzhGzy4WzDMWcFzjlCNvlwtuGYs3J1zoh2Y5H5aDvV73t7egQoPnPT5vl82J5nl6vZg620Cb+5nrHJh7MNx5wVOOcI2eTD2YZjzgqcc4Rs8uFswzFn5eqcEe2Idnbag1mix6SAz6ATDA9hawhTMdWDrzQDv0pnNEiCcwOoikk4K1AaJMG5AVTFJJwVKA2S4NwAqmLyUTgj2hHtiPYgQHsEJz6DTjA8hK0hTMVUD77SDPwqndEgCc4NoCom4axAaZAE5wZQFZNwVqA0SIJzA6iKyUfhjGhHtCPagwDtEZz4DDrB8BC2hjAVUz34SjPwq3RGgyQ4N4CqmISzAqVBEpwbQFVMwlmB0iAJzg2gKiYfhTOiHdGOaA8CtEdw4jPoBMND2BrCVEz14CvNwK/SGQ2S4NwAqmISzgqUBklwbgBVMQlnBUqDJDg3gKqYfBTOiHZEO6I9CNAewYnPoBMMD2FrCFMx1YOvNAO/Smc0SIJzA6iKSTgrUBokwbkBVMUknBUoDZLg3ACqYvJROG9EuzSK/zBgDDAGGAOMAcYAY4AxwBhgDDAGGAOMAcZAvzHgryEsot1P5DsEIAABCEAAAhCAAAQgAAEIQAAC/Qkg2vv3AS2AAAQgAAEIQAACEIAABCAAAQioBBDtKhYSIQABCEAAAhCAAAQgAAEIQAAC/Qkg2vv3AS2AAAQgAAEIQAACEIAABCAAAQioBBDtKhYSIQABCEAAAhCAAAQgAAEIQAAC/Qkg2vv3AS2AAAQgAAEIQAACEIAABCAAAQioBBDtKhYSIQABCEAAAhCAAAQgAAEIQAAC/Qn8L8cqJfHWo1GFAAAAAElFTkSuQmCC;" parent="J2_Xc6a70r_ZDQhd3KVH-39" vertex="1">
                    <mxGeometry x="-120" y="410" width="748.4" height="140" as="geometry"/>
                </mxCell>
            </root>
        </mxGraphModel>
    </diagram>
    <diagram id="A6vm6g0vmyfji5kdxZDa" name="ページ4">
        <mxGraphModel dx="1160" dy="1703" grid="1" gridSize="10" guides="1" tooltips="1" connect="1" arrows="1" fold="1" page="1" pageScale="1" pageWidth="827" pageHeight="1169" math="0" shadow="0">
            <root>
                <mxCell id="LnPnOtjVo9vSqH_n_DIA-0"/>
                <mxCell id="LnPnOtjVo9vSqH_n_DIA-1" parent="LnPnOtjVo9vSqH_n_DIA-0"/>
                <mxCell id="LnPnOtjVo9vSqH_n_DIA-12" value="" style="edgeStyle=orthogonalEdgeStyle;rounded=0;orthogonalLoop=1;jettySize=auto;html=1;" parent="LnPnOtjVo9vSqH_n_DIA-1" source="LnPnOtjVo9vSqH_n_DIA-3" target="LnPnOtjVo9vSqH_n_DIA-4" edge="1">
                    <mxGeometry relative="1" as="geometry"/>
                </mxCell>
                <mxCell id="LnPnOtjVo9vSqH_n_DIA-3" value="camplist" style="strokeWidth=2;html=1;shape=mxgraph.flowchart.loop_limit;whiteSpace=wrap;" parent="LnPnOtjVo9vSqH_n_DIA-1" vertex="1">
                    <mxGeometry x="240" y="100" width="100" height="60" as="geometry"/>
                </mxCell>
                <mxCell id="LnPnOtjVo9vSqH_n_DIA-17" style="edgeStyle=orthogonalEdgeStyle;rounded=0;orthogonalLoop=1;jettySize=auto;html=1;entryX=0.5;entryY=0;entryDx=0;entryDy=0;entryPerimeter=0;" parent="LnPnOtjVo9vSqH_n_DIA-1" source="LnPnOtjVo9vSqH_n_DIA-4" target="LnPnOtjVo9vSqH_n_DIA-14" edge="1">
                    <mxGeometry relative="1" as="geometry"/>
                </mxCell>
                <mxCell id="LnPnOtjVo9vSqH_n_DIA-4" value="camplist.id in list.campreserv" style="strokeWidth=2;html=1;shape=mxgraph.flowchart.decision;whiteSpace=wrap;" parent="LnPnOtjVo9vSqH_n_DIA-1" vertex="1">
                    <mxGeometry x="220" y="200" width="140" height="80" as="geometry"/>
                </mxCell>
                <mxCell id="LnPnOtjVo9vSqH_n_DIA-13" value="" style="edgeStyle=orthogonalEdgeStyle;rounded=0;orthogonalLoop=1;jettySize=auto;html=1;" parent="LnPnOtjVo9vSqH_n_DIA-1" source="LnPnOtjVo9vSqH_n_DIA-5" target="LnPnOtjVo9vSqH_n_DIA-6" edge="1">
                    <mxGeometry relative="1" as="geometry"/>
                </mxCell>
                <mxCell id="LnPnOtjVo9vSqH_n_DIA-5" value="タイトル = camplist.campname&lt;br&gt;&lt;br&gt;年月＝campresrve.year +campreserve.month&lt;br&gt;&lt;br&gt;" style="whiteSpace=wrap;html=1;align=left;" parent="LnPnOtjVo9vSqH_n_DIA-1" vertex="1">
                    <mxGeometry x="144" y="480" width="270" height="60" as="geometry"/>
                </mxCell>
                <mxCell id="LnPnOtjVo9vSqH_n_DIA-16" style="edgeStyle=orthogonalEdgeStyle;rounded=0;orthogonalLoop=1;jettySize=auto;html=1;entryX=0;entryY=0.5;entryDx=0;entryDy=0;entryPerimeter=0;exitX=0.5;exitY=1;exitDx=0;exitDy=0;" parent="LnPnOtjVo9vSqH_n_DIA-1" source="LnPnOtjVo9vSqH_n_DIA-6" target="LnPnOtjVo9vSqH_n_DIA-14" edge="1">
                    <mxGeometry relative="1" as="geometry"/>
                </mxCell>
                <mxCell id="LnPnOtjVo9vSqH_n_DIA-6" value="表&lt;br&gt;項目は施設名+日&lt;br&gt;施設名、予約状況をセット" style="whiteSpace=wrap;html=1;align=left;" parent="LnPnOtjVo9vSqH_n_DIA-1" vertex="1">
                    <mxGeometry x="155" y="580" width="270" height="60" as="geometry"/>
                </mxCell>
                <mxCell id="LnPnOtjVo9vSqH_n_DIA-11" value="" style="edgeStyle=orthogonalEdgeStyle;rounded=0;orthogonalLoop=1;jettySize=auto;html=1;" parent="LnPnOtjVo9vSqH_n_DIA-1" source="LnPnOtjVo9vSqH_n_DIA-10" target="LnPnOtjVo9vSqH_n_DIA-3" edge="1">
                    <mxGeometry relative="1" as="geometry"/>
                </mxCell>
                <mxCell id="LnPnOtjVo9vSqH_n_DIA-10" value="" style="strokeWidth=2;html=1;shape=mxgraph.flowchart.start_2;whiteSpace=wrap;align=left;" parent="LnPnOtjVo9vSqH_n_DIA-1" vertex="1">
                    <mxGeometry x="240" y="-110" width="100" height="100" as="geometry"/>
                </mxCell>
                <mxCell id="LnPnOtjVo9vSqH_n_DIA-14" value="" style="verticalLabelPosition=bottom;verticalAlign=top;html=1;shape=mxgraph.flowchart.or;align=left;" parent="LnPnOtjVo9vSqH_n_DIA-1" vertex="1">
                    <mxGeometry x="450" y="680" width="70" height="70" as="geometry"/>
                </mxCell>
                <mxCell id="LnPnOtjVo9vSqH_n_DIA-20" value="" style="edgeStyle=orthogonalEdgeStyle;rounded=0;orthogonalLoop=1;jettySize=auto;html=1;" parent="LnPnOtjVo9vSqH_n_DIA-1" source="LnPnOtjVo9vSqH_n_DIA-18" target="LnPnOtjVo9vSqH_n_DIA-5" edge="1">
                    <mxGeometry relative="1" as="geometry"/>
                </mxCell>
                <mxCell id="LnPnOtjVo9vSqH_n_DIA-18" value="campid==campid" style="strokeWidth=2;html=1;shape=mxgraph.flowchart.loop_limit;whiteSpace=wrap;" parent="LnPnOtjVo9vSqH_n_DIA-1" vertex="1">
                    <mxGeometry x="240" y="340" width="100" height="60" as="geometry"/>
                </mxCell>
                <mxCell id="LnPnOtjVo9vSqH_n_DIA-19" value="ある" style="edgeStyle=orthogonalEdgeStyle;rounded=0;orthogonalLoop=1;jettySize=auto;html=1;" parent="LnPnOtjVo9vSqH_n_DIA-1" source="LnPnOtjVo9vSqH_n_DIA-4" target="LnPnOtjVo9vSqH_n_DIA-18" edge="1">
                    <mxGeometry relative="1" as="geometry">
                        <mxPoint x="290" y="280" as="sourcePoint"/>
                        <mxPoint x="290" y="350" as="targetPoint"/>
                    </mxGeometry>
                </mxCell>
            </root>
        </mxGraphModel>
    </diagram>
    <diagram id="HnG8CYZfexbUcY1EfKg9" name="ページ5">
        <mxGraphModel dx="1160" dy="1516" grid="1" gridSize="10" guides="1" tooltips="1" connect="1" arrows="1" fold="1" page="1" pageScale="1" pageWidth="827" pageHeight="1169" math="0" shadow="0">
            <root>
                <mxCell id="M0_3UaXqcmcU3xusVhJi-0"/>
                <mxCell id="M0_3UaXqcmcU3xusVhJi-1" parent="M0_3UaXqcmcU3xusVhJi-0"/>
                <mxCell id="M0_3UaXqcmcU3xusVhJi-2" value="" style="whiteSpace=wrap;html=1;" vertex="1" parent="M0_3UaXqcmcU3xusVhJi-1">
                    <mxGeometry x="120" y="-70" width="610" height="1110" as="geometry"/>
                </mxCell>
                <mxCell id="M0_3UaXqcmcU3xusVhJi-3" value="1位" style="whiteSpace=wrap;html=1;fontSize=28;" vertex="1" parent="M0_3UaXqcmcU3xusVhJi-1">
                    <mxGeometry x="150" y="80" width="540" height="190" as="geometry"/>
                </mxCell>
                <mxCell id="M0_3UaXqcmcU3xusVhJi-4" value="2位" style="whiteSpace=wrap;html=1;verticalAlign=top;" vertex="1" parent="M0_3UaXqcmcU3xusVhJi-1">
                    <mxGeometry x="150" y="270" width="280" height="190" as="geometry"/>
                </mxCell>
                <mxCell id="M0_3UaXqcmcU3xusVhJi-5" value="3位" style="whiteSpace=wrap;html=1;verticalAlign=top;" vertex="1" parent="M0_3UaXqcmcU3xusVhJi-1">
                    <mxGeometry x="430" y="270" width="260" height="190" as="geometry"/>
                </mxCell>
                <mxCell id="M0_3UaXqcmcU3xusVhJi-7" value="口コミ" style="strokeWidth=1;shadow=0;dashed=0;align=center;html=1;shape=mxgraph.mockup.buttons.button;strokeColor=#666666;fontColor=#ffffff;mainText=;buttonStyle=round;fontSize=17;fontStyle=1;fillColor=#008cff;whiteSpace=wrap;" vertex="1" parent="M0_3UaXqcmcU3xusVhJi-1">
                    <mxGeometry x="600" y="240" width="70" height="20" as="geometry"/>
                </mxCell>
                <mxCell id="M0_3UaXqcmcU3xusVhJi-8" value="口コミ" style="strokeWidth=1;shadow=0;dashed=0;align=center;html=1;shape=mxgraph.mockup.buttons.button;strokeColor=#666666;fontColor=#ffffff;mainText=;buttonStyle=round;fontSize=17;fontStyle=1;fillColor=#008cff;whiteSpace=wrap;" vertex="1" parent="M0_3UaXqcmcU3xusVhJi-1">
                    <mxGeometry x="260" y="430" width="70" height="20" as="geometry"/>
                </mxCell>
                <mxCell id="M0_3UaXqcmcU3xusVhJi-10" value="口コミ" style="strokeWidth=1;shadow=0;dashed=0;align=center;html=1;shape=mxgraph.mockup.buttons.button;strokeColor=#666666;fontColor=#ffffff;mainText=;buttonStyle=round;fontSize=17;fontStyle=1;fillColor=#008cff;whiteSpace=wrap;" vertex="1" parent="M0_3UaXqcmcU3xusVhJi-1">
                    <mxGeometry x="600" y="430" width="70" height="20" as="geometry"/>
                </mxCell>
                <mxCell id="M0_3UaXqcmcU3xusVhJi-11" value="" style="strokeWidth=1;shadow=0;dashed=0;align=center;html=1;shape=mxgraph.mockup.rrect;rSize=10;fillColor=#ffffff;strokeColor=#666666;" vertex="1" parent="M0_3UaXqcmcU3xusVhJi-1">
                    <mxGeometry x="150" y="20" width="500" height="50" as="geometry"/>
                </mxCell>
                <mxCell id="M0_3UaXqcmcU3xusVhJi-12" value="レビュー数多い順" style="strokeColor=inherit;fillColor=inherit;gradientColor=inherit;strokeWidth=1;shadow=0;dashed=0;align=center;html=1;shape=mxgraph.mockup.rrect;rSize=0;fontSize=17;fontColor=#666666;fontStyle=1;resizeHeight=1;" vertex="1" parent="M0_3UaXqcmcU3xusVhJi-11">
                    <mxGeometry width="125" height="50" relative="1" as="geometry">
                        <mxPoint x="125" as="offset"/>
                    </mxGeometry>
                </mxCell>
                <mxCell id="M0_3UaXqcmcU3xusVhJi-13" value="ページアクセス数順" style="strokeColor=inherit;fillColor=inherit;gradientColor=inherit;strokeWidth=1;shadow=0;dashed=0;align=center;html=1;shape=mxgraph.mockup.rrect;rSize=0;fontSize=17;fontColor=#666666;fontStyle=1;resizeHeight=1;" vertex="1" parent="M0_3UaXqcmcU3xusVhJi-11">
                    <mxGeometry width="125" height="50" relative="1" as="geometry">
                        <mxPoint x="250" as="offset"/>
                    </mxGeometry>
                </mxCell>
                <mxCell id="M0_3UaXqcmcU3xusVhJi-15" value="高評価順" style="strokeWidth=1;shadow=0;dashed=0;align=center;html=1;shape=mxgraph.mockup.leftButton;rSize=10;fontSize=17;fontColor=#ffffff;fontStyle=1;fillColor=#008cff;strokeColor=#008cff;resizeHeight=1;" vertex="1" parent="M0_3UaXqcmcU3xusVhJi-11">
                    <mxGeometry width="125" height="50" relative="1" as="geometry"/>
                </mxCell>
                <mxCell id="M0_3UaXqcmcU3xusVhJi-19" value="4位" style="whiteSpace=wrap;html=1;" vertex="1" parent="M0_3UaXqcmcU3xusVhJi-1">
                    <mxGeometry x="150" y="470" width="540" height="60" as="geometry"/>
                </mxCell>
                <mxCell id="M0_3UaXqcmcU3xusVhJi-22" value="5位" style="whiteSpace=wrap;html=1;" vertex="1" parent="M0_3UaXqcmcU3xusVhJi-1">
                    <mxGeometry x="150" y="530" width="540" height="60" as="geometry"/>
                </mxCell>
                <mxCell id="M0_3UaXqcmcU3xusVhJi-23" value="6位" style="whiteSpace=wrap;html=1;" vertex="1" parent="M0_3UaXqcmcU3xusVhJi-1">
                    <mxGeometry x="150" y="590" width="540" height="60" as="geometry"/>
                </mxCell>
                <mxCell id="M0_3UaXqcmcU3xusVhJi-24" value="7位" style="whiteSpace=wrap;html=1;" vertex="1" parent="M0_3UaXqcmcU3xusVhJi-1">
                    <mxGeometry x="150" y="650" width="540" height="60" as="geometry"/>
                </mxCell>
                <mxCell id="M0_3UaXqcmcU3xusVhJi-25" value="8位" style="whiteSpace=wrap;html=1;" vertex="1" parent="M0_3UaXqcmcU3xusVhJi-1">
                    <mxGeometry x="150" y="710" width="540" height="60" as="geometry"/>
                </mxCell>
                <mxCell id="M0_3UaXqcmcU3xusVhJi-26" value="9位" style="whiteSpace=wrap;html=1;" vertex="1" parent="M0_3UaXqcmcU3xusVhJi-1">
                    <mxGeometry x="150" y="770" width="540" height="60" as="geometry"/>
                </mxCell>
                <mxCell id="M0_3UaXqcmcU3xusVhJi-27" value="1０位" style="whiteSpace=wrap;html=1;" vertex="1" parent="M0_3UaXqcmcU3xusVhJi-1">
                    <mxGeometry x="150" y="830" width="540" height="60" as="geometry"/>
                </mxCell>
                <mxCell id="M0_3UaXqcmcU3xusVhJi-28" value="もっと見る" style="text;html=1;align=center;verticalAlign=middle;resizable=0;points=[];autosize=1;strokeColor=none;fontSize=15;" vertex="1" parent="M0_3UaXqcmcU3xusVhJi-1">
                    <mxGeometry x="605" y="900" width="90" height="20" as="geometry"/>
                </mxCell>
                <mxCell id="M0_3UaXqcmcU3xusVhJi-29" value="口コミ" style="strokeWidth=1;shadow=0;dashed=0;align=center;html=1;shape=mxgraph.mockup.buttons.button;strokeColor=#666666;fontColor=#ffffff;mainText=;buttonStyle=round;fontSize=17;fontStyle=1;fillColor=#008cff;whiteSpace=wrap;" vertex="1" parent="M0_3UaXqcmcU3xusVhJi-1">
                    <mxGeometry x="615" y="500" width="70" height="20" as="geometry"/>
                </mxCell>
                <mxCell id="M0_3UaXqcmcU3xusVhJi-30" value="口コミ" style="strokeWidth=1;shadow=0;dashed=0;align=center;html=1;shape=mxgraph.mockup.buttons.button;strokeColor=#666666;fontColor=#ffffff;mainText=;buttonStyle=round;fontSize=17;fontStyle=1;fillColor=#008cff;whiteSpace=wrap;" vertex="1" parent="M0_3UaXqcmcU3xusVhJi-1">
                    <mxGeometry x="615" y="565" width="70" height="20" as="geometry"/>
                </mxCell>
                <mxCell id="M0_3UaXqcmcU3xusVhJi-31" value="口コミ" style="strokeWidth=1;shadow=0;dashed=0;align=center;html=1;shape=mxgraph.mockup.buttons.button;strokeColor=#666666;fontColor=#ffffff;mainText=;buttonStyle=round;fontSize=17;fontStyle=1;fillColor=#008cff;whiteSpace=wrap;" vertex="1" parent="M0_3UaXqcmcU3xusVhJi-1">
                    <mxGeometry x="615" y="620" width="70" height="20" as="geometry"/>
                </mxCell>
                <mxCell id="M0_3UaXqcmcU3xusVhJi-32" value="口コミ" style="strokeWidth=1;shadow=0;dashed=0;align=center;html=1;shape=mxgraph.mockup.buttons.button;strokeColor=#666666;fontColor=#ffffff;mainText=;buttonStyle=round;fontSize=17;fontStyle=1;fillColor=#008cff;whiteSpace=wrap;" vertex="1" parent="M0_3UaXqcmcU3xusVhJi-1">
                    <mxGeometry x="615" y="680" width="70" height="20" as="geometry"/>
                </mxCell>
                <mxCell id="M0_3UaXqcmcU3xusVhJi-33" value="口コミ" style="strokeWidth=1;shadow=0;dashed=0;align=center;html=1;shape=mxgraph.mockup.buttons.button;strokeColor=#666666;fontColor=#ffffff;mainText=;buttonStyle=round;fontSize=17;fontStyle=1;fillColor=#008cff;whiteSpace=wrap;" vertex="1" parent="M0_3UaXqcmcU3xusVhJi-1">
                    <mxGeometry x="615" y="740" width="70" height="20" as="geometry"/>
                </mxCell>
                <mxCell id="M0_3UaXqcmcU3xusVhJi-34" value="口コミ" style="strokeWidth=1;shadow=0;dashed=0;align=center;html=1;shape=mxgraph.mockup.buttons.button;strokeColor=#666666;fontColor=#ffffff;mainText=;buttonStyle=round;fontSize=17;fontStyle=1;fillColor=#008cff;whiteSpace=wrap;" vertex="1" parent="M0_3UaXqcmcU3xusVhJi-1">
                    <mxGeometry x="605" y="800" width="70" height="20" as="geometry"/>
                </mxCell>
                <mxCell id="M0_3UaXqcmcU3xusVhJi-35" value="口コミ" style="strokeWidth=1;shadow=0;dashed=0;align=center;html=1;shape=mxgraph.mockup.buttons.button;strokeColor=#666666;fontColor=#ffffff;mainText=;buttonStyle=round;fontSize=17;fontStyle=1;fillColor=#008cff;whiteSpace=wrap;" vertex="1" parent="M0_3UaXqcmcU3xusVhJi-1">
                    <mxGeometry x="605" y="860" width="70" height="20" as="geometry"/>
                </mxCell>
                <mxCell id="M0_3UaXqcmcU3xusVhJi-36" value="写真（出きれば）" style="whiteSpace=wrap;html=1;fontSize=15;" vertex="1" parent="M0_3UaXqcmcU3xusVhJi-1">
                    <mxGeometry x="170" y="90" width="220" height="170" as="geometry"/>
                </mxCell>
                <mxCell id="M0_3UaXqcmcU3xusVhJi-37" value="写真（出きれば）" style="whiteSpace=wrap;html=1;fontSize=15;" vertex="1" parent="M0_3UaXqcmcU3xusVhJi-1">
                    <mxGeometry x="170" y="300" width="220" height="120" as="geometry"/>
                </mxCell>
                <mxCell id="M0_3UaXqcmcU3xusVhJi-38" value="写真（出きれば）" style="whiteSpace=wrap;html=1;fontSize=15;" vertex="1" parent="M0_3UaXqcmcU3xusVhJi-1">
                    <mxGeometry x="450" y="310" width="220" height="120" as="geometry"/>
                </mxCell>
                <mxCell id="M0_3UaXqcmcU3xusVhJi-39" value="口コミ" style="whiteSpace=wrap;html=1;fontSize=15;" vertex="1" parent="M0_3UaXqcmcU3xusVhJi-1">
                    <mxGeometry x="455" y="100" width="220" height="120" as="geometry"/>
                </mxCell>
                <mxCell id="M0_3UaXqcmcU3xusVhJi-40" value="キャンプ場　ランキング" style="text;html=1;align=center;verticalAlign=middle;resizable=0;points=[];autosize=1;strokeColor=none;fontSize=15;" vertex="1" parent="M0_3UaXqcmcU3xusVhJi-1">
                    <mxGeometry x="130" y="-50" width="180" height="20" as="geometry"/>
                </mxCell>
            </root>
        </mxGraphModel>
    </diagram>
</mxfile>